<svg width="48" height="48" viewBox="0 0 48 48" fill="none" xmlns="http://www.w3.org/2000/svg">
<path d="M24 0C10.7451 0 0 10.7451 0 24C0 37.2549 10.7451 48 24 48C37.2549 48 48 37.2549 48 24C48 10.7451 37.2549 0 24 0ZM24 10.7872C29.3019 10.7872 33.6 15.1707 33.6 20.5776C33.6 25.9845 29.3019 30.368 24 30.368C18.6981 30.368 14.4 25.9845 14.4 20.5776C14.4 15.1707 18.6981 10.7872 24 10.7872ZM24 44.8C18.2501 44.8 13.0384 42.4544 9.26987 38.6704C12.4133 35.6171 17.8357 33.6 24 33.6C30.1643 33.6 35.5867 35.6171 38.7301 38.6704C34.9616 42.4544 29.7499 44.8 24 44.8Z" fill="white"/>
</svg>
