<svg width="50" height="50" viewBox="0 0 50 50" fill="none" xmlns="http://www.w3.org/2000/svg">
<path d="M15.225 13.835V10.7C15.225 10.165 14.795 9.72003 14.245 9.72003C13.71 9.72003 13.265 10.165 13.265 10.7V13.835C10.835 14.29 8.99501 16.435 8.99501 18.995C8.99501 21.555 10.835 23.71 13.265 24.17V41.845C13.265 42.38 13.71 42.825 14.245 42.825C14.795 42.825 15.225 42.38 15.225 41.845V24.17C17.655 23.715 19.51 21.555 19.51 18.995C19.51 16.435 17.655 14.295 15.225 13.835ZM15.225 22.16C14.925 22.25 14.585 22.305 14.245 22.305C13.905 22.305 13.58 22.255 13.265 22.16C11.93 21.74 10.955 20.49 10.955 19C10.955 17.525 11.935 16.27 13.265 15.85C13.58 15.76 13.905 15.705 14.245 15.705C14.585 15.705 14.925 15.755 15.225 15.85C16.57 16.27 17.55 17.52 17.55 19C17.55 20.485 16.57 21.74 15.225 22.16Z" fill="black"/>
<path d="M25.965 28.44V10.7C25.965 10.165 25.52 9.72003 24.985 9.72003C24.45 9.72003 24.005 10.165 24.005 10.7V28.44C21.575 28.895 19.72 31.04 19.72 33.6C19.72 36.16 21.575 38.315 24.005 38.775V41.845C24.005 42.38 24.45 42.825 24.985 42.825C25.52 42.825 25.965 42.38 25.965 41.845V38.775C28.395 38.32 30.25 36.16 30.25 33.6C30.25 31.04 28.395 28.9 25.965 28.44ZM25.965 36.765C25.665 36.855 25.325 36.91 24.985 36.91C24.645 36.91 24.305 36.86 24.005 36.765C22.66 36.345 21.68 35.095 21.68 33.605C21.68 32.13 22.66 30.875 24.005 30.455C24.305 30.365 24.645 30.31 24.985 30.31C25.325 30.31 25.665 30.36 25.965 30.455C27.31 30.875 28.29 32.125 28.29 33.605C28.29 35.09 27.31 36.345 25.965 36.765Z" fill="black"/>
<path d="M36.7 19.545V10.7C36.7 10.165 36.255 9.72003 35.72 9.72003C35.17 9.72003 34.74 10.165 34.74 10.7V19.545C32.31 20 30.455 22.16 30.455 24.72C30.455 27.28 32.31 29.435 34.74 29.895V41.85C34.74 42.385 35.17 42.83 35.72 42.83C36.255 42.83 36.7 42.385 36.7 41.85V29.89C39.13 29.435 40.97 27.275 40.97 24.715C40.97 22.155 39.13 20.005 36.7 19.545ZM36.7 27.865C36.385 27.97 36.06 28.02 35.72 28.02C35.38 28.02 35.04 27.97 34.74 27.865C33.395 27.445 32.415 26.195 32.415 24.715C32.415 23.225 33.395 21.97 34.74 21.555C35.04 21.465 35.38 21.41 35.72 21.41C36.06 21.41 36.385 21.46 36.7 21.555C38.035 21.975 39.01 23.225 39.01 24.715C39.015 26.195 38.035 27.45 36.7 27.865Z" fill="black"/>
</svg>
