<svg width="48" height="48" viewBox="0 0 48 48" fill="none" xmlns="http://www.w3.org/2000/svg">
<path d="M24 3C12.402 3 3 12.402 3 24C3 35.598 12.402 45 24 45C35.598 45 45 35.598 45 24C45 12.402 35.598 3 24 3ZM21 9H27V21L25.5 30H22.5L21 21V9ZM24 33C24.7956 33 25.5587 33.3161 26.1213 33.8787C26.6839 34.4413 27 35.2044 27 36C27 36.7956 26.6839 37.5587 26.1213 38.1213C25.5587 38.6839 24.7956 39 24 39C23.2044 39 22.4413 38.6839 21.8787 38.1213C21.3161 37.5587 21 36.7956 21 36C21 35.2044 21.3161 34.4413 21.8787 33.8787C22.4413 33.3161 23.2044 33 24 33Z" fill="#EF2929"/>
</svg>
