<svg width="60" height="60" viewBox="0 0 60 60" fill="none" xmlns="http://www.w3.org/2000/svg">
<path d="M29.9623 0C46.517 0 60 13.4083 60 29.9626C60 46.5918 46.517 60 29.9623 60C13.4082 60 0 46.5169 0 29.9626C0 13.4083 13.4082 0 29.9623 0ZM31.2359 57.4533C30.0376 58.2772 28.6143 58.7269 27.191 58.9515C32.9586 59.4759 38.8016 58.2772 43.895 55.5055C43.6704 55.5055 43.5206 55.4306 43.2956 55.4306C39.4009 56.6293 35.2807 57.2287 31.2359 57.4533ZM13.1086 53.633C12.9588 52.06 13.7828 50.2623 14.5318 48.9139C11.6854 42.8464 10.0374 39.326 9.66289 38.5769C7.1161 37.3782 4.94381 35.8052 3.29587 33.483C2.54679 34.3819 2.02248 35.5057 1.72284 36.704C3.29587 43.5206 7.34083 49.5133 13.1086 53.633ZM10.5618 38.277C11.0112 39.1762 12.5843 42.6966 15.3558 48.5396C19.0262 49.4384 22.6965 50.1875 26.3671 50.6367C28.6143 48.1648 30.6365 45.4684 32.4346 42.5469C30.7114 39.326 29.2132 35.9549 27.8652 32.5842C23.9701 31.9849 20.0749 31.3111 16.1798 30.4867C14.382 33.1087 12.4345 35.6554 10.5618 38.277ZM33.2585 43.0714C31.4605 45.9176 29.4382 48.6893 27.1161 51.1612L31.3107 56.5545C35.2807 56.3295 39.2507 55.7305 42.9962 54.5318C45.3183 52.2097 47.4158 49.663 48.9888 46.7415C47.1159 45.2434 45.6177 42.9212 44.4943 40.899C40.9739 42.3223 37.0035 42.8464 33.2585 43.0714ZM45.1685 40.2248C46.2171 42.1722 47.7901 44.6444 49.5882 46.0673C51.9851 44.869 54.0822 43.296 55.8803 41.3482C57.603 36.7793 58.2772 32.6591 57.9025 28.9139C56.8539 27.1161 55.5055 25.3933 53.8576 24.045C51.6104 25.8427 49.2134 27.5656 46.8164 29.2135C46.5918 32.8088 46.1422 36.7793 45.1685 40.2248ZM16.3295 29.588C20.2247 30.4119 24.1198 31.0861 27.9401 31.6854C30.1125 28.5394 32.734 25.8427 35.7304 23.5206C34.7567 20.0749 33.8574 16.4794 32.9586 12.8839C29.2885 12.2846 25.618 11.6854 22.0223 11.0861C18.9513 13.8577 16.03 16.854 13.4082 20.0749C14.4569 23.221 15.4307 26.3671 16.3295 29.588ZM1.3483 34.9064C1.72284 34.0824 2.2472 33.2584 2.92133 32.5842C2.47193 28.1648 2.92133 25.4682 4.26964 21.2734C3.97005 19.9251 3.89514 18.5768 3.89514 17.2285C1.19849 22.6966 0.299632 28.9139 1.3483 34.9064ZM4.8689 15.3558C4.71908 17.0787 4.71908 18.8764 5.09362 20.5993C7.49064 19.4757 10.1123 18.8764 12.7341 19.4757C15.3558 16.2547 18.2771 13.2584 21.2732 10.4869C20.6743 8.68915 20.7492 6.44195 20.824 4.56928C18.6517 4.56928 16.4045 5.01873 14.3071 5.54305C10.412 8.01498 7.19101 11.3858 4.8689 15.3558ZM33.8574 12.6592C34.7567 16.2547 35.6555 19.8502 36.6292 23.3708C39.9998 24.3446 43.9698 25.8427 46.4417 28.3895C48.8391 26.7416 51.1612 25.0937 53.408 23.2959C52.9588 19.6255 51.9098 16.1049 50.0373 12.9588C46.9662 10.7865 43.7452 9.13856 40.2249 8.01498C38.0525 9.4382 35.8801 11.0112 33.8574 12.6592ZM58.8013 28.7641C59.1012 31.0861 58.951 33.5579 58.427 36.1799C59.1012 33.2584 59.3258 28.3895 58.8013 25.5431C58.8013 26.2172 58.8762 28.1648 58.8013 28.7641ZM40.4494 7.11612C43.895 8.2397 47.1908 9.88764 50.2619 11.985C50.7116 11.3858 51.3858 11.161 52.1349 11.161C48.09 6.44195 42.6967 3.07116 36.6292 1.72285C35.8052 1.72285 35.131 1.79776 34.5317 1.94753C36.9286 3.14606 38.8764 4.94382 40.4494 7.11612ZM21.0486 3.67038C24.6443 2.02244 29.1384 0.674132 33.3334 1.42322C33.4831 1.34831 33.6329 1.2734 33.8574 1.19849C28.0898 0.374499 22.0972 1.42322 16.8539 4.04492C18.2771 3.8202 19.6253 3.67038 21.0486 3.67038Z" fill="black"/>
</svg>
