<svg width="60" height="60" viewBox="0 0 60 60" fill="none" xmlns="http://www.w3.org/2000/svg">
<path d="M41.717 1.24969L44.3575 1.98255C44.6957 2.07831 44.9318 2.45463 44.8752 2.80701L44.4701 5.29568C44.941 5.70939 45.2983 6.29539 45.4603 6.85301C45.8813 5.54015 46.6562 4.49862 47.5008 3.63911C48.5671 2.554 49.7532 2.03691 50.8392 1.95965C51.8861 1.88516 52.8377 2.22091 53.4874 2.83753C54.2117 2.53161 55.0692 2.28442 55.7604 2.28789C56.3995 2.29745 57.0727 2.50961 57.5832 3.01314C57.9506 3.53598 58.123 4.26904 58.0709 4.82237C58.0109 5.39064 57.8107 5.9279 57.5383 6.44842C56.9935 7.48941 56.166 8.47874 55.4227 9.33403C54.1742 10.7707 52.4534 11.3098 50.6066 11.3876C51.1217 11.5815 51.5748 11.8965 51.942 12.3189C52.7287 13.2239 53.1581 14.5408 53.2848 16.0748C53.3314 17.3674 53.3942 18.704 53.1571 19.8079C52.9224 20.8533 52.4443 21.7963 51.5894 22.2965C51.3761 22.9027 51.0574 23.2926 50.4115 23.4568C50.5591 23.1565 50.6105 22.8563 50.5766 22.5561C49.6164 22.605 48.7471 22.2853 48.0259 21.8232C47.2248 21.2611 46.5 20.5428 45.9406 19.8307C44.8354 18.2563 44.8495 16.6455 45.0252 15.1511C44.3522 15.1536 43.7194 15.0156 43.2024 14.632C43.1974 14.6271 43.1923 14.6219 43.1873 14.6167C42.3845 13.9813 42.1262 12.9335 42.3096 11.9906C42.3737 11.661 42.4846 11.3378 42.6322 11.0211C42.1999 11.1257 41.7586 11.1762 41.3268 11.189C40.2084 11.2224 39.1303 11.0147 38.3938 10.3112C38.04 9.86262 37.9063 9.22776 37.921 8.73855C37.9406 8.21763 38.0671 7.67892 38.2812 7.15069C38.7094 6.09425 39.4735 5.04948 40.6068 4.58568C40.787 4.52741 40.98 4.47356 41.1394 4.43299L39.174 3.88339C38.8363 3.79526 38.5932 3.42882 38.6388 3.07734C38.6846 2.72588 39.013 2.43637 39.3614 2.44057C40.2991 2.63724 41.2584 2.94343 42.197 3.20395C42.5009 3.28736 42.7308 3.59376 42.7298 3.91393V4.42539C42.8666 4.45427 43.0025 4.48894 43.1347 4.53227L43.3524 3.21924L41.3345 2.66195C40.997 2.57385 40.7561 2.20422 40.8017 1.85275C40.9128 1.36874 41.2858 1.17651 41.717 1.24968V1.24969ZM51.1992 3.4101C50.4365 3.38134 49.482 3.69185 48.521 4.66971C47.429 5.99904 46.7777 7.32405 46.6507 8.31437C48.4898 6.14548 49.6051 5.17351 50.8241 4.37198C51.156 4.15383 51.576 3.87869 52.0394 3.60094C51.7469 3.49551 51.4538 3.42156 51.1992 3.4101ZM55.7453 3.75363C54.2246 3.86625 52.8665 4.7724 51.6043 5.60104C50.6424 6.23353 49.7189 6.93548 48.2885 8.76148C48.7063 9.03526 49.0646 9.49492 49.2338 9.89894C51.3864 10.0533 53.166 9.71815 54.3425 8.36452C55.067 7.53087 55.8293 6.59025 56.263 5.76136C56.4799 5.34689 56.6138 4.96089 56.6455 4.66205C56.6734 4.39943 56.6292 4.21188 56.5255 4.02845C56.3153 3.84284 56.0875 3.75874 55.7453 3.75363ZM41.1394 5.9522C40.535 6.19958 39.9329 6.93482 39.6166 7.71563C39.4327 8.24455 39.276 8.73689 39.444 9.27297C39.7337 9.50753 40.4546 9.74808 41.2819 9.72339C42.1404 9.69776 43.0524 9.41837 43.6298 8.96761C44.3256 8.27264 44.3045 7.33588 43.7875 6.67741C43.255 5.91867 42.043 5.62346 41.1394 5.9522ZM42.8647 6.34153C43.374 6.77339 43.2883 7.5486 42.6773 8.06682C42.0662 8.58501 41.161 8.65134 40.6517 8.21948C40.1424 7.78763 40.2206 7.02005 40.8317 6.50185C41.465 6.08798 42.2762 5.85635 42.8647 6.34153ZM49.2938 12.151C49.1609 12.6223 48.9473 13.0896 48.6487 13.5327C48.0283 14.4533 46.9956 14.8953 46.0006 15.0671C45.9806 15.2201 45.9641 15.3674 45.948 15.5175C46.735 15.3181 47.5344 14.9229 48.1836 14.3724C48.8866 13.7762 49.4122 13.019 49.6164 12.1433C49.5098 12.1253 49.3901 12.1436 49.2938 12.151ZM50.5392 12.4105C50.2735 13.5043 49.6205 14.4314 48.7987 15.1282C47.951 15.8471 46.9193 16.3298 45.888 16.5329C45.8882 16.696 45.8969 16.8601 45.9106 17.0215C46.9709 16.8205 48.0835 16.3425 48.9787 15.6473C49.9822 14.868 50.7036 13.8406 50.8692 12.6319C50.7619 12.5429 50.6393 12.4736 50.5392 12.4105ZM51.6343 13.5709C51.2698 14.7232 50.4974 15.6875 49.5564 16.4183C48.5318 17.214 47.299 17.7471 46.0906 17.9757C46.1474 18.1636 46.2132 18.3527 46.3006 18.5406C47.4569 18.3835 48.7198 17.8793 49.7738 17.1283C50.789 16.4053 51.6058 15.4628 51.9946 14.4106C51.8935 14.1031 51.7706 13.8203 51.6343 13.5709ZM52.3094 15.9298C51.823 16.7089 51.1426 17.3451 50.3215 17.9299C49.2708 18.6783 48.0547 19.1938 46.8631 19.4262C47.0098 19.6051 47.1706 19.7857 47.3434 19.9681C49.6877 19.4787 51.3022 18.59 52.3694 16.6626C52.3524 16.3984 52.3344 16.1823 52.3094 15.9298ZM52.3846 18.3268C51.3206 19.5721 49.9094 20.3228 48.2136 20.7697C48.4682 20.9638 48.7548 21.1236 49.0162 21.2583C50.1811 21.2385 51.4176 20.4418 52.2946 19.1895C52.3385 18.9145 52.3668 18.6258 52.3846 18.3268Z" fill="black"/>
<path d="M18.283 1.24969L15.6424 1.98255C15.3043 2.07831 15.0681 2.45463 15.1247 2.80701L15.5298 5.29568C15.0591 5.70939 14.7018 6.29539 14.5396 6.85301C14.1188 5.54015 13.3438 4.49862 12.4991 3.63911C11.4328 2.554 10.2467 2.03691 9.16082 1.95965C8.11399 1.88516 7.16227 2.22091 6.51269 2.83753C5.78834 2.53161 4.93082 2.28442 4.23965 2.28789C3.60053 2.29745 2.92723 2.50961 2.41671 3.01314C2.04947 3.53598 1.87708 4.26904 1.92909 4.82237C1.98921 5.39064 2.18933 5.9279 2.46171 6.44842C3.00648 7.48941 3.83393 8.47874 4.57723 9.33403C5.82581 10.7707 7.54646 11.3098 9.39338 11.3876C8.8783 11.5815 8.4252 11.8965 8.05805 12.3189C7.27138 13.2239 6.84197 14.5408 6.71522 16.0748C6.66874 17.3674 6.60571 18.704 6.84276 19.8079C7.07758 20.8533 7.55575 21.7963 8.41063 22.2965C8.62402 22.9027 8.94266 23.2926 9.58843 23.4568C9.44086 23.1565 9.38954 22.8563 9.42338 22.5561C10.3835 22.605 11.2528 22.2853 11.974 21.8232C12.7752 21.2611 13.5 20.5428 14.0595 19.8307C15.1646 18.2563 15.1504 16.6455 14.9747 15.1511C15.6478 15.1536 16.2805 15.0156 16.7976 14.632C16.8027 14.6271 16.8077 14.6219 16.8126 14.6167C17.6156 13.9813 17.8737 12.9335 17.6903 11.9906C17.6263 11.661 17.5153 11.3378 17.3678 11.0211C17.8002 11.1257 18.2414 11.1762 18.6731 11.189C19.7916 11.2224 20.8697 11.0147 21.6063 10.3112C21.9599 9.86262 22.0936 9.22776 22.0789 8.73855C22.0593 8.21763 21.9329 7.67892 21.7188 7.15069C21.2907 6.09425 20.5264 5.04948 19.3933 4.58568C19.2129 4.52741 19.0199 4.47356 18.8606 4.43299L20.8261 3.88339C21.1636 3.79526 21.4068 3.42882 21.3611 3.07734C21.3155 2.72588 20.9869 2.43637 20.6386 2.44057C19.7008 2.63724 18.7416 2.94343 17.8029 3.20395C17.4991 3.28736 17.2693 3.59376 17.2703 3.91393V4.42539C17.1333 4.45427 16.9976 4.48894 16.8652 4.53227L16.6476 3.21924L18.6656 2.66195C19.0031 2.57385 19.2439 2.20422 19.1982 1.85275C19.0873 1.36874 18.7141 1.17651 18.283 1.24968V1.24969ZM8.80073 3.4101C9.56357 3.38134 10.518 3.69185 11.4789 4.66971C12.5709 5.99904 13.2222 7.32405 13.3492 8.31437C11.5102 6.14548 10.3949 5.17351 9.17582 4.37198C8.84407 4.15383 8.4241 3.87869 7.96054 3.60094C8.25307 3.49551 8.54621 3.42156 8.80073 3.4101ZM4.25465 3.75363C5.77534 3.86625 7.13359 4.7724 8.39563 5.60104C9.3576 6.23353 10.2811 6.93548 11.7114 8.76148C11.2937 9.03526 10.9352 9.49492 10.7662 9.89894C8.61367 10.0533 6.83388 9.71815 5.65747 8.36452C4.93296 7.53087 4.17079 6.59025 3.73702 5.76136C3.52013 5.34689 3.38604 4.96089 3.35443 4.66205C3.32664 4.39943 3.3709 4.21188 3.47446 4.02845C3.68475 3.84284 3.91246 3.75874 4.25465 3.75363ZM18.8606 5.9522C19.465 6.19958 20.067 6.93482 20.3835 7.71563C20.5672 8.24455 20.724 8.73689 20.556 9.27297C20.2663 9.50753 19.5453 9.74808 18.7181 9.72339C17.8595 9.69776 16.9476 9.41837 16.37 8.96761C15.6744 8.27264 15.6954 7.33588 16.2125 6.67741C16.7449 5.91867 17.9569 5.62346 18.8606 5.9522ZM17.1352 6.34153C16.626 6.77339 16.7117 7.5486 17.3228 8.06682C17.9339 8.58501 18.839 8.65134 19.3483 8.21948C19.8575 7.78763 19.7793 7.02005 19.1682 6.50185C18.5349 6.08798 17.7238 5.85635 17.1352 6.34153ZM10.7062 12.151C10.8391 12.6223 11.0527 13.0896 11.3514 13.5327C11.9718 14.4533 13.0045 14.8953 13.9995 15.0671C14.0195 15.2201 14.0358 15.3674 14.052 15.5175C13.2651 15.3181 12.4656 14.9229 11.8164 14.3724C11.1133 13.7762 10.5879 13.019 10.3836 12.1433C10.4902 12.1253 10.6099 12.1436 10.7062 12.151ZM9.4609 12.4105C9.72648 13.5043 10.3796 14.4314 11.2013 15.1282C12.0491 15.8471 13.0808 16.3298 14.112 16.5329C14.1118 16.696 14.1031 16.8601 14.0895 17.0215C13.0291 16.8205 11.9165 16.3425 11.0213 15.6473C10.0178 14.868 9.29647 13.8406 9.13082 12.6319C9.23801 12.5429 9.36074 12.4736 9.4609 12.4105ZM8.36563 13.5709C8.73019 14.7232 9.50244 15.6875 10.4436 16.4183C11.4681 17.214 12.7009 17.7471 13.9095 17.9757C13.8526 18.1636 13.7867 18.3527 13.6994 18.5406C12.5431 18.3835 11.2803 17.8793 10.2261 17.1283C9.21108 16.4053 8.39426 15.4628 8.00554 14.4106C8.10641 14.1031 8.22934 13.8203 8.36563 13.5709ZM7.69046 15.9298C8.17692 16.7089 8.85746 17.3451 9.67843 17.9299C10.7291 18.6783 11.9453 19.1938 13.1368 19.4262C12.9903 19.6051 12.8294 19.7857 12.6567 19.9681C10.3122 19.4787 8.69777 18.59 7.63046 16.6626C7.64772 16.3984 7.6657 16.1823 7.69046 15.9298ZM7.61544 18.3268C8.67926 19.5721 10.0907 20.3228 11.7864 20.7697C11.5317 20.9638 11.2453 21.1236 10.9838 21.2583C9.81883 21.2385 8.5824 20.4418 7.70546 19.1895C7.66145 18.9145 7.63318 18.6258 7.61544 18.3268Z" fill="black"/>
<path d="M29.9786 6.97754C39.372 6.97754 47.0225 14.8047 47.0225 24.4685C47.0225 34.1759 39.372 42.0031 29.9786 42.0031C20.5856 42.0031 12.9776 34.1322 12.9776 24.4685C12.9776 14.8047 20.5856 6.97754 29.9786 6.97754ZM30.7013 40.5164C30.0214 40.9974 29.2138 41.2599 28.4062 41.391C31.6788 41.6972 34.9942 40.9974 37.8842 39.3794C37.7568 39.3794 37.6718 39.3357 37.5442 39.3357C35.3342 40.0354 32.9964 40.3853 30.7013 40.5164ZM20.4156 38.2863C20.3306 37.368 20.7981 36.3186 21.2231 35.5315C19.608 31.9895 18.673 29.9344 18.4604 29.4972C17.0154 28.7974 15.7828 27.8791 14.8477 26.5236C14.4227 27.0483 14.1252 27.7043 13.9551 28.4038C14.8477 32.3831 17.1429 35.8814 20.4156 38.2863ZM18.9705 29.3221C19.2255 29.847 20.1181 31.9021 21.6907 35.313C23.7733 35.8376 25.8559 36.2749 27.9386 36.5372C29.2138 35.0942 30.3612 33.5201 31.3814 31.8147C30.4037 29.9344 29.5536 27.9665 28.7887 25.9989C26.5786 25.649 24.3684 25.2557 22.1582 24.7744C21.1381 26.3051 20.0331 27.7917 18.9705 29.3221ZM31.849 32.1209C30.8287 33.7823 29.6813 35.4004 28.3637 36.8433L30.7438 39.9917C32.9964 39.8604 35.249 39.5107 37.3742 38.811C38.6918 37.4554 39.882 35.9688 40.7746 34.2633C39.7118 33.3888 38.8618 32.0332 38.2243 30.8527C36.2268 31.6836 33.9739 31.9895 31.849 32.1209ZM38.6069 30.4591C39.2018 31.5959 40.0944 33.0391 41.1146 33.8697C42.4747 33.1702 43.6646 32.252 44.6849 31.1149C45.6624 28.4478 46.045 26.0426 45.8323 23.8563C45.2374 22.8068 44.4722 21.8011 43.5372 21.014C42.2621 22.0635 40.902 23.0692 39.5419 24.0312C39.4145 26.13 39.1594 28.4478 38.6069 30.4591ZM22.2432 24.2498C24.4534 24.7307 26.6635 25.1243 28.8312 25.4742C30.0638 23.6376 31.5514 22.0635 33.2515 20.7079C32.699 18.6965 32.1888 16.5975 31.6788 14.4986C29.5963 14.1488 27.5136 13.799 25.4734 13.4492C23.7308 15.0671 22.0732 16.8162 20.5856 18.6965C21.1806 20.533 21.7332 22.3695 22.2432 24.2498ZM13.7426 27.3544C13.9551 26.8734 14.2527 26.3925 14.6352 25.9989C14.3802 23.419 14.6352 21.8448 15.4002 19.3961C15.2302 18.609 15.1877 17.8219 15.1877 17.0348C13.6576 20.2269 13.1476 23.8563 13.7426 27.3544ZM15.7403 15.9416C15.6552 16.9474 15.6552 17.9968 15.8678 19.0026C17.2279 18.3466 18.7155 17.9968 20.2031 18.3466C21.6907 16.4664 23.3483 14.7173 25.0483 13.0994C24.7085 12.0499 24.751 10.7381 24.7934 9.6449C23.5608 9.6449 22.2857 9.90727 21.0956 10.2133C18.8855 11.6564 17.0579 13.6241 15.7403 15.9416ZM32.1888 14.3674C32.699 16.4664 33.209 18.5653 33.7615 20.6205C35.6741 21.1889 37.9267 22.0635 39.3293 23.5502C40.6896 22.5882 42.0072 21.6262 43.2821 20.5767C43.0272 18.4341 42.432 16.3789 41.3695 14.5424C39.6269 13.2743 37.7993 12.3123 35.8018 11.6564C34.5691 12.4872 33.3365 13.4054 32.1888 14.3674ZM46.3423 23.7688C46.5125 25.1243 46.4273 26.5673 46.1299 28.0979C46.5125 26.3925 46.6399 23.5502 46.3423 21.8886C46.3423 22.2821 46.3848 23.419 46.3423 23.7688ZM35.9292 11.1316C37.8842 11.7875 39.7543 12.7495 41.497 13.9739C41.7521 13.6241 42.1346 13.4929 42.5597 13.4929C40.2646 10.7381 37.2043 8.77035 33.7615 7.98327C33.294 7.98327 32.9114 8.027 32.5714 8.11443C33.9314 8.81408 35.0366 9.86354 35.9292 11.1316ZM24.9209 9.12016C26.9611 8.15816 29.5111 7.37107 31.8914 7.80835C31.9764 7.76463 32.0614 7.7209 32.1888 7.67717C28.9162 7.19616 25.5158 7.80835 22.5407 9.3388C23.3483 9.20761 24.1133 9.12016 24.9209 9.12016Z" fill="black"/>
<path d="M4.7496 50.0247C4.7496 52.2486 4.8672 54.023 5.1024 55.3481C4.74401 55.4864 4.3632 55.5555 3.96 55.5555C3.5568 55.5555 3.204 55.423 2.9016 55.158C2.61041 54.8931 2.4648 54.5301 2.4648 54.0691C2.4648 53.5968 2.52079 52.7094 2.6328 51.4074C2.74481 50.1054 2.8008 49.097 2.8008 48.3827C2.8008 46.6197 2.6832 44.9202 2.448 43.2839C3.27679 43.3531 4.39121 43.3876 5.7912 43.3876C7.19119 43.3876 8.5296 43.2839 9.8064 43.0765C9.9408 43.3301 10.008 43.6353 10.008 43.9926C10.008 44.3383 9.8736 44.6494 9.6048 44.9259C9.34721 45.1909 9.02239 45.3234 8.6304 45.3234C8.24959 45.3234 7.63361 45.2659 6.7824 45.1506C5.9424 45.0353 5.3208 44.9778 4.9176 44.9778C4.82801 46.2338 4.77199 47.3859 4.7496 48.4346C5.39921 48.5037 6.11599 48.5383 6.9 48.5383C7.69519 48.5383 8.38399 48.4173 8.9664 48.1753C9.1008 48.4289 9.168 48.7341 9.168 49.0914C9.168 49.437 9.0336 49.7538 8.7648 50.042C8.50721 50.3185 8.19919 50.4568 7.8408 50.4568C7.48241 50.4568 6.9672 50.3876 6.2952 50.2494C5.6232 50.0995 5.10799 50.0247 4.7496 50.0247ZM12.0912 55.763C10.8592 55.763 9.95201 55.3943 9.3696 54.6568C8.78719 53.9079 8.496 52.8709 8.496 51.5457C8.496 50.2091 8.8824 49.0511 9.6552 48.0716C10.428 47.0921 11.4192 46.6025 12.6288 46.6025C15.1152 46.6025 16.3584 48.0427 16.3584 50.9235C16.3584 52.2716 15.9552 53.418 15.1488 54.363C14.3424 55.2963 13.3232 55.763 12.0912 55.763ZM10.8816 48.5037C10.68 49.1721 10.5792 49.8402 10.5792 50.5086C10.5792 51.177 10.6016 51.6955 10.6464 52.0642C10.6912 52.4328 10.7752 52.8017 10.8984 53.1704C11.156 53.9192 11.66 54.2938 12.4104 54.2938C13.172 54.2938 13.6704 54.0864 13.9056 53.6716C14.152 53.2568 14.2752 52.6173 14.2752 51.7531C14.2752 49.2988 13.7096 48.0716 12.5784 48.0716C11.9288 48.0716 11.3632 48.2155 10.8816 48.5037ZM19.0573 55.763C17.8253 55.763 16.9181 55.3943 16.3357 54.6568C15.7533 53.9079 15.4621 52.8709 15.4621 51.5457C15.4621 50.2091 15.8485 49.0511 16.6213 48.0716C17.3941 47.0921 18.3853 46.6025 19.5949 46.6025C22.0813 46.6025 23.3245 48.0427 23.3245 50.9235C23.3245 52.2716 22.9213 53.418 22.1149 54.363C21.3085 55.2963 20.2893 55.763 19.0573 55.763ZM17.8477 48.5037C17.6461 49.1721 17.5453 49.8402 17.5453 50.5086C17.5453 51.177 17.5677 51.6955 17.6125 52.0642C17.6573 52.4328 17.7413 52.8017 17.8645 53.1704C18.1221 53.9192 18.6261 54.2938 19.3765 54.2938C20.1381 54.2938 20.6365 54.0864 20.8717 53.6716C21.1181 53.2568 21.2413 52.6173 21.2413 51.7531C21.2413 49.2988 20.6757 48.0716 19.5445 48.0716C18.8949 48.0716 18.3293 48.2155 17.8477 48.5037ZM23.621 44.2691C23.9794 44.0847 24.3434 43.9926 24.713 43.9926C25.0826 43.9926 25.3793 44.1136 25.6034 44.3555C25.8386 44.5975 25.9562 44.9548 25.9562 45.4272C25.9562 45.8995 25.9282 46.4353 25.8722 47.0346C26.7122 47.0346 27.5129 46.9136 28.2746 46.6716C28.409 46.902 28.4762 47.1728 28.4762 47.4839C28.4762 47.7834 28.3418 48.0314 28.073 48.2272C27.8153 48.4116 27.5522 48.5037 27.2834 48.5037C27.0146 48.5037 26.7122 48.4691 26.3762 48.4C26.0402 48.3309 25.8218 48.2906 25.721 48.279C25.7098 48.3827 25.6762 48.5901 25.6202 48.9012C25.5754 49.2123 25.5362 49.4832 25.5026 49.7136C25.4129 50.3474 25.3682 51.0272 25.3682 51.7531C25.3682 53.3316 25.8665 54.121 26.8634 54.121C27.233 54.121 27.6586 53.9884 28.1402 53.7234C28.2857 53.9425 28.3586 54.2247 28.3586 54.5704C28.3586 54.916 28.1738 55.1869 27.8042 55.3827C27.4457 55.5672 27.0146 55.6592 26.5106 55.6592C24.5393 55.6592 23.5538 54.5069 23.5538 52.2025C23.5538 51.8684 23.5986 51.2635 23.6882 50.3876C23.789 49.5118 23.8394 48.8032 23.8394 48.2617C23.3018 48.2963 22.8706 48.3943 22.5458 48.5555C22.4114 48.3481 22.3442 48.1118 22.3442 47.8469C22.3442 47.5704 22.4394 47.3457 22.6298 47.1728C22.8202 46.9884 23.0554 46.8963 23.3354 46.8963C23.6154 46.8963 23.8002 46.902 23.8898 46.9136C23.901 46.8215 23.9066 46.7005 23.9066 46.5506C23.9066 45.6864 23.8114 44.9259 23.621 44.2691ZM28.0987 52.6864L28.2667 50.1975C28.2667 49.0797 28.11 48.0197 27.7963 47.0173C28.11 46.879 28.4964 46.8099 28.9555 46.8099C29.8514 46.8099 30.2995 47.3227 30.2995 48.3481C30.2995 48.8091 30.2378 49.46 30.1147 50.3012C29.9916 51.1425 29.9299 51.7242 29.9299 52.0469C29.9299 52.358 29.9354 52.5884 29.9467 52.7383C29.958 52.8765 29.9858 53.0437 30.0307 53.2395C30.0979 53.6313 30.3163 53.8272 30.6859 53.8272C31.0668 53.8272 31.47 53.5217 31.8955 52.9111C32.3323 52.2889 32.6796 51.6032 32.9371 50.8543C33.2059 50.1054 33.3403 49.5118 33.3403 49.0741C33.2844 48.1637 33.1891 47.4783 33.0547 47.0173C33.413 46.879 33.7771 46.8099 34.1467 46.8099C34.5276 46.8099 34.841 46.9309 35.0875 47.1728C35.345 47.4148 35.4739 47.7375 35.4739 48.1407C35.4739 54.4321 34.3538 58.2057 32.1139 59.4617C31.6099 59.7383 31.0387 59.8765 30.4003 59.8765C29.7619 59.8765 29.202 59.7037 28.7203 59.358C28.2499 59.0123 28.0147 58.5284 28.0147 57.9062C28.0147 57.4913 28.1659 57.14 28.4683 56.8518C28.7707 56.5753 29.129 56.437 29.5435 56.437C29.633 56.437 29.7451 56.4486 29.8795 56.4716C29.8459 56.6215 29.8291 56.7538 29.8291 56.8691C29.8291 57.8832 30.1706 58.3901 30.8539 58.3901C31.2684 58.3901 31.6435 58.1597 31.9795 57.6988C32.3155 57.2378 32.5843 56.6733 32.7859 56.0049C33.1778 54.6452 33.3739 53.4123 33.3739 52.3062C33.0379 53.2395 32.5788 53.9943 31.9963 54.5704C31.4251 55.1351 30.8035 55.4173 30.1315 55.4173C28.7762 55.4173 28.0987 54.5069 28.0987 52.6864ZM35.7386 43.837C37.3514 43.3993 38.7571 43.1802 39.9554 43.1802C42.5203 43.1802 43.8026 44.0963 43.8026 45.9284C43.8026 47.0462 43.2931 47.8988 42.2738 48.4864C42.9571 48.6593 43.5226 48.9933 43.9706 49.4889C44.4187 49.9728 44.6426 50.5835 44.6426 51.321C44.6426 52.7037 44.1442 53.7753 43.1474 54.5358C42.1507 55.2847 40.9186 55.6592 39.4514 55.6592C37.9843 55.6592 36.713 55.3597 35.6378 54.7605C35.9851 53.516 36.1586 51.8395 36.1586 49.7309C36.1586 47.6106 36.0187 45.6462 35.7386 43.837ZM38.2754 53.7926C38.7682 53.9538 39.2611 54.0346 39.7538 54.0346C40.5266 54.0346 41.165 53.8388 41.669 53.4469C42.173 53.0437 42.425 52.479 42.425 51.7531C42.425 50.3704 41.6971 49.679 40.241 49.679C39.5467 49.679 38.8411 49.8289 38.1242 50.1284C38.1242 51.2921 38.1746 52.5136 38.2754 53.7926ZM38.1074 48.6074C38.2642 48.5728 38.4938 48.5326 38.7962 48.4864C39.1099 48.4402 39.3506 48.4 39.5186 48.3654C39.6866 48.3309 39.8938 48.279 40.1402 48.2099C40.3978 48.1407 40.5938 48.06 40.7282 47.9679C40.8739 47.8642 41.0194 47.7375 41.165 47.5876C41.4451 47.2995 41.585 46.879 41.585 46.3259C41.585 45.2543 40.9634 44.7185 39.7202 44.7185C39.317 44.7185 38.8243 44.7876 38.2418 44.9259C38.1523 47.2881 38.1074 48.5153 38.1074 48.6074ZM46.0159 51.6321C46.0159 52.4617 46.1448 53.1185 46.4023 53.6025C46.6598 54.0748 47.0911 54.3111 47.6959 54.3111C48.3007 54.3111 48.7711 54.1037 49.1071 53.6889C49.4544 53.2625 49.6279 52.7499 49.6279 52.1506C50.0088 52.1506 50.339 52.2486 50.6191 52.4444C50.8992 52.6402 51.0391 52.9111 51.0391 53.2568C51.0391 53.9711 50.6695 54.5704 49.9303 55.0543C49.1911 55.5267 48.4128 55.763 47.5951 55.763C46.3183 55.763 45.3943 55.4116 44.8231 54.7086C44.2519 53.9943 43.9663 52.94 43.9663 51.5457C43.9663 50.1513 44.3472 48.982 45.1087 48.037C45.8815 47.0807 46.9063 46.6025 48.1831 46.6025C49.0567 46.6025 49.7568 46.8099 50.2831 47.2247C50.8207 47.6279 51.0895 48.2617 51.0895 49.1259C51.0895 49.9785 50.7086 50.6239 49.9471 51.0617C49.1966 51.4881 48.2784 51.7012 47.1919 51.7012C46.811 51.7012 46.4191 51.6783 46.0159 51.6321ZM46.0327 50.2667C46.3687 50.3358 46.7215 50.3704 47.0911 50.3704C47.8975 50.3704 48.575 50.2148 49.1239 49.9037C49.1911 49.6272 49.2247 49.4081 49.2247 49.2469C49.2247 48.8437 49.0848 48.5383 48.8047 48.3309C48.5246 48.1235 48.1382 48.0197 47.6455 48.0197C47.1638 48.0197 46.727 48.181 46.3351 48.5037C46.1335 49.103 46.0327 49.6906 46.0327 50.2667ZM52.5062 51.6321C52.5062 52.4617 52.6351 53.1185 52.8926 53.6025C53.1502 54.0748 53.5814 54.3111 54.1862 54.3111C54.791 54.3111 55.2614 54.1037 55.5974 53.6889C55.9447 53.2625 56.1182 52.7499 56.1182 52.1506C56.4991 52.1506 56.8294 52.2486 57.1094 52.4444C57.3895 52.6402 57.5294 52.9111 57.5294 53.2568C57.5294 53.9711 57.1598 54.5704 56.4206 55.0543C55.6814 55.5267 54.9031 55.763 54.0854 55.763C52.8086 55.763 51.8846 55.4116 51.3134 54.7086C50.7422 53.9943 50.4566 52.94 50.4566 51.5457C50.4566 50.1513 50.8375 48.982 51.599 48.037C52.3718 47.0807 53.3966 46.6025 54.6734 46.6025C55.547 46.6025 56.2471 46.8099 56.7734 47.2247C57.311 47.6279 57.5798 48.2617 57.5798 49.1259C57.5798 49.9785 57.199 50.6239 56.4374 51.0617C55.687 51.4881 54.7687 51.7012 53.6822 51.7012C53.3014 51.7012 52.9094 51.6783 52.5062 51.6321ZM52.523 50.2667C52.859 50.3358 53.2118 50.3704 53.5814 50.3704C54.3878 50.3704 55.0654 50.2148 55.6142 49.9037C55.6814 49.6272 55.715 49.4081 55.715 49.2469C55.715 48.8437 55.5751 48.5383 55.295 48.3309C55.015 48.1235 54.6286 48.0197 54.1358 48.0197C53.6542 48.0197 53.2174 48.181 52.8254 48.5037C52.6238 49.103 52.523 49.6906 52.523 50.2667Z" fill="black"/>
</svg>
