<svg width="80" height="80" viewBox="0 0 80 80" fill="none" xmlns="http://www.w3.org/2000/svg">
<path d="M55.6227 1.66622L59.1434 2.64336C59.5942 2.77104 59.9091 3.27281 59.8336 3.74265L59.2934 7.06087C59.9213 7.61247 60.3978 8.39381 60.6138 9.13731C61.175 7.38683 62.2083 5.99812 63.3344 4.85211C64.7562 3.4053 66.3376 2.71584 67.7856 2.61282C69.1814 2.51351 70.4502 2.96117 71.3165 3.78334C72.2822 3.37544 73.4256 3.04585 74.3472 3.05048C75.1994 3.06323 76.0969 3.3461 76.7776 4.01748C77.2675 4.7146 77.4973 5.69201 77.4278 6.42979C77.3478 7.18749 77.0809 7.90383 76.7177 8.59786C75.9913 9.98584 74.888 11.305 73.8969 12.4453C72.2323 14.361 69.9379 15.0797 67.4755 15.1834C68.1622 15.442 68.7664 15.862 69.256 16.4251C70.305 17.6318 70.8774 19.3877 71.0464 21.4331C71.1085 23.1564 71.1923 24.9387 70.8762 26.4104C70.5632 27.8043 69.9258 29.0617 68.7859 29.7287C68.5014 30.5369 68.0765 31.0567 67.2154 31.2757C67.4122 30.8754 67.4806 30.4751 67.4355 30.0747C66.1552 30.1399 64.9962 29.7136 64.0346 29.0975C62.9664 28.3481 62 27.3904 61.2541 26.4409C59.7805 24.3417 59.7994 22.1939 60.0336 20.2014C59.1363 20.2047 58.2925 20.0208 57.6032 19.5093C57.5965 19.5027 57.5898 19.4958 57.583 19.4889C56.5126 18.6417 56.1683 17.2446 56.4128 15.9874C56.4982 15.548 56.6461 15.117 56.8429 14.6948C56.2666 14.8342 55.6781 14.9015 55.1024 14.9187C53.6112 14.9632 52.1738 14.6862 51.1917 13.7482C50.72 13.1501 50.5418 12.3036 50.5613 11.6514C50.5875 10.9568 50.7562 10.2385 51.0416 9.53422C51.6125 8.12563 52.6314 6.7326 54.1424 6.1142C54.3827 6.03651 54.64 5.9647 54.8525 5.91061L52.232 5.17781C51.7818 5.06031 51.4576 4.57172 51.5184 4.10307C51.5795 3.63446 52.0173 3.24845 52.4819 3.25406C53.7322 3.51628 55.0112 3.92454 56.2627 4.2719C56.6678 4.38311 56.9744 4.79163 56.9731 5.21853V5.90047C57.1555 5.93899 57.3366 5.98521 57.513 6.04299L57.8032 4.29228L55.1126 3.54923C54.6627 3.43176 54.3414 2.93892 54.4022 2.4703C54.5504 1.82495 55.0477 1.56864 55.6227 1.6662V1.66622ZM68.2656 4.54676C67.2486 4.50841 65.976 4.92243 64.6947 6.22623C63.2387 7.99868 62.3702 9.76536 62.201 11.0858C64.6531 8.19394 66.1402 6.89797 67.7654 5.82926C68.208 5.5384 68.768 5.17155 69.3859 4.80121C68.9958 4.66064 68.6051 4.56204 68.2656 4.54676ZM74.327 5.0048C72.2995 5.15496 70.4886 6.36316 68.8058 7.46801C67.5232 8.31134 66.2918 9.24727 64.3846 11.6819C64.9418 12.047 65.4195 12.6598 65.6451 13.1985C68.5152 13.4043 70.888 12.9575 72.4566 11.1527C73.4227 10.0411 74.439 8.78696 75.0173 7.68177C75.3065 7.12915 75.4851 6.61448 75.5273 6.21603C75.5645 5.86587 75.5056 5.6158 75.3673 5.37122C75.087 5.12375 74.7834 5.01162 74.327 5.0048ZM54.8525 7.93623C54.0467 8.26607 53.2438 9.24638 52.8221 10.2875C52.577 10.9927 52.368 11.6491 52.592 12.3639C52.9782 12.6767 53.9395 12.9974 55.0426 12.9645C56.1872 12.9303 57.4032 12.5578 58.1731 11.9568C59.1008 11.0302 59.0726 9.78113 58.3834 8.90317C57.6733 7.89152 56.0573 7.4979 54.8525 7.93623ZM57.153 8.45534C57.832 9.03114 57.7178 10.0648 56.903 10.7557C56.0883 11.4466 54.8813 11.5351 54.2022 10.9593C53.5232 10.3835 53.6275 9.36003 54.4422 8.6691C55.2867 8.11726 56.3683 7.80842 57.153 8.45534ZM65.7251 16.2013C65.5478 16.8298 65.263 17.4528 64.865 18.0436C64.0378 19.271 62.6608 19.8604 61.3341 20.0895C61.3075 20.2934 61.2854 20.4898 61.264 20.69C62.3133 20.424 63.3792 19.8972 64.2448 19.1632C65.1821 18.3682 65.8829 17.3586 66.1552 16.1911C66.0131 16.167 65.8534 16.1914 65.7251 16.2013ZM67.3856 16.5473C67.0314 18.0057 66.1606 19.2418 65.065 20.1709C63.9347 21.1295 62.559 21.773 61.184 22.0438C61.1843 22.2613 61.1958 22.4801 61.2141 22.6952C62.6278 22.4274 64.1114 21.79 65.305 20.863C66.6429 19.8239 67.6048 18.4542 67.8256 16.8425C67.6826 16.7239 67.519 16.6314 67.3856 16.5473ZM68.8458 18.0945C68.3597 19.6308 67.3299 20.9166 66.0752 21.8911C64.7091 22.9519 63.0653 23.6627 61.4541 23.9675C61.5299 24.218 61.6176 24.4702 61.7341 24.7208C63.2758 24.5112 64.9597 23.839 66.3651 22.8377C67.7187 21.8737 68.8077 20.617 69.3261 19.2141C69.1914 18.8041 69.0275 18.4271 68.8458 18.0945ZM69.7459 21.2397C69.0973 22.2784 68.1901 23.1267 67.0954 23.9065C65.6944 24.9044 64.073 25.5916 62.4842 25.9015C62.6797 26.1401 62.8941 26.3809 63.1245 26.6241C66.2502 25.9716 68.4029 24.7866 69.8259 22.2168C69.8032 21.8646 69.7792 21.5764 69.7459 21.2397ZM69.8461 24.4357C68.4275 26.0961 66.5459 27.0971 64.2848 27.6929C64.6243 27.9517 65.0064 28.1647 65.3549 28.3443C66.9082 28.318 68.5568 27.2557 69.7261 25.5859C69.7846 25.2193 69.8224 24.8343 69.8461 24.4357Z" fill="black"/>
<path d="M24.3773 1.66622L20.8565 2.64336C20.4058 2.77104 20.0907 3.27281 20.1663 3.74265L20.7065 7.06087C20.0787 7.61247 19.6024 8.39381 19.3861 9.13731C18.825 7.38683 17.7917 5.99812 16.6655 4.85211C15.2437 3.4053 13.6623 2.71584 12.2144 2.61282C10.8187 2.51351 9.5497 2.96117 8.68358 3.78334C7.71779 3.37544 6.57443 3.04585 5.65286 3.05048C4.8007 3.06323 3.90298 3.3461 3.22227 4.01748C2.73262 4.7146 2.50278 5.69201 2.57212 6.42979C2.65228 7.18749 2.91911 7.90383 3.28227 8.59786C4.00864 9.98584 5.1119 11.305 6.10298 12.4453C7.76774 14.361 10.062 15.0797 12.5245 15.1834C11.8377 15.442 11.2336 15.862 10.7441 16.4251C9.69517 17.6318 9.12262 19.3877 8.95363 21.4331C8.89165 23.1564 8.80762 24.9387 9.12368 26.4104C9.43677 27.8043 10.0743 29.0617 11.2142 29.7287C11.4987 30.5369 11.9236 31.0567 12.7846 31.2757C12.5878 30.8754 12.5194 30.4751 12.5645 30.0747C13.8447 30.1399 15.0037 29.7136 15.9653 29.0975C17.0336 28.3481 17.9999 27.3904 18.746 26.4409C20.2195 24.3417 20.2005 22.1939 19.9663 20.2014C20.8638 20.2047 21.7074 20.0208 22.3969 19.5093C22.4036 19.5027 22.4103 19.4958 22.4169 19.4889C23.4875 18.6417 23.8315 17.2446 23.5871 15.9874C23.5017 15.548 23.3538 15.117 23.1571 14.6948C23.7336 14.8342 24.3219 14.9015 24.8975 14.9187C26.3888 14.9632 27.8263 14.6862 28.8084 13.7482C29.2798 13.1501 29.4581 12.3036 29.4386 11.6514C29.4123 10.9568 29.2439 10.2385 28.9584 9.53422C28.3875 8.12563 27.3685 6.7326 25.8577 6.1142C25.6171 6.03651 25.3599 5.9647 25.1475 5.91061L27.7682 5.17781C28.2181 5.06031 28.5424 4.57172 28.4815 4.10307C28.4206 3.63446 27.9826 3.24845 27.5181 3.25406C26.2677 3.51628 24.9888 3.92454 23.7372 4.2719C23.3322 4.38311 23.0257 4.79163 23.027 5.21853V5.90047C22.8444 5.93899 22.6635 5.98521 22.4869 6.04299L22.1968 4.29228L24.8875 3.54923C25.3374 3.43176 25.6586 2.93892 25.5976 2.4703C25.4497 1.82495 24.9522 1.56864 24.3773 1.6662V1.66622ZM11.7343 4.54676C12.7514 4.50841 14.024 4.92243 15.3052 6.22623C16.7612 7.99868 17.6296 9.76536 17.7989 11.0858C15.3469 8.19394 13.8598 6.89797 12.2344 5.82926C11.7921 5.5384 11.2321 5.17155 10.614 4.80121C11.0041 4.66064 11.3949 4.56204 11.7343 4.54676ZM5.67286 5.0048C7.70045 5.15496 9.51146 6.36316 11.1942 7.46801C12.4768 8.31134 13.7081 9.24727 15.6152 11.6819C15.0582 12.047 14.5803 12.6598 14.3549 13.1985C11.4849 13.4043 9.11184 12.9575 7.5433 11.1527C6.57728 10.0411 5.56106 8.78696 4.98269 7.68177C4.6935 7.12915 4.51472 6.61448 4.47258 6.21603C4.43552 5.86587 4.49453 5.6158 4.63261 5.37122C4.91299 5.12375 5.21661 5.01162 5.67286 5.0048ZM25.1475 7.93623C25.9533 8.26607 26.7561 9.24638 27.178 10.2875C27.423 10.9927 27.632 11.6491 27.4081 12.3639C27.0217 12.6767 26.0604 12.9974 24.9575 12.9645C23.8126 12.9303 22.5967 12.5578 21.8267 11.9568C20.8992 11.0302 20.9273 9.78113 21.6167 8.90317C22.3266 7.89152 23.9426 7.4979 25.1475 7.93623ZM22.847 8.45534C22.168 9.03114 22.2822 10.0648 23.097 10.7557C23.9118 11.4466 25.1187 11.5351 25.7977 10.9593C26.4767 10.3835 26.3724 9.36003 25.5576 8.6691C24.7132 8.11726 23.6317 7.80842 22.847 8.45534ZM14.2749 16.2013C14.4521 16.8298 14.737 17.4528 15.1351 18.0436C15.9624 19.271 17.3393 19.8604 18.666 20.0895C18.6926 20.2934 18.7145 20.4898 18.736 20.69C17.6868 20.424 16.6208 19.8972 15.7553 19.1632C14.8178 18.3682 14.1172 17.3586 13.8448 16.1911C13.9869 16.167 14.1466 16.1914 14.2749 16.2013ZM12.6145 16.5473C12.9686 18.0057 13.8395 19.2418 14.9351 20.1709C16.0654 21.1295 17.4411 21.773 18.816 22.0438C18.8157 22.2613 18.8041 22.4801 18.786 22.6952C17.3722 22.4274 15.8886 21.79 14.695 20.863C13.357 19.8239 12.3953 18.4542 12.1744 16.8425C12.3173 16.7239 12.481 16.6314 12.6145 16.5473ZM11.1542 18.0945C11.6403 19.6308 12.6699 20.9166 13.9248 21.8911C15.2908 22.9519 16.9346 23.6627 18.5459 23.9675C18.4701 24.218 18.3823 24.4702 18.2659 24.7208C16.7241 24.5112 15.0403 23.839 13.6348 22.8377C12.2814 21.8737 11.1924 20.617 10.674 19.2141C10.8085 18.8041 10.9724 18.4271 11.1542 18.0945ZM10.254 21.2397C10.9026 22.2784 11.81 23.1267 12.9046 23.9065C14.3055 24.9044 15.9271 25.5916 17.5157 25.9015C17.3203 26.1401 17.1059 26.3809 16.8755 26.6241C13.7496 25.9716 11.597 24.7866 10.174 22.2168C10.197 21.8646 10.2209 21.5764 10.254 21.2397ZM10.1539 24.4357C11.5724 26.0961 13.4542 27.0971 15.7153 27.6929C15.3756 27.9517 14.9937 28.1647 14.645 28.3443C13.0918 28.318 11.4432 27.2557 10.274 25.5859C10.2153 25.2193 10.1776 24.8343 10.1539 24.4357Z" fill="black"/>
<path d="M39.9715 9.30334C52.496 9.30334 62.6966 19.7396 62.6966 32.6246C62.6966 45.5679 52.496 56.0041 39.9715 56.0041C27.4475 56.0041 17.3034 45.5096 17.3034 32.6246C17.3034 19.7396 27.4475 9.30334 39.9715 9.30334ZM40.935 54.0218C40.0285 54.6632 38.9517 55.0131 37.8749 55.1879C42.2384 55.5962 46.6589 54.6632 50.5123 52.5058C50.3424 52.5058 50.2291 52.4475 50.0589 52.4475C47.1123 53.3805 43.9952 53.847 40.935 54.0218ZM27.2208 51.0483C27.1074 49.824 27.7308 48.4248 28.2975 47.3753C26.144 42.6526 24.8973 39.9125 24.6139 39.3295C22.6871 38.3965 21.0437 37.1721 19.7969 35.3647C19.2302 36.0643 18.8335 36.939 18.6069 37.8717C19.7969 43.1774 22.8572 47.8418 27.2208 51.0483ZM25.294 39.0961C25.634 39.796 26.8241 42.5361 28.9209 47.0839C31.6978 47.7835 34.4746 48.3665 37.2515 48.7162C38.9517 46.7922 40.4816 44.6934 41.8419 42.4195C40.5382 39.9125 39.4048 37.2887 38.385 34.6651C35.4381 34.1986 32.4912 33.6742 29.5443 33.0325C28.1842 35.0734 26.7108 37.0556 25.294 39.0961ZM42.4653 42.8278C41.105 45.0431 39.575 47.2004 37.8182 49.1244L40.9917 53.3223C43.9952 53.1471 46.9987 52.6809 49.8323 51.7479C51.5891 49.9405 53.176 47.9583 54.3661 45.6844C52.9491 44.5183 51.8157 42.7109 50.9658 41.1369C48.3024 42.2447 45.2986 42.6526 42.4653 42.8278ZM51.4758 40.6121C52.2691 42.1278 53.4592 44.0521 54.8195 45.1596C56.633 44.2269 58.2195 43.0026 59.5798 41.4865C60.8832 37.9303 61.3933 34.7234 61.1098 31.8083C60.3165 30.4091 59.2963 29.0681 58.0496 28.0186C56.3494 29.4179 54.536 30.7589 52.7226 32.0416C52.5526 34.8399 52.2125 37.9303 51.4758 40.6121ZM29.6576 32.333C32.6045 32.9743 35.5514 33.499 38.4416 33.9655C40.0851 31.5168 42.0685 29.4179 44.3354 27.6105C43.5987 24.9286 42.9184 22.13 42.2384 19.3315C39.4618 18.865 36.6848 18.3986 33.9645 17.9322C31.6411 20.0894 29.4309 22.4215 27.4475 24.9286C28.2409 27.3773 28.9776 29.826 29.6576 32.333ZM18.3235 36.4725C18.6069 35.8312 19.0036 35.1899 19.5136 34.6651C19.1736 31.2253 19.5136 29.1264 20.5336 25.8614C20.307 24.812 20.2503 23.7625 20.2503 22.7131C18.2101 26.9692 17.5301 31.8083 18.3235 36.4725ZM20.987 21.2555C20.8737 22.5965 20.8737 23.9957 21.157 25.3367C22.9705 24.4621 24.954 23.9957 26.9374 24.4621C28.9209 21.9551 31.131 19.623 33.3978 17.4658C32.9446 16.0665 33.0013 14.3174 33.0579 12.8598C31.4144 12.8598 29.7143 13.2097 28.1275 13.6177C25.1806 15.5418 22.7438 18.1654 20.987 21.2555ZM42.9184 19.1565C43.5987 21.9551 44.2787 24.7537 45.0154 27.4939C47.5654 28.2519 50.569 29.4179 52.439 31.4002C54.2528 30.1175 56.0096 28.8349 57.7094 27.4356C57.3696 24.5787 56.576 21.8385 55.1594 19.3898C52.8358 17.699 50.399 16.4163 47.7357 15.5418C46.0922 16.6495 44.4486 17.8739 42.9184 19.1565ZM61.7898 31.6917C62.0166 33.499 61.903 35.423 61.5066 37.4638C62.0166 35.1899 62.1866 31.4002 61.7898 29.1847C61.7898 29.7094 61.8464 31.2253 61.7898 31.6917ZM47.9056 14.8421C50.5123 15.7167 53.0058 16.9993 55.3293 18.6318C55.6695 18.1654 56.1795 17.9905 56.7462 17.9905C53.6861 14.3174 49.6058 11.6938 45.0154 10.6443C44.392 10.6443 43.8819 10.7026 43.4285 10.8192C45.2419 11.7521 46.7155 13.1513 47.9056 14.8421ZM33.2278 12.1602C35.9482 10.8775 39.3482 9.82805 42.5219 10.4111C42.6352 10.3528 42.7485 10.2945 42.9184 10.2362C38.5549 9.59483 34.0211 10.4111 30.0543 12.4517C31.131 12.2768 32.151 12.1602 33.2278 12.1602Z" fill="black"/>
<path d="M6.3328 66.6995C6.3328 69.6648 6.4896 72.0305 6.8032 73.7974C6.32534 73.9818 5.8176 74.074 5.28 74.074C4.7424 74.074 4.272 73.8972 3.8688 73.5439C3.48054 73.1907 3.2864 72.7067 3.2864 72.0921C3.2864 71.4623 3.36106 70.2791 3.5104 68.5431C3.65974 66.8071 3.7344 65.4626 3.7344 64.5102C3.7344 62.1596 3.5776 59.8936 3.264 57.7118C4.36906 57.804 5.85494 57.8501 7.7216 57.8501C9.58826 57.8501 11.3728 57.7118 13.0752 57.4353C13.2544 57.7734 13.344 58.1803 13.344 58.6567C13.344 59.1176 13.1648 59.5324 12.8064 59.9011C12.4629 60.2544 12.0299 60.4312 11.5072 60.4312C10.9995 60.4312 10.1781 60.3545 9.0432 60.2007C7.9232 60.047 7.0944 59.9703 6.5568 59.9703C6.43734 61.645 6.36266 63.1811 6.3328 64.5793C7.19894 64.6715 8.15466 64.7176 9.2 64.7176C10.2603 64.7176 11.1787 64.5563 11.9552 64.2337C12.1344 64.5718 12.224 64.9787 12.224 65.4551C12.224 65.916 12.0448 66.3383 11.6864 66.7225C11.3429 67.0913 10.9323 67.2756 10.4544 67.2756C9.97654 67.2756 9.2896 67.1834 8.3936 66.9991C7.4976 66.7992 6.81066 66.6995 6.3328 66.6995ZM16.1216 74.3505C14.4789 74.3505 13.2693 73.859 12.4928 72.8756C11.7163 71.8771 11.328 70.4944 11.328 68.7275C11.328 66.9454 11.8432 65.4014 12.8736 64.0954C13.904 62.7894 15.2256 62.1365 16.8384 62.1365C20.1536 62.1365 21.8112 64.0569 21.8112 67.8979C21.8112 69.6954 21.2736 71.2239 20.1984 72.4839C19.1232 73.7283 17.7643 74.3505 16.1216 74.3505ZM14.5088 64.6715C14.24 65.5627 14.1056 66.4536 14.1056 67.3448C14.1056 68.236 14.1355 68.9273 14.1952 69.4188C14.2549 69.9104 14.3669 70.4022 14.5312 70.8937C14.8747 71.8922 15.5467 72.3917 16.5472 72.3917C17.5627 72.3917 18.2272 72.1151 18.5408 71.562C18.8693 71.009 19.0336 70.1563 19.0336 69.004C19.0336 65.7316 18.2795 64.0954 16.7712 64.0954C15.9051 64.0954 15.1509 64.2873 14.5088 64.6715ZM25.4097 74.3505C23.7671 74.3505 22.5575 73.859 21.7809 72.8756C21.0044 71.8771 20.6161 70.4944 20.6161 68.7275C20.6161 66.9454 21.1313 65.4014 22.1617 64.0954C23.1921 62.7894 24.5137 62.1365 26.1265 62.1365C29.4417 62.1365 31.0993 64.0569 31.0993 67.8979C31.0993 69.6954 30.5617 71.2239 29.4865 72.4839C28.4113 73.7283 27.0524 74.3505 25.4097 74.3505ZM23.7969 64.6715C23.5281 65.5627 23.3937 66.4536 23.3937 67.3448C23.3937 68.236 23.4236 68.9273 23.4833 69.4188C23.5431 69.9104 23.6551 70.4022 23.8193 70.8937C24.1628 71.8922 24.8348 72.3917 25.8353 72.3917C26.8508 72.3917 27.5153 72.1151 27.8289 71.562C28.1575 71.009 28.3217 70.1563 28.3217 69.004C28.3217 65.7316 27.5676 64.0954 26.0593 64.0954C25.1932 64.0954 24.4391 64.2873 23.7969 64.6715ZM31.4947 59.0254C31.9725 58.7795 32.4579 58.6567 32.9507 58.6567C33.4435 58.6567 33.839 58.818 34.1379 59.1406C34.4515 59.4633 34.6083 59.9397 34.6083 60.5695C34.6083 61.1992 34.5709 61.9137 34.4963 62.7127C35.6163 62.7127 36.6838 62.5513 37.6995 62.2287C37.8787 62.5359 37.9683 62.897 37.9683 63.3118C37.9683 63.7112 37.7891 64.0417 37.4307 64.3028C37.087 64.5487 36.7363 64.6715 36.3779 64.6715C36.0195 64.6715 35.6163 64.6254 35.1683 64.5332C34.7203 64.4411 34.4291 64.3874 34.2947 64.3719C34.2797 64.5102 34.2349 64.7867 34.1603 65.2016C34.1005 65.6164 34.0483 65.9775 34.0035 66.2847C33.8838 67.1298 33.8243 68.0361 33.8243 69.004C33.8243 71.1087 34.4886 72.1612 35.8179 72.1612C36.3107 72.1612 36.8781 71.9844 37.5203 71.6312C37.7142 71.9232 37.8115 72.2995 37.8115 72.7604C37.8115 73.2213 37.5651 73.5825 37.0723 73.8435C36.5942 74.0895 36.0195 74.2122 35.3475 74.2122C32.719 74.2122 31.4051 72.6758 31.4051 69.6032C31.4051 69.1578 31.4648 68.3512 31.5843 67.1834C31.7187 66.0157 31.7859 65.0709 31.7859 64.3489C31.0691 64.395 30.4941 64.5257 30.0611 64.7406C29.8819 64.4641 29.7923 64.149 29.7923 63.7958C29.7923 63.4271 29.9192 63.1275 30.1731 62.897C30.4269 62.6511 30.7405 62.5283 31.1139 62.5283C31.4872 62.5283 31.7336 62.5359 31.8531 62.5513C31.868 62.4285 31.8755 62.2672 31.8755 62.0674C31.8755 60.9151 31.7485 59.9011 31.4947 59.0254ZM37.465 70.2485L37.689 66.9299C37.689 65.4396 37.48 64.0262 37.0618 62.6896C37.48 62.5053 37.9952 62.4131 38.6074 62.4131C39.8019 62.4131 40.3994 63.0969 40.3994 64.4641C40.3994 65.0788 40.3171 65.9466 40.153 67.0682C39.9888 68.1899 39.9066 68.9655 39.9066 69.3958C39.9066 69.8106 39.9139 70.1178 39.929 70.3176C39.944 70.502 39.9811 70.7248 40.041 70.9859C40.1306 71.5084 40.4218 71.7695 40.9146 71.7695C41.4224 71.7695 41.96 71.3622 42.5274 70.5481C43.1098 69.7184 43.5728 68.8042 43.9162 67.8057C44.2746 66.8072 44.4538 66.0157 44.4538 65.432C44.3792 64.2182 44.2522 63.3043 44.073 62.6896C44.5507 62.5053 45.0362 62.4131 45.529 62.4131C46.0368 62.4131 46.4547 62.5744 46.7834 62.897C47.1267 63.2197 47.2986 63.6499 47.2986 64.1876C47.2986 72.576 45.8051 77.6075 42.8186 79.2822C42.1466 79.6509 41.385 79.8353 40.5338 79.8353C39.6826 79.8353 38.936 79.6048 38.2938 79.1439C37.6666 78.683 37.353 78.0378 37.353 77.2081C37.353 76.655 37.5546 76.1866 37.9578 75.8024C38.361 75.4336 38.8387 75.2493 39.3914 75.2493C39.5107 75.2493 39.6602 75.2648 39.8394 75.2954C39.7946 75.4952 39.7722 75.6717 39.7722 75.8254C39.7722 77.1775 40.2275 77.8534 41.1386 77.8534C41.6912 77.8534 42.1914 77.5462 42.6394 76.9316C43.0874 76.3169 43.4458 75.5644 43.7146 74.6732C44.2371 72.8602 44.4986 71.2164 44.4986 69.7415C44.0506 70.9859 43.4384 71.9923 42.6618 72.7604C41.9002 73.5133 41.0714 73.8896 40.1754 73.8896C38.3683 73.8896 37.465 72.6758 37.465 70.2485ZM47.6515 58.4493C49.8019 57.8656 51.6762 57.5736 53.2739 57.5736C56.6938 57.5736 58.4035 58.795 58.4035 61.2378C58.4035 62.7281 57.7242 63.8649 56.3651 64.6485C57.2762 64.8789 58.0301 65.3243 58.6275 65.9851C59.225 66.6304 59.5235 67.4445 59.5235 68.4279C59.5235 70.2715 58.8589 71.7003 57.5299 72.7143C56.201 73.7128 54.5581 74.2122 52.6019 74.2122C50.6458 74.2122 48.9507 73.8129 47.5171 73.0139C47.9802 71.3546 48.2115 69.1192 48.2115 66.3077C48.2115 63.4807 48.025 60.8615 47.6515 58.4493ZM51.0339 71.7234C51.6909 71.9383 52.3482 72.046 53.0051 72.046C54.0355 72.046 54.8867 71.7849 55.5587 71.2625C56.2307 70.7248 56.5667 69.9719 56.5667 69.004C56.5667 67.1604 55.5962 66.2386 53.6547 66.2386C52.729 66.2386 51.7882 66.4384 50.8323 66.8378C50.8323 68.3894 50.8995 70.018 51.0339 71.7234ZM50.8099 64.8098C51.0189 64.7637 51.3251 64.71 51.7283 64.6485C52.1466 64.5869 52.4675 64.5332 52.6915 64.4872C52.9155 64.4411 53.1917 64.3719 53.5203 64.2797C53.8637 64.1876 54.1251 64.0799 54.3043 63.9571C54.4986 63.8188 54.6925 63.6499 54.8867 63.4501C55.2602 63.0659 55.4467 62.5053 55.4467 61.7678C55.4467 60.339 54.6179 59.6246 52.9603 59.6246C52.4227 59.6246 51.7658 59.7168 50.9891 59.9011C50.8698 63.0508 50.8099 64.687 50.8099 64.8098ZM61.3546 68.8427C61.3546 69.9489 61.5264 70.8246 61.8698 71.4699C62.2131 72.0997 62.7882 72.4147 63.5946 72.4147C64.401 72.4147 65.0282 72.1382 65.4762 71.5851C65.9392 71.0165 66.1706 70.3331 66.1706 69.5341C66.6784 69.5341 67.1187 69.6648 67.4922 69.9258C67.8656 70.1869 68.0522 70.5481 68.0522 71.009C68.0522 71.9614 67.5594 72.7604 66.5738 73.4057C65.5882 74.0355 64.5504 74.3505 63.4602 74.3505C61.7578 74.3505 60.5258 73.882 59.7642 72.9448C59.0026 71.9923 58.6218 70.5866 58.6218 68.7275C58.6218 66.8684 59.1296 65.3092 60.145 64.0493C61.1754 62.7742 62.5418 62.1365 64.2442 62.1365C65.409 62.1365 66.3424 62.4131 67.0442 62.9662C67.761 63.5038 68.1194 64.3489 68.1194 65.5011C68.1194 66.6379 67.6115 67.4985 66.5962 68.0822C65.5955 68.6508 64.3712 68.9349 62.9226 68.9349C62.4147 68.9349 61.8922 68.9043 61.3546 68.8427ZM61.377 67.0221C61.825 67.1143 62.2954 67.1604 62.7882 67.1604C63.8634 67.1604 64.7667 66.953 65.4986 66.5382C65.5882 66.1695 65.633 65.8774 65.633 65.6625C65.633 65.1248 65.4464 64.7176 65.073 64.4411C64.6995 64.1645 64.1843 64.0262 63.5274 64.0262C62.8851 64.0262 62.3027 64.2412 61.7802 64.6715C61.5114 65.4705 61.377 66.2541 61.377 67.0221ZM70.0083 68.8427C70.0083 69.9489 70.1802 70.8246 70.5235 71.4699C70.8669 72.0997 71.4419 72.4147 72.2483 72.4147C73.0547 72.4147 73.6819 72.1382 74.1299 71.5851C74.593 71.0165 74.8243 70.3331 74.8243 69.5341C75.3322 69.5341 75.7725 69.6648 76.1459 69.9258C76.5194 70.1869 76.7059 70.5481 76.7059 71.009C76.7059 71.9614 76.2131 72.7604 75.2275 73.4057C74.2419 74.0355 73.2042 74.3505 72.1139 74.3505C70.4115 74.3505 69.1795 73.882 68.4179 72.9448C67.6563 71.9923 67.2755 70.5866 67.2755 68.7275C67.2755 66.8684 67.7834 65.3092 68.7987 64.0493C69.8291 62.7742 71.1955 62.1365 72.8979 62.1365C74.0627 62.1365 74.9962 62.4131 75.6979 62.9662C76.4147 63.5038 76.7731 64.3489 76.7731 65.5011C76.7731 66.6379 76.2653 67.4985 75.2499 68.0822C74.2493 68.6508 73.025 68.9349 71.5763 68.9349C71.0685 68.9349 70.5459 68.9043 70.0083 68.8427ZM70.0307 67.0221C70.4787 67.1143 70.9491 67.1604 71.4419 67.1604C72.5171 67.1604 73.4205 66.953 74.1523 66.5382C74.2419 66.1695 74.2867 65.8774 74.2867 65.6625C74.2867 65.1248 74.1002 64.7176 73.7267 64.4411C73.3533 64.1645 72.8381 64.0262 72.1811 64.0262C71.5389 64.0262 70.9565 64.2412 70.4339 64.6715C70.1651 65.4705 70.0307 66.2541 70.0307 67.0221Z" fill="black"/>
</svg>
