<svg width="200" height="200" viewBox="0 0 200 200" fill="none" xmlns="http://www.w3.org/2000/svg">
<path d="M139.057 4.16548L147.858 6.60835C148.986 6.92755 149.773 8.18195 149.584 9.35655L148.234 17.6521C149.803 19.0311 150.994 20.9845 151.534 22.8432C152.938 18.467 155.521 14.9952 158.336 12.1302C161.89 8.51318 165.844 6.78954 169.464 6.53199C172.954 6.28371 176.126 7.40287 178.291 9.45828C180.706 8.43853 183.564 7.61457 185.868 7.62615C187.998 7.658 190.242 8.3652 191.944 10.0436C193.169 11.7864 193.743 14.23 193.57 16.0744C193.37 17.9687 192.702 19.7595 191.794 21.4946C189.978 24.9645 187.22 28.2623 184.742 31.1133C180.581 35.9023 174.845 37.6993 168.689 37.9584C170.406 38.6049 171.916 39.655 173.14 41.0628C175.762 44.0794 177.194 48.4692 177.616 53.5826C177.771 57.891 177.981 62.3466 177.19 66.026C176.408 69.5107 174.814 72.6543 171.965 74.3216C171.254 76.3422 170.191 77.6417 168.038 78.1893C168.53 77.1883 168.702 76.1877 168.589 75.1867C165.388 75.3497 162.49 74.284 160.086 72.7438C157.416 70.8703 155 68.476 153.135 66.1022C149.451 60.8541 149.498 55.4847 150.084 50.5036C147.841 50.5118 145.731 50.0519 144.008 48.7732C143.991 48.7567 143.974 48.7394 143.958 48.7222C141.282 46.6041 140.421 43.1114 141.032 39.9685C141.246 38.87 141.615 37.7925 142.107 36.7369C140.666 37.0854 139.195 37.2537 137.756 37.2966C134.028 37.4079 130.434 36.7155 127.979 34.3704C126.8 32.8752 126.354 30.759 126.403 29.1283C126.469 27.3919 126.89 25.5962 127.604 23.8355C129.031 20.314 131.578 16.8315 135.356 15.2854C135.957 15.0912 136.6 14.9117 137.131 14.7765L130.58 12.9445C129.454 12.6507 128.644 11.4292 128.796 10.2576C128.949 9.0861 130.043 8.12106 131.205 8.13508C134.33 8.79063 137.528 9.81129 140.657 10.6797C141.67 10.9577 142.436 11.979 142.433 13.0463V14.7511C142.889 14.8474 143.342 14.963 143.782 15.1074L144.508 10.7306L137.782 8.87301C136.657 8.57935 135.854 7.34724 136.006 6.17568C136.376 4.56231 137.619 3.92155 139.057 4.16543V4.16548ZM170.664 11.3668C168.122 11.271 164.94 12.306 161.737 15.5655C158.097 19.9966 155.926 24.4133 155.502 27.7144C161.633 20.4848 165.35 17.2449 169.414 14.5731C170.52 13.8459 171.92 12.9288 173.465 12.003C172.49 11.6515 171.513 11.405 170.664 11.3668ZM185.818 12.5119C180.749 12.8873 176.222 15.9078 172.014 18.67C168.808 20.7783 165.73 23.1181 160.962 29.2048C162.354 30.1174 163.549 31.6496 164.113 32.9963C171.288 33.5108 177.22 32.3937 181.142 27.8816C183.557 25.1027 186.098 21.9673 187.543 19.2044C188.266 17.8228 188.713 16.5361 188.818 15.54C188.911 14.6646 188.764 14.0394 188.418 13.428C187.718 12.8093 186.958 12.529 185.818 12.5119ZM137.131 19.8405C135.117 20.6651 133.11 23.1159 132.055 25.7186C131.442 27.4817 130.92 29.1228 131.48 30.9097C132.446 31.6916 134.849 32.4934 137.606 32.4111C140.468 32.3257 143.508 31.3944 145.433 29.8919C147.752 27.5753 147.682 24.4528 145.958 22.2579C144.183 19.7287 140.143 18.7447 137.131 19.8405ZM142.882 21.1383C144.58 22.5778 144.294 25.1618 142.258 26.8892C140.221 28.6166 137.203 28.8376 135.506 27.3981C133.808 25.9586 134.069 23.4 136.106 21.6727C138.217 20.2931 140.921 19.521 142.882 21.1383ZM164.313 40.5031C163.87 42.0743 163.158 43.6319 162.162 45.1089C160.094 48.1775 156.652 49.6509 153.335 50.2236C153.269 50.7334 153.214 51.2245 153.16 51.725C155.783 51.06 158.448 49.7429 160.612 47.908C162.955 45.9205 164.707 43.3966 165.388 40.4776C165.033 40.4175 164.634 40.4784 164.313 40.5031ZM168.464 41.3682C167.578 45.0141 165.402 48.1045 162.662 50.4273C159.837 52.8236 156.398 54.4324 152.96 55.1095C152.961 55.6532 152.99 56.2002 153.035 56.738C156.57 56.0683 160.278 54.4749 163.262 52.1575C166.607 49.5598 169.012 46.1353 169.564 42.1062C169.206 41.8096 168.798 41.5784 168.464 41.3682ZM172.114 45.2361C170.899 49.077 168.325 52.2914 165.188 54.7277C161.773 57.3797 157.663 59.1567 153.635 59.9188C153.825 60.545 154.044 61.1754 154.335 61.8018C158.19 61.278 162.399 59.5974 165.913 57.0942C169.297 54.6841 172.019 51.5425 173.315 48.0352C172.978 47.0102 172.569 46.0676 172.114 45.2361ZM174.365 53.0991C172.743 55.6961 170.475 57.8167 167.738 59.7661C164.236 62.2608 160.182 63.979 156.21 64.7537C156.699 65.3501 157.235 65.9523 157.811 66.5603C165.626 64.9289 171.007 61.9664 174.565 55.542C174.508 54.6613 174.448 53.9409 174.365 53.0991ZM174.615 61.0893C171.069 65.2402 166.365 67.7427 160.712 69.2322C161.561 69.8791 162.516 70.4117 163.387 70.8608C167.27 70.7949 171.392 68.1393 174.315 63.9648C174.462 63.0482 174.556 62.0858 174.615 61.0893Z" fill="black"/>
<path d="M60.9434 4.16548L52.1413 6.60835C51.0145 6.92755 50.2269 8.18195 50.4158 9.35655L51.7662 17.6521C50.1969 19.0311 49.0059 20.9845 48.4654 22.8432C47.0626 18.467 44.4792 14.9952 41.6638 12.1302C38.1094 8.51318 34.1557 6.78954 30.5361 6.53199C27.0466 6.28371 23.8742 7.40287 21.709 9.45828C19.2945 8.43853 16.4361 7.61457 14.1322 7.62615C12.0018 7.658 9.75743 8.3652 8.05567 10.0436C6.83155 11.7864 6.25693 14.23 6.43028 16.0744C6.6307 17.9687 7.29776 19.7595 8.20567 21.4946C10.0216 24.9645 12.7798 28.2623 15.2574 31.1133C19.4194 35.9023 25.1549 37.6993 31.3113 37.9584C29.5943 38.6049 28.084 39.655 26.8602 41.0628C24.2379 44.0794 22.8066 48.4692 22.3841 53.5826C22.2291 57.891 22.019 62.3466 22.8092 66.026C23.5919 69.5107 25.1858 72.6543 28.0354 74.3216C28.7467 76.3422 29.8089 77.6417 31.9614 78.1893C31.4695 77.1883 31.2985 76.1877 31.4113 75.1867C34.6117 75.3497 37.5094 74.284 39.9133 72.7438C42.584 70.8703 44.9998 68.476 46.865 66.1022C50.5488 60.8541 50.5013 55.4847 49.9157 50.5036C52.1594 50.5118 54.2685 50.0519 55.9922 48.7732C56.009 48.7567 56.0258 48.7394 56.0422 48.7222C58.7187 46.6041 59.5789 43.1114 58.9678 39.9685C58.7543 38.87 58.3845 37.7925 57.8926 36.7369C59.3339 37.0854 60.8046 37.2537 62.2437 37.2966C65.9721 37.4079 69.5657 36.7155 72.021 34.3704C73.1996 32.8752 73.6453 30.759 73.5964 29.1283C73.5309 27.3919 73.1097 25.5962 72.3961 23.8355C70.9689 20.314 68.4213 16.8315 64.6442 15.2854C64.0429 15.0912 63.3998 14.9117 62.8688 14.7765L69.4204 12.9445C70.5453 12.6507 71.3561 11.4292 71.2038 10.2576C71.0515 9.0861 69.9565 8.12106 68.7952 8.13508C65.6692 8.79063 62.4721 9.81129 59.343 10.6797C58.3305 10.9577 57.5642 11.979 57.5675 13.0463V14.7511C57.111 14.8474 56.6588 14.963 56.2172 15.1074L55.492 10.7306L62.2186 8.87301C63.3435 8.57935 64.1464 7.34724 63.9941 6.17568C63.6243 4.56231 62.3805 3.92155 60.9434 4.16543V4.16548ZM29.3358 11.3668C31.8786 11.271 35.0599 12.306 38.263 15.5655C41.9031 19.9966 44.0741 24.4133 44.4973 27.7144C38.3672 20.4848 34.6496 17.2449 30.5861 14.5731C29.4802 13.8459 28.0803 12.9288 26.5351 12.003C27.5102 11.6515 28.4874 11.405 29.3358 11.3668ZM14.1822 12.5119C19.2511 12.8873 23.7786 15.9078 27.9854 18.67C31.192 20.7783 34.2702 23.1181 39.0381 29.2048C37.6455 30.1174 36.4508 31.6496 35.8874 32.9963C28.7122 33.5108 22.7796 32.3937 18.8582 27.8816C16.4432 25.1027 13.9026 21.9673 12.4567 19.2044C11.7338 17.8228 11.2868 16.5361 11.1814 15.54C11.0888 14.6646 11.2363 14.0394 11.5815 13.428C12.2825 12.8093 13.0415 12.529 14.1822 12.5119ZM62.8688 19.8405C64.8833 20.6651 66.8902 23.1159 67.945 25.7186C68.5574 27.4817 69.0799 29.1228 68.5202 30.9097C67.5542 31.6916 65.151 32.4934 62.3937 32.4111C59.5316 32.3257 56.4918 31.3944 54.5668 29.8919C52.248 27.5753 52.3182 24.4528 54.0417 22.2579C55.8164 19.7287 59.8564 18.7447 62.8688 19.8405ZM57.1174 21.1383C55.42 22.5778 55.7056 25.1618 57.7426 26.8892C59.7795 28.6166 62.7967 28.8376 64.4942 27.3981C66.1917 25.9586 65.931 23.4 63.8941 21.6727C61.783 20.2931 59.0793 19.521 57.1174 21.1383ZM35.6873 40.5031C36.1303 42.0743 36.8425 43.6319 37.8378 45.1089C39.9059 48.1775 43.3482 49.6509 46.665 50.2236C46.7316 50.7334 46.7862 51.2245 46.84 51.725C44.217 51.06 41.5519 49.7429 39.3882 47.908C37.0445 45.9205 35.2931 43.3966 34.612 40.4776C34.9674 40.4175 35.3664 40.4784 35.6873 40.5031ZM31.5363 41.3682C32.4216 45.0141 34.5987 48.1045 37.3377 50.4273C40.1635 52.8236 43.6027 54.4324 47.04 55.1095C47.0392 55.6532 47.0103 56.2002 46.965 56.738C43.4305 56.0683 39.7215 54.4749 36.7376 52.1575C33.3926 49.5598 30.9882 46.1353 30.4361 42.1062C30.7934 41.8096 31.2025 41.5784 31.5363 41.3682ZM27.8854 45.2361C29.1006 49.077 31.6748 52.2914 34.8121 54.7277C38.227 57.3797 42.3365 59.1567 46.3649 59.9188C46.1754 60.545 45.9557 61.1754 45.6647 61.8018C41.8102 61.278 37.6009 59.5974 34.0869 57.0942C30.7036 54.6841 27.9809 51.5425 26.6851 48.0352C27.0214 47.0102 27.4311 46.0676 27.8854 45.2361ZM25.6349 53.0991C27.2564 55.6961 29.5249 57.8167 32.2614 59.7661C35.7637 62.2608 39.8178 63.979 43.7892 64.7537C43.3009 65.3501 42.7648 65.9523 42.1889 66.5603C34.374 64.9289 28.9926 61.9664 25.4349 55.542C25.4924 54.6613 25.5523 53.9409 25.6349 53.0991ZM25.3848 61.0893C28.9309 65.2402 33.6355 67.7427 39.2882 69.2322C38.439 69.8791 37.4843 70.4117 36.6126 70.8608C32.7294 70.7949 28.608 68.1393 25.6849 63.9648C25.5382 63.0482 25.4439 62.0858 25.3848 61.0893Z" fill="black"/>
<path d="M99.9288 23.2581C131.24 23.2581 156.742 49.3487 156.742 81.5611C156.742 113.919 131.24 140.01 99.9288 140.01C68.6187 140.01 43.2586 113.774 43.2586 81.5611C43.2586 49.3487 68.6187 23.2581 99.9288 23.2581ZM102.338 135.054C100.071 136.658 97.3792 137.532 94.6872 137.97C105.596 138.99 116.647 136.658 126.281 131.264C125.856 131.264 125.573 131.118 125.147 131.118C117.781 133.451 109.988 134.617 102.338 135.054ZM68.0519 127.621C67.7686 124.56 69.3271 121.062 70.7438 118.438C65.3601 106.631 62.2432 99.781 61.5348 98.3234C56.7179 95.9909 52.6092 92.93 49.4923 88.4115C48.0755 90.1605 47.0839 92.3473 46.5171 94.679C49.4923 107.943 57.1429 119.604 68.0519 127.621ZM63.235 97.7399C64.0851 99.4897 67.0603 106.34 72.3023 117.709C79.2444 119.458 86.1864 120.916 93.1288 121.79C97.3792 116.98 101.204 111.733 104.605 106.049C101.346 99.781 98.512 93.2214 95.9624 86.6625C88.5952 85.4963 81.228 84.1851 73.8607 82.581C70.4605 87.6831 66.7769 92.6386 63.235 97.7399ZM106.163 107.069C102.762 112.607 98.9376 118.001 94.5456 122.811L102.479 133.305C109.988 132.867 117.497 131.702 124.581 129.37C128.973 124.851 132.94 119.895 135.915 114.211C132.373 111.295 129.539 106.777 127.414 102.842C120.756 105.611 113.246 106.631 106.163 107.069ZM128.69 101.53C130.673 105.319 133.648 110.13 137.049 112.899C141.582 110.567 145.549 107.506 148.95 103.716C152.208 94.8255 153.483 86.8082 152.774 79.5205C150.791 76.0223 148.241 72.6699 145.124 70.0463C140.874 73.5445 136.34 76.8969 131.806 80.1036C131.382 87.0995 130.531 94.8255 128.69 101.53ZM74.144 80.8323C81.5112 82.4354 88.8784 83.7473 96.104 84.9135C100.213 78.7917 105.171 73.5445 110.838 69.026C108.997 62.3211 107.296 55.3247 105.596 48.3284C98.6544 47.1623 91.712 45.9962 84.9112 44.8302C79.1027 50.2232 73.5774 56.0535 68.6187 62.3211C70.6022 68.4429 72.4439 74.5647 74.144 80.8323ZM45.8087 91.181C46.5171 89.5777 47.5089 87.9744 48.7839 86.6625C47.9339 78.0629 48.7839 72.8157 51.3341 64.6532C50.7675 62.0296 50.6258 59.406 50.6258 56.7823C45.5254 67.4226 43.8253 79.5205 45.8087 91.181ZM52.4675 53.1384C52.1842 56.4908 52.1842 59.989 52.8926 63.3414C57.4263 61.155 62.3849 59.989 67.3436 61.155C72.3023 54.8874 77.8276 49.0572 83.4944 43.6641C82.3616 40.166 82.5032 35.7932 82.6448 32.1493C78.536 32.1493 74.2857 33.0238 70.3188 34.0441C62.9516 38.8541 56.8595 45.4132 52.4675 53.1384ZM107.296 47.8911C108.997 54.8874 110.697 61.8838 112.538 68.7344C118.914 70.6293 126.422 73.5445 131.098 78.5002C135.632 75.2935 140.024 72.0869 144.274 68.5887C143.424 61.4465 141.44 54.5959 137.898 48.4741C132.09 44.2471 125.998 41.0404 119.339 38.8541C115.23 41.6235 111.122 44.6844 107.296 47.8911ZM154.474 79.229C155.042 83.7473 154.758 88.5572 153.766 93.6592C155.042 87.9744 155.466 78.5002 154.474 72.9614C154.474 74.2732 154.616 78.0629 154.474 79.229ZM119.764 37.1051C126.281 39.2914 132.514 42.4981 138.323 46.5793C139.174 45.4132 140.449 44.9759 141.866 44.9759C134.215 35.7932 124.014 29.2341 112.538 26.6105C110.98 26.6105 109.705 26.7562 108.571 27.0477C113.105 29.3799 116.789 32.8781 119.764 37.1051ZM83.0696 30.4001C89.8704 27.1934 98.3704 24.5698 106.305 26.0274C106.588 25.8817 106.871 25.7359 107.296 25.5902C96.3872 23.9868 85.0528 26.0274 75.1358 31.1289C77.8276 30.6916 80.3776 30.4001 83.0696 30.4001Z" fill="black"/>
<path d="M15.832 166.749C15.832 174.162 16.224 180.076 17.008 184.494C15.8134 184.955 14.544 185.185 13.2 185.185C11.856 185.185 10.68 184.743 9.672 183.86C8.70136 182.977 8.216 181.767 8.216 180.23C8.216 178.656 8.40264 175.698 8.776 171.358C9.14936 167.018 9.336 163.657 9.336 161.276C9.336 155.399 8.944 149.734 8.16 144.28C10.9226 144.51 14.6374 144.625 19.304 144.625C23.9706 144.625 28.432 144.28 32.688 143.588C33.136 144.434 33.36 145.451 33.36 146.642C33.36 147.794 32.912 148.831 32.016 149.753C31.1574 150.636 30.0746 151.078 28.768 151.078C27.4986 151.078 25.4454 150.886 22.608 150.502C19.808 150.118 17.736 149.926 16.392 149.926C16.0934 154.113 15.9066 157.953 15.832 161.448C17.9974 161.679 20.3866 161.794 23 161.794C25.6506 161.794 27.9466 161.391 29.888 160.584C30.336 161.43 30.56 162.447 30.56 163.638C30.56 164.79 30.112 165.846 29.216 166.806C28.3574 167.728 27.3306 168.189 26.136 168.189C24.9414 168.189 23.224 167.959 20.984 167.498C18.744 166.998 17.0266 166.749 15.832 166.749ZM40.304 185.876C36.1974 185.876 33.1734 184.648 31.232 182.189C29.2906 179.693 28.32 176.236 28.32 171.819C28.32 167.364 29.608 163.504 32.184 160.239C34.76 156.974 38.064 155.341 42.096 155.341C50.384 155.341 54.528 160.142 54.528 169.745C54.528 174.239 53.184 178.06 50.496 181.21C47.808 184.321 44.4106 185.876 40.304 185.876ZM36.272 161.679C35.6 163.907 35.264 166.134 35.264 168.362C35.264 170.59 35.3386 172.318 35.488 173.547C35.6374 174.776 35.9174 176.006 36.328 177.234C37.1866 179.731 38.8666 180.979 41.368 180.979C43.9066 180.979 45.568 180.288 46.352 178.905C47.1734 177.523 47.584 175.391 47.584 172.51C47.584 164.329 45.6986 160.239 41.928 160.239C39.7626 160.239 37.8774 160.718 36.272 161.679ZM63.5243 185.876C59.4177 185.876 56.3937 184.648 54.4523 182.189C52.511 179.693 51.5403 176.236 51.5403 171.819C51.5403 167.364 52.8283 163.504 55.4043 160.239C57.9803 156.974 61.2843 155.341 65.3163 155.341C73.6043 155.341 77.7483 160.142 77.7483 169.745C77.7483 174.239 76.4043 178.06 73.7163 181.21C71.0283 184.321 67.631 185.876 63.5243 185.876ZM59.4923 161.679C58.8203 163.907 58.4843 166.134 58.4843 168.362C58.4843 170.59 58.559 172.318 58.7083 173.547C58.8577 174.776 59.1377 176.006 59.5483 177.234C60.407 179.731 62.087 180.979 64.5883 180.979C67.127 180.979 68.7883 180.288 69.5723 178.905C70.3937 177.523 70.8043 175.391 70.8043 172.51C70.8043 164.329 68.919 160.239 65.1483 160.239C62.983 160.239 61.0977 160.718 59.4923 161.679ZM78.7366 147.564C79.9313 146.949 81.1448 146.642 82.3768 146.642C83.6088 146.642 84.5976 147.045 85.3448 147.852C86.1288 148.658 86.5208 149.849 86.5208 151.424C86.5208 152.998 86.4272 154.784 86.2408 156.782C89.0408 156.782 91.7096 156.379 94.2488 155.572C94.6968 156.34 94.9208 157.243 94.9208 158.28C94.9208 159.278 94.4728 160.104 93.5768 160.757C92.7176 161.372 91.8408 161.679 90.9448 161.679C90.0488 161.679 89.0408 161.564 87.9208 161.333C86.8008 161.103 86.0728 160.969 85.7368 160.93C85.6992 161.276 85.5872 161.967 85.4008 163.004C85.2512 164.041 85.1208 164.944 85.0088 165.712C84.7096 167.825 84.5608 170.09 84.5608 172.51C84.5608 177.772 86.2216 180.403 89.5448 180.403C90.7768 180.403 92.1952 179.961 93.8008 179.078C94.2856 179.808 94.5288 180.749 94.5288 181.901C94.5288 183.053 93.9128 183.956 92.6808 184.609C91.4856 185.224 90.0488 185.531 88.3688 185.531C81.7976 185.531 78.5126 181.69 78.5126 174.008C78.5126 172.895 78.6619 170.878 78.9606 167.959C79.2966 165.039 79.4646 162.677 79.4646 160.872C77.6726 160.988 76.2353 161.314 75.1526 161.852C74.7046 161.16 74.4806 160.373 74.4806 159.49C74.4806 158.568 74.7979 157.819 75.4326 157.243C76.0673 156.628 76.8513 156.321 77.7846 156.321C78.7179 156.321 79.3339 156.34 79.6326 156.378C79.6699 156.072 79.6886 155.668 79.6886 155.169C79.6886 152.288 79.3713 149.753 78.7366 147.564ZM93.6624 175.621L94.2224 167.325C94.2224 163.599 93.7 160.066 92.6544 156.724C93.7 156.263 94.988 156.033 96.5184 156.033C99.5048 156.033 100.998 157.742 100.998 161.16C100.998 162.697 100.793 164.867 100.382 167.671C99.972 170.475 99.7664 172.414 99.7664 173.49C99.7664 174.527 99.7848 175.295 99.8224 175.794C99.86 176.255 99.9528 176.812 100.102 177.465C100.326 178.771 101.054 179.424 102.286 179.424C103.556 179.424 104.9 178.406 106.318 176.37C107.774 174.296 108.932 172.011 109.79 169.514C110.686 167.018 111.134 165.039 111.134 163.58C110.948 160.546 110.63 158.261 110.182 156.724C111.377 156.263 112.59 156.033 113.822 156.033C115.092 156.033 116.137 156.436 116.958 157.243C117.817 158.049 118.246 159.125 118.246 160.469C118.246 181.44 114.513 194.019 107.046 198.206C105.366 199.127 103.462 199.588 101.334 199.588C99.2064 199.588 97.34 199.012 95.7344 197.86C94.1664 196.708 93.3824 195.095 93.3824 193.02C93.3824 191.638 93.8864 190.467 94.8944 189.506C95.9024 188.584 97.0968 188.123 98.4784 188.123C98.7768 188.123 99.1504 188.162 99.5984 188.239C99.4864 188.738 99.4304 189.179 99.4304 189.564C99.4304 192.944 100.569 194.634 102.846 194.634C104.228 194.634 105.478 193.866 106.598 192.329C107.718 190.792 108.614 188.911 109.286 186.683C110.593 182.151 111.246 178.041 111.246 174.354C110.126 177.465 108.596 179.981 106.654 181.901C104.75 183.783 102.678 184.724 100.438 184.724C95.9208 184.724 93.6624 181.69 93.6624 175.621ZM119.129 146.123C124.505 144.664 129.19 143.934 133.185 143.934C141.734 143.934 146.009 146.988 146.009 153.095C146.009 156.82 144.31 159.662 140.913 161.621C143.19 162.197 145.075 163.311 146.569 164.963C148.062 166.576 148.809 168.611 148.809 171.07C148.809 175.679 147.147 179.251 143.825 181.786C140.502 184.282 136.395 185.531 131.505 185.531C126.614 185.531 122.377 184.532 118.793 182.535C119.95 178.387 120.529 172.798 120.529 165.769C120.529 158.702 120.062 152.154 119.129 146.123ZM127.585 179.309C129.227 179.846 130.87 180.115 132.513 180.115C135.089 180.115 137.217 179.462 138.897 178.156C140.577 176.812 141.417 174.93 141.417 172.51C141.417 167.901 138.99 165.597 134.137 165.597C131.822 165.597 129.47 166.096 127.081 167.095C127.081 170.974 127.249 175.045 127.585 179.309ZM127.025 162.025C127.547 161.909 128.313 161.775 129.321 161.621C130.366 161.467 131.169 161.333 131.729 161.218C132.289 161.103 132.979 160.93 133.801 160.699C134.659 160.469 135.313 160.2 135.761 159.893C136.246 159.547 136.731 159.125 137.217 158.625C138.15 157.665 138.617 156.263 138.617 154.42C138.617 150.848 136.545 149.062 132.401 149.062C131.057 149.062 129.414 149.292 127.473 149.753C127.174 157.627 127.025 161.718 127.025 162.025ZM153.386 172.107C153.386 174.872 153.816 177.062 154.674 178.675C155.533 180.249 156.97 181.037 158.986 181.037C161.002 181.037 162.57 180.346 163.69 178.963C164.848 177.541 165.426 175.833 165.426 173.835C166.696 173.835 167.797 174.162 168.73 174.815C169.664 175.467 170.13 176.37 170.13 177.523C170.13 179.904 168.898 181.901 166.434 183.514C163.97 185.089 161.376 185.876 158.65 185.876C154.394 185.876 151.314 184.705 149.41 182.362C147.506 179.981 146.554 176.467 146.554 171.819C146.554 167.171 147.824 163.273 150.362 160.123C152.938 156.936 156.354 155.341 160.61 155.341C163.522 155.341 165.856 156.033 167.61 157.416C169.402 158.76 170.298 160.872 170.298 163.753C170.298 166.595 169.029 168.746 166.49 170.206C163.989 171.627 160.928 172.337 157.306 172.337C156.037 172.337 154.73 172.261 153.386 172.107ZM153.442 167.555C154.562 167.786 155.738 167.901 156.97 167.901C159.658 167.901 161.917 167.383 163.746 166.346C163.97 165.424 164.082 164.694 164.082 164.156C164.082 162.812 163.616 161.794 162.682 161.103C161.749 160.411 160.461 160.066 158.818 160.066C157.213 160.066 155.757 160.603 154.45 161.679C153.778 163.676 153.442 165.635 153.442 167.555ZM175.021 172.107C175.021 174.872 175.45 177.062 176.309 178.675C177.167 180.249 178.605 181.037 180.621 181.037C182.637 181.037 184.205 180.346 185.325 178.963C186.482 177.541 187.061 175.833 187.061 173.835C188.33 173.835 189.431 174.162 190.365 174.815C191.298 175.467 191.765 176.37 191.765 177.523C191.765 179.904 190.533 181.901 188.069 183.514C185.605 185.089 183.01 185.876 180.285 185.876C176.029 185.876 172.949 184.705 171.045 182.362C169.141 179.981 168.189 176.467 168.189 171.819C168.189 167.171 169.458 163.273 171.997 160.123C174.573 156.936 177.989 155.341 182.245 155.341C185.157 155.341 187.49 156.033 189.245 157.416C191.037 158.76 191.933 160.872 191.933 163.753C191.933 166.595 190.663 168.746 188.125 170.206C185.623 171.627 182.562 172.337 178.941 172.337C177.671 172.337 176.365 172.261 175.021 172.107ZM175.077 167.555C176.197 167.786 177.373 167.901 178.605 167.901C181.293 167.901 183.551 167.383 185.381 166.346C185.605 165.424 185.717 164.694 185.717 164.156C185.717 162.812 185.25 161.794 184.317 161.103C183.383 160.411 182.095 160.066 180.453 160.066C178.847 160.066 177.391 160.603 176.085 161.679C175.413 163.676 175.077 165.635 175.077 167.555Z" fill="black"/>
</svg>
