<svg width="160" height="160" viewBox="0 0 160 160" fill="none" xmlns="http://www.w3.org/2000/svg">
<path d="M111.245 3.33237L118.287 5.28667C119.188 5.54203 119.818 6.54555 119.667 7.48523L118.587 14.1217C119.843 15.2249 120.796 16.7876 121.228 18.2746C122.35 14.7736 124.417 11.9962 126.669 9.70416C129.512 6.81053 132.675 5.43162 135.571 5.22558C138.363 5.02695 140.9 5.92229 142.633 7.56661C144.564 6.75081 146.851 6.09164 148.694 6.10091C150.399 6.12639 152.194 6.69214 153.555 8.03489C154.535 9.42913 154.995 11.384 154.856 12.8595C154.696 14.3749 154.162 15.8076 153.436 17.1957C151.983 19.9716 149.776 22.6098 147.794 24.8906C144.465 28.7218 139.876 30.1594 134.951 30.3667C136.324 30.8839 137.533 31.724 138.512 32.8502C140.61 35.2635 141.755 38.7754 142.093 42.8661C142.217 46.3128 142.385 49.8773 141.752 52.8208C141.126 55.6086 139.852 58.1234 137.572 59.4572C137.003 61.0738 136.153 62.1134 134.431 62.5514C134.824 61.7506 134.961 60.9501 134.871 60.1493C132.31 60.2798 129.992 59.4272 128.069 58.195C125.933 56.6962 124 54.7808 122.508 52.8818C119.561 48.6833 119.599 44.3877 120.067 40.4028C118.273 40.4094 116.585 40.0415 115.206 39.0185C115.193 39.0054 115.18 38.9915 115.166 38.9777C113.025 37.2833 112.337 34.4891 112.826 31.9748C112.996 31.096 113.292 30.234 113.686 29.3895C112.533 29.6683 111.356 29.8029 110.205 29.8373C107.222 29.9263 104.348 29.3724 102.383 27.4963C101.44 26.3002 101.084 24.6072 101.123 23.3026C101.175 21.9135 101.512 20.477 102.083 19.0684C103.225 16.2512 105.263 13.4651 108.285 12.2283C108.765 12.073 109.28 11.9293 109.705 11.8212L104.464 10.3556C103.564 10.1206 102.915 9.14337 103.037 8.20609C103.159 7.26887 104.035 6.49683 104.964 6.50805C107.464 7.03249 110.022 7.84902 112.525 8.54373C113.336 8.76615 113.949 9.58321 113.946 10.437V11.8009C114.311 11.8779 114.673 11.9704 115.026 12.0859L115.606 8.58449L110.225 7.0984C109.325 6.86347 108.683 5.87778 108.804 4.94053C109.101 3.64983 110.095 3.13723 111.245 3.33233V3.33237ZM136.531 9.09346C134.497 9.01675 131.952 9.8448 129.389 12.4524C126.477 15.9973 124.74 19.5307 124.402 22.1715C129.306 16.3878 132.28 13.7959 135.531 11.6585C136.416 11.0767 137.536 10.343 138.772 9.60237C137.992 9.32121 137.21 9.12401 136.531 9.09346ZM148.654 10.0095C144.599 10.3099 140.977 12.7263 137.612 14.936C135.046 16.6226 132.584 18.4945 128.769 23.3638C129.884 24.0939 130.839 25.3196 131.29 26.397C137.03 26.8086 141.776 25.9149 144.913 22.3052C146.845 20.0822 148.878 17.5739 150.035 15.3635C150.613 14.2582 150.97 13.2289 151.055 12.432C151.129 11.7317 151.011 11.2315 150.735 10.7424C150.174 10.2474 149.567 10.0232 148.654 10.0095ZM109.705 15.8724C108.093 16.5321 106.488 18.4927 105.644 20.5749C105.154 21.9853 104.736 23.2982 105.184 24.7278C105.956 25.3533 107.879 25.9947 110.085 25.9289C112.374 25.8605 114.806 25.1155 116.346 23.9135C118.202 22.0602 118.145 19.5622 116.767 17.8063C115.347 15.783 112.115 14.9957 109.705 15.8724ZM114.306 16.9106C115.664 18.0622 115.436 20.1294 113.806 21.5114C112.177 22.8932 109.763 23.0701 108.404 21.9185C107.046 20.7669 107.255 18.72 108.884 17.3381C110.573 16.2345 112.737 15.6168 114.306 16.9106ZM131.45 32.4025C131.096 33.6595 130.526 34.9055 129.73 36.0871C128.076 38.542 125.322 39.7207 122.668 40.1789C122.615 40.5867 122.571 40.9796 122.528 41.3799C124.627 40.848 126.758 39.7943 128.49 38.3264C130.364 36.7364 131.766 34.7172 132.31 32.3821C132.026 32.334 131.707 32.3827 131.45 32.4025ZM134.771 33.0946C134.063 36.0113 132.321 38.4836 130.13 40.3418C127.869 42.2589 125.118 43.5459 122.368 44.0876C122.369 44.5225 122.392 44.9601 122.428 45.3904C125.256 44.8546 128.223 43.5799 130.61 41.726C133.286 39.6478 135.21 36.9082 135.651 33.6849C135.365 33.4477 135.038 33.2627 134.771 33.0946ZM137.692 36.1889C136.719 39.2616 134.66 41.8331 132.15 43.7821C129.418 45.9037 126.131 47.3254 122.908 47.935C123.06 48.436 123.235 48.9403 123.468 49.4414C126.552 49.0224 129.919 47.6779 132.73 45.6753C135.437 43.7473 137.615 41.234 138.652 38.4282C138.383 37.6082 138.055 36.8541 137.692 36.1889ZM139.492 42.4793C138.195 44.5568 136.38 46.2534 134.191 47.8129C131.389 49.8087 128.146 51.1832 124.968 51.8029C125.359 52.2801 125.788 52.7618 126.249 53.2482C132.5 51.9431 136.806 49.5731 139.652 44.4336C139.606 43.729 139.558 43.1527 139.492 42.4793ZM139.692 48.8714C136.855 52.1921 133.092 54.1941 128.57 55.3857C129.249 55.9033 130.013 56.3293 130.71 56.6886C133.816 56.6359 137.114 54.5114 139.452 51.1718C139.569 50.4385 139.645 49.6686 139.692 48.8714Z" fill="black"/>
<path d="M48.7547 3.33237L41.713 5.28667C40.8116 5.54203 40.1815 6.54555 40.3327 7.48523L41.4129 14.1217C40.1575 15.2249 39.2047 16.7876 38.7723 18.2746C37.65 14.7736 35.5834 11.9962 33.331 9.70416C30.4875 6.81053 27.3245 5.43162 24.4289 5.22558C21.6373 5.02695 19.0994 5.92229 17.3672 7.56661C15.4356 6.75081 13.1489 6.09164 11.3057 6.10091C9.60141 6.12639 7.80595 6.69214 6.44455 8.03489C5.46524 9.42913 5.00555 11.384 5.14423 12.8595C5.30457 14.3749 5.83822 15.8076 6.56455 17.1957C8.01728 19.9716 10.2238 22.6098 12.206 24.8906C15.5355 28.7218 20.1239 30.1594 25.049 30.3667C23.6755 30.8839 22.4672 31.724 21.4881 32.8502C19.3903 35.2635 18.2453 38.7754 17.9073 42.8661C17.7833 46.3128 17.6152 49.8773 18.2474 52.8208C18.8735 55.6086 20.1487 58.1234 22.4284 59.4572C22.9974 61.0738 23.8471 62.1134 25.5692 62.5514C25.1756 61.7506 25.0388 60.9501 25.129 60.1493C27.6893 60.2798 30.0075 59.4272 31.9306 58.195C34.0672 56.6962 35.9999 54.7808 37.492 52.8818C40.439 48.6833 40.401 44.3877 39.9325 40.4028C41.7276 40.4094 43.4148 40.0415 44.7937 39.0185C44.8072 39.0054 44.8206 38.9915 44.8337 38.9777C46.975 37.2833 47.6631 34.4891 47.1743 31.9748C47.0035 31.096 46.7076 30.234 46.3141 29.3895C47.4671 29.6683 48.6437 29.8029 49.7949 29.8373C52.7777 29.9263 55.6525 29.3724 57.6168 27.4963C58.5597 26.3002 58.9162 24.6072 58.8771 23.3026C58.8247 21.9135 58.4877 20.477 57.9169 19.0684C56.7751 16.2512 54.737 13.4651 51.7154 12.2283C51.2343 12.073 50.7198 11.9293 50.295 11.8212L55.5363 10.3556C56.4362 10.1206 57.0849 9.14337 56.963 8.20609C56.8412 7.26887 55.9652 6.49683 55.0362 6.50805C52.5354 7.03249 49.9777 7.84902 47.4744 8.54373C46.6644 8.76615 46.0514 9.58321 46.054 10.437V11.8009C45.6888 11.8779 45.327 11.9704 44.9738 12.0859L44.3936 8.58449L49.7749 7.0984C50.6748 6.86347 51.3171 5.87778 51.1953 4.94053C50.8995 3.64983 49.9044 3.13723 48.7547 3.33233V3.33237ZM23.4686 9.09346C25.5029 9.01675 28.0479 9.8448 30.6104 12.4524C33.5225 15.9973 35.2593 19.5307 35.5978 22.1715C30.6938 16.3878 27.7197 13.7959 24.4689 11.6585C23.5842 11.0767 22.4643 10.343 21.2281 9.60237C22.0082 9.32121 22.7899 9.12401 23.4686 9.09346ZM11.3457 10.0095C15.4009 10.3099 19.0229 12.7263 22.3884 14.936C24.9536 16.6226 27.4162 18.4945 31.2305 23.3638C30.1164 24.0939 29.1606 25.3196 28.7099 26.397C22.9698 26.8086 18.2237 25.9149 15.0866 22.3052C13.1546 20.0822 11.1221 17.5739 9.96538 15.3635C9.38701 14.2582 9.02944 13.2289 8.94515 12.432C8.87104 11.7317 8.98906 11.2315 9.26522 10.7424C9.82599 10.2474 10.4332 10.0232 11.3457 10.0095ZM50.295 15.8724C51.9066 16.5321 53.5121 18.4927 54.356 20.5749C54.846 21.9853 55.2639 23.2982 54.8161 24.7278C54.0434 25.3533 52.1208 25.9947 49.9149 25.9289C47.6253 25.8605 45.1935 25.1155 43.6534 23.9135C41.7984 22.0602 41.8545 19.5622 43.2333 17.8063C44.6531 15.783 47.8851 14.9957 50.295 15.8724ZM45.694 16.9106C44.336 18.0622 44.5645 20.1294 46.194 21.5114C47.8236 22.8932 50.2374 23.0701 51.5954 21.9185C52.9533 20.7669 52.7448 18.72 51.1153 17.3381C49.4264 16.2345 47.2634 15.6168 45.694 16.9106ZM28.5498 32.4025C28.9043 33.6595 29.474 34.9055 30.2703 36.0871C31.9247 38.542 34.6786 39.7207 37.332 40.1789C37.3853 40.5867 37.4289 40.9796 37.472 41.3799C35.3736 40.848 33.2415 39.7943 31.5105 38.3264C29.6356 36.7364 28.2345 34.7172 27.6896 32.3821C27.9739 32.334 28.2931 32.3827 28.5498 32.4025ZM25.2291 33.0946C25.9373 36.0113 27.679 38.4836 29.8701 40.3418C32.1308 42.2589 34.8822 43.5459 37.632 44.0876C37.6314 44.5225 37.6083 44.9601 37.572 45.3904C34.7444 44.8546 31.7772 43.5799 29.3901 41.726C26.7141 39.6478 24.7906 36.9082 24.3489 33.6849C24.6347 33.4477 24.962 33.2627 25.2291 33.0946ZM22.3084 36.1889C23.2805 39.2616 25.3398 41.8331 27.8497 43.7821C30.5816 45.9037 33.8692 47.3254 37.0919 47.935C36.9403 48.436 36.7645 48.9403 36.5318 49.4414C33.4482 49.0224 30.0807 47.6779 27.2695 45.6753C24.5629 43.7473 22.3847 41.234 21.3481 38.4282C21.6171 37.6082 21.9449 36.8541 22.3084 36.1889ZM20.5079 42.4793C21.8051 44.5568 23.6199 46.2534 25.8092 47.8129C28.6109 49.8087 31.8542 51.1832 35.0314 51.8029C34.6407 52.2801 34.2118 52.7618 33.7511 53.2482C27.4992 51.9431 23.1941 49.5731 20.3479 44.4336C20.3939 43.729 20.4419 43.1527 20.5079 42.4793ZM20.3078 48.8714C23.1447 52.1921 26.9084 54.1941 31.4305 55.3857C30.7512 55.9033 29.9875 56.3293 29.2901 56.6886C26.1836 56.6359 22.8864 54.5114 20.5479 51.1718C20.4305 50.4385 20.3551 49.6686 20.3078 48.8714Z" fill="black"/>
<path d="M79.943 18.6065C104.992 18.6065 125.393 39.479 125.393 65.2489C125.393 91.1355 104.992 112.008 79.943 112.008C54.8949 112.008 34.6069 91.0189 34.6069 65.2489C34.6069 39.479 54.8949 18.6065 79.943 18.6065ZM81.8701 108.043C80.057 109.326 77.9034 110.026 75.7498 110.376C84.4768 111.192 93.3178 109.326 101.025 105.011C100.685 105.011 100.458 104.895 100.118 104.895C94.2247 106.761 87.9904 107.694 81.8701 108.043ZM54.4415 102.096C54.2149 99.6477 55.4616 96.8494 56.595 94.7503C52.2881 85.305 49.7946 79.8248 49.2278 78.6587C45.3743 76.7927 42.0874 74.344 39.5939 70.7292C38.4604 72.1284 37.6671 73.8778 37.2137 75.7432C39.5939 86.3546 45.7143 95.6833 54.4415 102.096ZM50.588 78.1919C51.268 79.5918 53.6482 85.0719 57.8418 94.1676C63.3955 95.5667 68.9491 96.7328 74.5031 97.4321C77.9034 93.5842 80.9632 89.3867 83.6838 84.8388C81.0765 79.8248 78.8096 74.5771 76.7699 69.33C70.8762 68.397 64.9824 67.3481 59.0886 66.0648C56.3684 70.1465 53.4215 74.1109 50.588 78.1919ZM84.9306 85.6553C82.2099 90.0859 79.1501 94.4006 75.6365 98.2485L81.9834 106.644C87.9904 106.294 93.9975 105.362 99.6647 103.496C103.178 99.8808 106.352 95.9164 108.732 91.3685C105.898 89.0364 103.631 85.4216 101.932 82.2736C96.6048 84.4892 90.5971 85.305 84.9306 85.6553ZM102.952 81.224C104.538 84.2555 106.918 88.104 109.639 90.319C113.266 88.4536 116.439 86.0049 119.16 82.9728C121.766 75.8604 122.787 69.4466 122.22 63.6164C120.633 60.8179 118.593 58.1359 116.099 56.0371C112.699 58.8356 109.072 61.5175 105.445 64.0829C105.105 69.6797 104.425 75.8604 102.952 81.224ZM59.3152 64.6659C65.209 65.9483 71.1027 66.9978 76.8832 67.9308C80.1702 63.0334 84.137 58.8356 88.6707 55.2208C87.1975 49.8569 85.8368 44.2598 84.4768 38.6627C78.9235 37.7298 73.3696 36.797 67.929 35.8641C63.2822 40.1786 58.8619 44.8428 54.8949 49.8569C56.4817 54.7544 57.9551 59.6518 59.3152 64.6659ZM36.647 72.9448C37.2137 71.6622 38.0071 70.3796 39.0271 69.33C38.3471 62.4504 39.0271 58.2526 41.0673 51.7226C40.614 49.6237 40.5006 47.5248 40.5006 45.4259C36.4203 53.9381 35.0602 63.6164 36.647 72.9448ZM41.974 42.5107C41.7473 45.1927 41.7473 47.9912 42.3141 50.6732C45.941 48.924 49.9079 47.9912 53.8749 48.924C57.8418 43.91 62.2621 39.2457 66.7955 34.9313C65.8893 32.1328 66.0026 28.6346 66.1158 25.7194C62.8288 25.7194 59.4286 26.4191 56.255 27.2353C50.3613 31.0833 45.4876 36.3306 41.974 42.5107ZM85.8368 38.3129C87.1974 43.91 88.5575 49.5071 90.0307 54.9876C95.1309 56.5035 101.138 58.8356 104.878 62.8002C108.506 60.2348 112.019 57.6695 115.419 54.871C114.739 49.1572 113.152 43.6768 110.319 38.7793C105.672 35.3977 100.798 32.8324 95.4714 31.0833C92.1843 33.2988 88.8973 35.7475 85.8368 38.3129ZM123.58 63.3832C124.033 66.9978 123.806 70.8457 123.013 74.9274C124.033 70.3796 124.373 62.8002 123.58 58.3692C123.58 59.4186 123.693 62.4504 123.58 63.3832ZM95.8112 29.6841C101.025 31.4331 106.012 33.9985 110.659 37.2634C111.339 36.3306 112.359 35.9808 113.492 35.9808C107.372 28.6346 99.2115 23.3873 90.0307 21.2884C88.784 21.2884 87.7639 21.405 86.857 21.6382C90.4839 23.5039 93.4311 26.3025 95.8112 29.6841ZM66.4557 24.3201C71.8963 21.7548 78.6963 19.6559 85.0438 20.822C85.2704 20.7054 85.497 20.5887 85.8368 20.4721C77.1098 19.1894 68.0422 20.822 60.1086 24.9032C62.2621 24.5533 64.3021 24.3201 66.4557 24.3201Z" fill="black"/>
<path d="M12.6656 133.399C12.6656 139.33 12.9792 144.061 13.6064 147.595C12.6507 147.964 11.6352 148.148 10.56 148.148C9.4848 148.148 8.544 147.795 7.7376 147.088C6.96109 146.382 6.5728 145.414 6.5728 144.184C6.5728 142.925 6.72211 140.558 7.0208 137.086C7.31949 133.614 7.4688 130.925 7.4688 129.021C7.4688 124.319 7.1552 119.787 6.528 115.424C8.73811 115.608 11.7099 115.7 15.4432 115.7C19.1765 115.7 22.7456 115.424 26.1504 114.871C26.5088 115.547 26.688 116.361 26.688 117.314C26.688 118.235 26.3296 119.065 25.6128 119.802C24.9259 120.509 24.0597 120.863 23.0144 120.863C21.9989 120.863 20.3563 120.709 18.0864 120.402C15.8464 120.094 14.1888 119.941 13.1136 119.941C12.8747 123.29 12.7253 126.362 12.6656 129.159C14.3979 129.343 16.3093 129.435 18.4 129.435C20.5205 129.435 22.3573 129.113 23.9104 128.467C24.2688 129.144 24.448 129.958 24.448 130.91C24.448 131.832 24.0896 132.677 23.3728 133.445C22.6859 134.183 21.8645 134.551 20.9088 134.551C19.9531 134.551 18.5792 134.367 16.7872 133.998C14.9952 133.599 13.6213 133.399 12.6656 133.399ZM32.2432 148.701C28.9579 148.701 26.5387 147.718 24.9856 145.751C23.4325 143.754 22.656 140.989 22.656 137.455C22.656 133.891 23.6864 130.803 25.7472 128.191C27.808 125.579 30.4512 124.273 33.6768 124.273C40.3072 124.273 43.6224 128.114 43.6224 135.796C43.6224 139.391 42.5472 142.448 40.3968 144.968C38.2464 147.457 35.5285 148.701 32.2432 148.701ZM29.0176 129.343C28.48 131.126 28.2112 132.907 28.2112 134.69C28.2112 136.472 28.2709 137.855 28.3904 138.838C28.5099 139.821 28.7339 140.805 29.0624 141.788C29.7493 143.785 31.0933 144.784 33.0944 144.784C35.1253 144.784 36.4544 144.23 37.0816 143.124C37.7387 142.018 38.0672 140.313 38.0672 138.008C38.0672 131.463 36.5589 128.191 33.5424 128.191C31.8101 128.191 30.3019 128.575 29.0176 129.343ZM50.8195 148.701C47.5341 148.701 45.1149 147.718 43.5619 145.751C42.0088 143.754 41.2323 140.989 41.2323 137.455C41.2323 133.891 42.2627 130.803 44.3235 128.191C46.3843 125.579 49.0275 124.273 52.2531 124.273C58.8835 124.273 62.1987 128.114 62.1987 135.796C62.1987 139.391 61.1235 142.448 58.9731 144.968C56.8227 147.457 54.1048 148.701 50.8195 148.701ZM47.5939 129.343C47.0563 131.126 46.7875 132.907 46.7875 134.69C46.7875 136.472 46.8472 137.855 46.9667 138.838C47.0861 139.821 47.3101 140.805 47.6387 141.788C48.3256 143.785 49.6696 144.784 51.6707 144.784C53.7016 144.784 55.0307 144.23 55.6579 143.124C56.3149 142.018 56.6435 140.313 56.6435 138.008C56.6435 131.463 55.1352 128.191 52.1187 128.191C50.3864 128.191 48.8781 128.575 47.5939 129.343ZM62.9893 118.051C63.945 117.559 64.9158 117.314 65.9014 117.314C66.887 117.314 67.6781 117.636 68.2758 118.281C68.903 118.927 69.2166 119.879 69.2166 121.139C69.2166 122.399 69.1418 123.827 68.9926 125.425C71.2326 125.425 73.3677 125.103 75.399 124.458C75.7574 125.072 75.9366 125.794 75.9366 126.624C75.9366 127.423 75.5782 128.084 74.8614 128.606C74.1741 129.098 73.4726 129.343 72.7558 129.343C72.039 129.343 71.2326 129.251 70.3366 129.067C69.4406 128.882 68.8582 128.775 68.5894 128.744C68.5594 129.021 68.4698 129.574 68.3206 130.403C68.201 131.233 68.0966 131.955 68.007 132.57C67.7677 134.26 67.6486 136.072 67.6486 138.008C67.6486 142.218 68.9773 144.323 71.6358 144.323C72.6214 144.323 73.7562 143.969 75.0406 143.263C75.4285 143.847 75.623 144.599 75.623 145.521C75.623 146.443 75.1302 147.165 74.1446 147.687C73.1885 148.179 72.039 148.425 70.695 148.425C65.4381 148.425 62.8101 145.352 62.8101 139.207C62.8101 138.316 62.9295 136.703 63.1685 134.367C63.4373 132.032 63.5717 130.142 63.5717 128.698C62.1381 128.79 60.9882 129.051 60.1221 129.481C59.7637 128.928 59.5845 128.298 59.5845 127.592C59.5845 126.854 59.8383 126.255 60.3461 125.794C60.8538 125.302 61.481 125.057 62.2277 125.057C62.9743 125.057 63.4671 125.072 63.7061 125.103C63.7359 124.857 63.7509 124.535 63.7509 124.135C63.7509 121.83 63.497 119.802 62.9893 118.051ZM74.9299 140.497L75.3779 133.86C75.3779 130.879 74.96 128.053 74.1235 125.379C74.96 125.011 75.9904 124.826 77.2147 124.826C79.6038 124.826 80.7987 126.194 80.7987 128.928C80.7987 130.158 80.6342 131.893 80.3059 134.137C79.9776 136.38 79.8131 137.931 79.8131 138.792C79.8131 139.621 79.8278 140.236 79.8579 140.635C79.888 141.004 79.9622 141.45 80.0819 141.972C80.2611 143.017 80.8435 143.539 81.8291 143.539C82.8448 143.539 83.92 142.725 85.0547 141.096C86.2195 139.437 87.1456 137.609 87.8323 135.611C88.5491 133.614 88.9075 132.032 88.9075 130.864C88.7584 128.437 88.5043 126.609 88.1459 125.379C89.1014 125.011 90.0723 124.826 91.0579 124.826C92.0736 124.826 92.9094 125.149 93.5667 125.794C94.2534 126.439 94.5971 127.3 94.5971 128.375C94.5971 145.152 91.6102 155.215 85.6371 158.565C84.2931 159.302 82.7699 159.671 81.0675 159.671C79.3651 159.671 77.872 159.21 76.5875 158.288C75.3331 157.366 74.7059 156.076 74.7059 154.416C74.7059 153.31 75.1091 152.373 75.9155 151.605C76.7219 150.867 77.6774 150.499 78.7827 150.499C79.0214 150.499 79.3203 150.53 79.6787 150.591C79.5891 150.991 79.5443 151.344 79.5443 151.651C79.5443 154.355 80.455 155.707 82.2771 155.707C83.3824 155.707 84.3827 155.093 85.2787 153.863C86.1747 152.634 86.8915 151.129 87.4291 149.346C88.4742 145.72 88.9971 142.433 88.9971 139.483C88.1011 141.972 86.8768 143.985 85.3235 145.521C83.8003 147.027 82.1427 147.779 80.3507 147.779C76.7366 147.779 74.9299 145.352 74.9299 140.497ZM95.303 116.899C99.6038 115.731 103.352 115.147 106.548 115.147C113.388 115.147 116.807 117.59 116.807 122.476C116.807 125.456 115.448 127.73 112.73 129.297C114.552 129.758 116.06 130.649 117.255 131.97C118.45 133.261 119.047 134.889 119.047 136.856C119.047 140.543 117.718 143.401 115.06 145.429C112.402 147.426 109.116 148.425 105.204 148.425C101.292 148.425 97.9014 147.626 95.0342 146.028C95.9603 142.709 96.423 138.239 96.423 132.616C96.423 126.962 96.0499 121.723 95.303 116.899ZM102.068 143.447C103.382 143.877 104.696 144.092 106.01 144.092C108.071 144.092 109.773 143.57 111.117 142.525C112.461 141.45 113.133 139.944 113.133 138.008C113.133 134.321 111.192 132.477 107.309 132.477C105.458 132.477 103.576 132.877 101.665 133.676C101.665 136.779 101.799 140.036 102.068 143.447ZM101.62 129.62C102.038 129.528 102.65 129.42 103.457 129.297C104.293 129.174 104.935 129.067 105.383 128.974C105.831 128.882 106.383 128.744 107.041 128.56C107.727 128.375 108.25 128.16 108.609 127.914C108.997 127.638 109.385 127.3 109.773 126.9C110.52 126.132 110.893 125.011 110.893 123.536C110.893 120.678 109.236 119.249 105.921 119.249C104.845 119.249 103.532 119.434 101.978 119.802C101.74 126.102 101.62 129.374 101.62 129.62ZM122.709 137.686C122.709 139.898 123.053 141.649 123.74 142.94C124.426 144.199 125.576 144.83 127.189 144.83C128.802 144.83 130.056 144.277 130.952 143.17C131.878 142.033 132.341 140.666 132.341 139.068C133.357 139.068 134.237 139.33 134.984 139.852C135.731 140.374 136.104 141.096 136.104 142.018C136.104 143.923 135.119 145.521 133.148 146.811C131.176 148.071 129.101 148.701 126.92 148.701C123.516 148.701 121.052 147.764 119.528 145.89C118.005 143.985 117.244 141.173 117.244 137.455C117.244 133.737 118.259 130.619 120.29 128.099C122.351 125.549 125.084 124.273 128.488 124.273C130.818 124.273 132.685 124.826 134.088 125.932C135.522 127.008 136.239 128.698 136.239 131.002C136.239 133.276 135.223 134.997 133.192 136.165C131.191 137.302 128.742 137.87 125.845 137.87C124.829 137.87 123.784 137.809 122.709 137.686ZM122.754 134.044C123.65 134.229 124.591 134.321 125.576 134.321C127.727 134.321 129.533 133.906 130.997 133.077C131.176 132.339 131.266 131.755 131.266 131.325C131.266 130.25 130.893 129.435 130.146 128.882C129.399 128.329 128.369 128.053 127.055 128.053C125.77 128.053 124.605 128.483 123.56 129.343C123.023 130.941 122.754 132.508 122.754 134.044ZM140.017 137.686C140.017 139.898 140.36 141.649 141.047 142.94C141.734 144.199 142.884 144.83 144.497 144.83C146.109 144.83 147.364 144.277 148.26 143.17C149.186 142.033 149.649 140.666 149.649 139.068C150.664 139.068 151.545 139.33 152.292 139.852C153.039 140.374 153.412 141.096 153.412 142.018C153.412 143.923 152.426 145.521 150.455 146.811C148.484 148.071 146.408 148.701 144.228 148.701C140.823 148.701 138.359 147.764 136.836 145.89C135.313 143.985 134.551 141.173 134.551 137.455C134.551 133.737 135.567 130.619 137.597 128.099C139.658 125.549 142.391 124.273 145.796 124.273C148.125 124.273 149.992 124.826 151.396 125.932C152.829 127.008 153.546 128.698 153.546 131.002C153.546 133.276 152.531 134.997 150.5 136.165C148.499 137.302 146.05 137.87 143.153 137.87C142.137 137.87 141.092 137.809 140.017 137.686ZM140.061 134.044C140.957 134.229 141.898 134.321 142.884 134.321C145.034 134.321 146.841 133.906 148.305 133.077C148.484 132.339 148.573 131.755 148.573 131.325C148.573 130.25 148.2 129.435 147.453 128.882C146.707 128.329 145.676 128.053 144.362 128.053C143.078 128.053 141.913 128.483 140.868 129.343C140.33 130.941 140.061 132.508 140.061 134.044Z" fill="black"/>
</svg>
