<svg width="50" height="50" viewBox="0 0 50 50" fill="none" xmlns="http://www.w3.org/2000/svg">
<path d="M15.6 13.4C13.8 13.4 13.3 15.2 13.3 17C13.3 18.8 13.8 20.6 15.6 20.6C17.4 20.6 17.9 18.8 17.9 17C18 15.2 17.4 13.4 15.6 13.4Z" fill="black"/>
<path d="M43.2 1H6.8C6.3 1 5.8 1.4 5.8 2V26.5C5.8 27 6.2 27.5 6.8 27.5H43.2C43.7 27.5 44.2 27.1 44.2 26.5V2C44.1 1.4 43.7 1 43.2 1ZM15.6 21.9C12.8 21.9 11.7 19.7 11.7 16.9C11.7 14.1 12.8 11.9 15.6 11.9C18.4 11.9 19.5 14.1 19.5 16.9C19.5 19.7 18.4 21.9 15.6 21.9ZM20.6 7.7H10.6C10.1 7.7 9.6 7.3 9.6 6.7C9.6 6.2 10 5.7 10.6 5.7H20.6C21.1 5.7 21.6 6.1 21.6 6.7C21.6 7.3 21.2 7.7 20.6 7.7ZM25 20.7C24.3 20.7 23.7 20.1 23.7 19.4C23.7 18.7 24.3 18.1 25 18.1C25.7 18.1 26.3 18.7 26.3 19.4C26.3 20.1 25.7 20.7 25 20.7ZM25 14.4C24.3 14.4 23.7 13.8 23.7 13.1C23.7 12.4 24.3 11.8 25 11.8C25.7 11.8 26.3 12.4 26.3 13.1C26.3 13.8 25.7 14.4 25 14.4ZM37.6 21.7H31V20.3C33.1 18.1 34.6 16.8 35.3 15.8C36.2 14.5 35.5 13.3 34.2 13.3C33.4 13.3 32.8 13.7 32.2 14.5L30.9 13.7C31.9 12.3 32.9 11.8 34.3 11.8C36.8 11.8 38 14.2 36.9 16.1C36.3 17.1 34.9 18.4 33.2 20.1H37.6V21.7ZM39.3 7.7H29.3C28.8 7.7 28.3 7.3 28.3 6.7C28.3 6.2 28.7 5.7 29.3 5.7H39.3C39.8 5.7 40.3 6.1 40.3 6.7C40.2 7.3 39.8 7.7 39.3 7.7Z" fill="black"/>
<path d="M43.2 47.1H26V33.7H30.8C31.2 33.7 31.6 33.4 31.7 33L32.7 29.3H30.7L30 31.8H20L19.3 29.3H17.3L18.3 33C18.4 33.4 18.8 33.7 19.2 33.7H24V47.1H6.8C6.3 47.1 5.8 47.5 5.8 48.1C5.8 48.6 6.2 49.1 6.8 49.1H43.2C43.7 49.1 44.2 48.7 44.2 48.1C44.1 47.5 43.7 47.1 43.2 47.1Z" fill="black"/>
</svg>
