<svg width="48" height="48" viewBox="0 0 48 48" fill="none" xmlns="http://www.w3.org/2000/svg">
<path d="M24 3C18.4305 3 13.089 5.21248 9.1507 9.15074C5.21243 13.089 3 18.4305 3 24C3 29.5695 5.21243 34.911 9.1507 38.8493C13.089 42.7875 18.4305 45 24 45C29.5695 45 34.911 42.7875 38.8493 38.8493C42.7876 34.911 45 29.5695 45 24C45 18.4305 42.7876 13.089 38.8493 9.15074C34.911 5.21248 29.5695 3 24 3V3ZM34.4399 14.349C37.1759 14.271 38.5829 17.592 36.6209 19.5L21 35.121L12.2791 26.4C9.33305 23.574 13.6951 19.212 16.5211 22.158L21 26.637L32.3791 15.258C32.9227 14.6981 33.663 14.372 34.4431 14.349H34.4399Z" fill="#4E9A06"/>
</svg>
