<svg width="600" height="600" viewBox="0 0 600 600" fill="none" xmlns="http://www.w3.org/2000/svg">
<g clip-path="url(#clip0_505_1903)">
<path d="M600 0H0V600H600V0Z" fill="#74ACDF"/>
<path d="M600 200.004H0V400.008H600V200.004Z" fill="white"/>
<path d="M296.546 301.432L327.638 369.171C327.638 369.171 328.173 370.466 329.037 370.109C329.9 369.752 329.363 368.457 329.363 368.457L303.45 298.572M302.707 324.928C302.328 335.23 308.665 340.896 307.836 350.096C307.009 359.296 312.062 364.497 313.234 368.075C314.407 371.653 311.966 373.792 313.018 374.301C314.07 374.811 316.372 371.984 315.622 366.898C314.871 361.811 311.01 360.301 311.918 349.065C312.825 337.828 307.322 335.211 308.661 324.962" fill="#F6B40E"/>
<path d="M296.546 301.432L327.638 369.171C327.638 369.171 328.173 370.466 329.037 370.109C329.9 369.752 329.363 368.457 329.363 368.457L303.45 298.572M302.707 324.928C302.328 335.23 308.665 340.896 307.836 350.096C307.009 359.296 312.062 364.497 313.234 368.075C314.407 371.653 311.966 373.792 313.018 374.301C314.07 374.811 316.372 371.984 315.622 366.898C314.871 361.811 311.01 360.301 311.918 349.065C312.825 337.828 307.322 335.211 308.661 324.962" stroke="#85340A" stroke-width="1.1116"/>
<path d="M296.262 300.001L299.065 374.482C299.065 374.482 299.063 375.883 299.998 375.884C300.932 375.885 300.932 374.483 300.932 374.483L303.734 300.001M292.962 324.067C288.67 333.439 292.356 341.099 288.07 349.281C283.785 357.465 286.463 364.204 286.176 367.958C285.89 371.712 282.817 372.755 283.593 373.627C284.371 374.501 287.58 372.77 288.833 367.784C290.086 362.797 287.097 359.925 292.235 349.891C297.373 339.857 293.29 335.333 298.45 326.376" fill="#F6B40E"/>
<path d="M296.262 300.001L299.065 374.482C299.065 374.482 299.063 375.883 299.998 375.884C300.932 375.885 300.932 374.483 300.932 374.483L303.734 300.001M292.962 324.067C288.67 333.439 292.356 341.099 288.07 349.281C283.785 357.465 286.463 364.204 286.176 367.958C285.89 371.712 282.817 372.755 283.593 373.627C284.371 374.501 287.58 372.77 288.833 367.784C290.086 362.797 287.097 359.925 292.235 349.891C297.373 339.857 293.29 335.333 298.45 326.376" stroke="#85340A" stroke-width="1.1116"/>
<path d="M296.545 298.571L270.632 368.455C270.632 368.455 270.095 369.749 270.957 370.107C271.82 370.465 272.356 369.17 272.356 369.17L303.449 301.43M284.287 319.542C276.735 326.558 277.209 335.045 270.118 340.964C263.027 346.885 262.923 354.136 261.221 357.494C259.521 360.854 256.282 360.641 256.666 361.744C257.05 362.849 260.676 362.478 263.742 358.351C266.808 354.223 265.146 350.425 273.733 343.122C282.32 335.818 280.279 330.076 288.474 323.776" fill="#F6B40E"/>
<path d="M296.545 298.571L270.632 368.455C270.632 368.455 270.095 369.749 270.957 370.107C271.82 370.465 272.356 369.17 272.356 369.17L303.449 301.43M284.287 319.542C276.735 326.558 277.209 335.045 270.118 340.964C263.027 346.885 262.923 354.136 261.221 357.494C259.521 360.854 256.282 360.641 256.666 361.744C257.05 362.849 260.676 362.478 263.742 358.351C266.808 354.223 265.146 350.425 273.733 343.122C282.32 335.818 280.279 330.076 288.474 323.776" stroke="#85340A" stroke-width="1.1116"/>
<path d="M297.356 297.358L246.671 352.006C246.671 352.006 245.68 352.996 246.34 353.657C247 354.318 247.991 353.327 247.991 353.327L302.639 302.642M278.005 312.041C268.343 315.634 265.533 323.656 256.717 326.411C247.9 329.168 245.028 335.827 242.171 338.278C239.315 340.731 236.404 339.295 236.336 340.461C236.268 341.629 239.761 342.674 244.173 340.034C248.585 337.394 248.502 333.249 259.231 329.788C269.959 326.326 270.271 320.24 280.253 317.555" fill="#F6B40E"/>
<path d="M297.356 297.358L246.671 352.006C246.671 352.006 245.68 352.996 246.34 353.657C247 354.318 247.991 353.327 247.991 353.327L302.639 302.642M278.005 312.041C268.343 315.634 265.533 323.656 256.717 326.411C247.9 329.168 245.028 335.827 242.171 338.278C239.315 340.731 236.404 339.295 236.336 340.461C236.268 341.629 239.761 342.674 244.173 340.034C248.585 337.394 248.502 333.249 259.231 329.788C269.959 326.326 270.271 320.24 280.253 317.555" stroke="#85340A" stroke-width="1.1116"/>
<path d="M304.709 326.673C305.204 336.566 310.814 340.947 309.712 349.963C312.131 342.833 306.299 337.306 306.631 326.776M298.273 300.816L319.567 347.34L301.724 299.385" fill="#85340A"/>
<path d="M294.144 326.445C290.815 335.775 294.321 341.969 289.853 349.877C294.816 344.216 291.544 336.878 295.88 327.276M298.092 300.094L299.961 351.225L301.828 300.092" fill="#85340A"/>
<path d="M284.47 322.191C277.824 329.537 278.693 336.601 271.539 342.198C278.291 338.866 278.075 330.835 285.756 323.623M298.202 299.357L280.361 347.311L301.654 300.785" fill="#85340A"/>
<path d="M277.16 314.559C268.209 318.802 266.308 325.661 257.557 328.094C265.07 327.6 267.945 320.097 277.8 316.374M298.585 298.718L263.751 336.194L301.228 301.358" fill="#85340A"/>
<path d="M298.568 296.547L230.829 327.639C230.829 327.639 229.534 328.174 229.891 329.038C230.248 329.901 231.543 329.364 231.543 329.364L301.428 303.451M275.072 302.708C264.77 302.329 259.104 308.666 249.904 307.837C240.704 307.01 235.503 312.063 231.925 313.235C228.347 314.408 226.208 311.967 225.699 313.018C225.189 314.071 228.016 316.373 233.102 315.623C238.189 314.872 239.699 311.011 250.935 311.919C262.172 312.826 264.789 307.323 275.038 308.662" fill="#F6B40E"/>
<path d="M298.568 296.547L230.829 327.639C230.829 327.639 229.534 328.174 229.891 329.038C230.248 329.901 231.543 329.364 231.543 329.364L301.428 303.451M275.072 302.708C264.77 302.329 259.104 308.666 249.904 307.837C240.704 307.01 235.503 312.063 231.925 313.235C228.347 314.408 226.208 311.967 225.699 313.018C225.189 314.071 228.016 316.373 233.102 315.623C238.189 314.872 239.699 311.011 250.935 311.919C262.172 312.826 264.789 307.323 275.038 308.662" stroke="#85340A" stroke-width="1.1116"/>
<path d="M299.998 296.263L225.517 299.065C225.517 299.065 224.116 299.064 224.115 299.998C224.114 300.933 225.516 300.932 225.516 300.932L299.998 303.735M275.933 292.962C266.56 288.67 258.9 292.356 250.718 288.07C242.535 283.785 235.796 286.463 232.042 286.177C228.288 285.891 227.245 282.818 226.372 283.594C225.499 284.372 227.229 287.58 232.216 288.833C237.202 290.086 240.075 287.097 250.109 292.236C260.143 297.373 264.666 293.291 273.623 298.451" fill="#F6B40E"/>
<path d="M299.998 296.263L225.517 299.065C225.517 299.065 224.116 299.064 224.115 299.998C224.114 300.933 225.516 300.932 225.516 300.932L299.998 303.735M275.933 292.962C266.56 288.67 258.9 292.356 250.718 288.07C242.535 283.785 235.796 286.463 232.042 286.177C228.288 285.891 227.245 282.818 226.372 283.594C225.499 284.372 227.229 287.58 232.216 288.833C237.202 290.086 240.075 287.097 250.109 292.236C260.143 297.373 264.666 293.291 273.623 298.451" stroke="#85340A" stroke-width="1.1116"/>
<path d="M301.429 296.547L231.545 270.633C231.545 270.633 230.251 270.096 229.893 270.959C229.535 271.822 230.83 272.358 230.83 272.358L298.57 303.45M280.458 284.288C273.442 276.736 264.955 277.211 259.036 270.12C253.115 263.029 245.864 262.924 242.506 261.223C239.146 259.522 239.359 256.284 238.256 256.667C237.151 257.051 237.522 260.678 241.649 263.744C245.777 266.81 249.575 265.147 256.878 273.734C264.182 282.321 269.924 280.28 276.224 288.475" fill="#F6B40E"/>
<path d="M301.429 296.547L231.545 270.633C231.545 270.633 230.251 270.096 229.893 270.959C229.535 271.822 230.83 272.358 230.83 272.358L298.57 303.45M280.458 284.288C273.442 276.736 264.955 277.211 259.036 270.12C253.115 263.029 245.864 262.924 242.506 261.223C239.146 259.522 239.359 256.284 238.256 256.667C237.151 257.051 237.522 260.678 241.649 263.744C245.777 266.81 249.575 265.147 256.878 273.734C264.182 282.321 269.924 280.28 276.224 288.475" stroke="#85340A" stroke-width="1.1116"/>
<path d="M302.642 297.357L247.994 246.672C247.994 246.672 247.004 245.681 246.343 246.341C245.682 247.001 246.673 247.992 246.673 247.992L297.358 302.64M287.959 278.006C284.366 268.344 276.344 265.534 273.589 256.718C270.832 247.901 264.173 245.029 261.722 242.172C259.269 239.316 260.705 236.405 259.539 236.337C258.371 236.269 257.326 239.762 259.966 244.174C262.606 248.586 266.751 248.503 270.212 259.232C273.674 269.96 279.76 270.272 282.445 280.254" fill="#F6B40E"/>
<path d="M302.642 297.357L247.994 246.672C247.994 246.672 247.004 245.681 246.343 246.341C245.682 247.001 246.673 247.992 246.673 247.992L297.358 302.64M287.959 278.006C284.366 268.344 276.344 265.534 273.589 256.718C270.832 247.901 264.173 245.029 261.722 242.172C259.269 239.316 260.705 236.405 259.539 236.337C258.371 236.269 257.326 239.762 259.966 244.174C262.606 248.586 266.751 248.503 270.212 259.232C273.674 269.96 279.76 270.272 282.445 280.254" stroke="#85340A" stroke-width="1.1116"/>
<path d="M273.327 304.71C263.433 305.205 259.053 310.815 250.037 309.713C257.166 312.132 262.693 306.3 273.224 306.632M299.183 298.274L252.659 319.567L300.615 301.725" fill="#85340A"/>
<path d="M273.555 294.144C264.225 290.816 258.031 294.322 250.123 289.854C255.784 294.817 263.122 291.544 272.724 295.88M299.906 298.093L248.775 299.961L299.908 301.829" fill="#85340A"/>
<path d="M277.809 284.47C270.463 277.825 263.399 278.694 257.802 271.539C261.134 278.291 269.165 278.076 276.377 285.756M300.643 298.203L252.689 280.362L299.215 301.655" fill="#85340A"/>
<path d="M285.441 277.16C281.198 268.209 274.339 266.308 271.906 257.557C272.4 265.07 279.903 267.945 283.626 277.8M301.282 298.585L263.806 263.751L298.642 301.228" fill="#85340A"/>
<path d="M303.453 298.568L272.361 230.829C272.361 230.829 271.826 229.534 270.963 229.891C270.099 230.248 270.636 231.543 270.636 231.543L296.55 301.428M297.293 275.072C297.671 264.77 291.335 259.104 292.163 249.904C292.99 240.704 287.937 235.503 286.766 231.925C285.593 228.347 288.033 226.208 286.982 225.699C285.929 225.189 283.627 228.016 284.378 233.102C285.128 238.189 288.989 239.699 288.082 250.935C287.175 262.172 292.678 264.789 291.338 275.038" fill="#F6B40E"/>
<path d="M303.453 298.568L272.361 230.829C272.361 230.829 271.826 229.534 270.963 229.891C270.099 230.248 270.636 231.543 270.636 231.543L296.55 301.428M297.293 275.072C297.671 264.77 291.335 259.104 292.163 249.904C292.99 240.704 287.937 235.503 286.766 231.925C285.593 228.347 288.033 226.208 286.982 225.699C285.929 225.189 283.627 228.016 284.378 233.102C285.128 238.189 288.989 239.699 288.082 250.935C287.175 262.172 292.678 264.789 291.338 275.038" stroke="#85340A" stroke-width="1.1116"/>
<path d="M303.737 299.999L300.935 225.518C300.935 225.518 300.936 224.117 300.002 224.116C299.067 224.115 299.068 225.517 299.068 225.517L296.265 299.999M307.038 275.933C311.33 266.561 307.644 258.901 311.93 250.719C316.215 242.535 313.537 235.796 313.823 232.042C314.109 228.288 317.182 227.245 316.406 226.373C315.628 225.499 312.42 227.23 311.167 232.216C309.914 237.203 312.903 240.075 307.764 250.109C302.627 260.143 306.709 264.667 301.549 273.624" fill="#F6B40E"/>
<path d="M303.737 299.999L300.935 225.518C300.935 225.518 300.936 224.117 300.002 224.116C299.067 224.115 299.068 225.517 299.068 225.517L296.265 299.999M307.038 275.933C311.33 266.561 307.644 258.901 311.93 250.719C316.215 242.535 313.537 235.796 313.823 232.042C314.109 228.288 317.182 227.245 316.406 226.373C315.628 225.499 312.42 227.23 311.167 232.216C309.914 237.203 312.903 240.075 307.764 250.109C302.627 260.143 306.709 264.667 301.549 273.624" stroke="#85340A" stroke-width="1.1116"/>
<path d="M303.454 301.429L329.368 231.545C329.368 231.545 329.905 230.251 329.042 229.893C328.179 229.535 327.643 230.83 327.643 230.83L296.551 298.57M315.713 280.458C323.265 273.442 322.79 264.955 329.881 259.036C336.972 253.115 337.077 245.864 338.778 242.506C340.479 239.146 343.717 239.359 343.334 238.256C342.95 237.151 339.323 237.522 336.257 241.649C333.191 245.777 334.854 249.575 326.267 256.878C317.68 264.182 319.721 269.924 311.526 276.224" fill="#F6B40E"/>
<path d="M303.454 301.429L329.368 231.545C329.368 231.545 329.905 230.251 329.042 229.893C328.179 229.535 327.643 230.83 327.643 230.83L296.551 298.57M315.713 280.458C323.265 273.442 322.79 264.955 329.881 259.036C336.972 253.115 337.077 245.864 338.778 242.506C340.479 239.146 343.717 239.359 343.334 238.256C342.95 237.151 339.323 237.522 336.257 241.649C333.191 245.777 334.854 249.575 326.267 256.878C317.68 264.182 319.721 269.924 311.526 276.224" stroke="#85340A" stroke-width="1.1116"/>
<path d="M302.644 302.642L353.328 247.994C353.328 247.994 354.32 247.004 353.66 246.343C353 245.682 352.009 246.673 352.009 246.673L297.36 297.358M321.994 287.959C331.657 284.366 334.466 276.344 343.283 273.589C352.1 270.832 354.971 264.173 357.828 261.722C360.685 259.269 363.595 260.705 363.663 259.539C363.731 258.371 360.239 257.326 355.827 259.966C351.414 262.606 351.497 266.751 340.769 270.212C330.04 273.674 329.729 279.76 319.746 282.445" fill="#F6B40E"/>
<path d="M302.644 302.642L353.328 247.994C353.328 247.994 354.32 247.004 353.66 246.343C353 245.682 352.009 246.673 352.009 246.673L297.36 297.358M321.994 287.959C331.657 284.366 334.466 276.344 343.283 273.589C352.1 270.832 354.971 264.173 357.828 261.722C360.685 259.269 363.595 260.705 363.663 259.539C363.731 258.371 360.239 257.326 355.827 259.966C351.414 262.606 351.497 266.751 340.769 270.212C330.04 273.674 329.729 279.76 319.746 282.445" stroke="#85340A" stroke-width="1.1116"/>
<path d="M295.291 273.327C294.795 263.434 289.186 259.053 290.287 250.037C287.869 257.167 293.7 262.694 293.369 273.224M301.727 299.184L280.433 252.66L298.276 300.615" fill="#85340A"/>
<path d="M305.856 273.555C309.184 264.225 305.678 258.031 310.146 250.123C305.183 255.784 308.456 263.122 304.12 272.724M301.907 299.906L300.039 248.775L298.171 299.908" fill="#85340A"/>
<path d="M315.53 277.809C322.175 270.463 321.306 263.399 328.461 257.802C321.709 261.134 321.924 269.165 314.244 276.377M301.797 300.643L319.638 252.689L298.345 299.215" fill="#85340A"/>
<path d="M322.84 285.441C331.79 281.198 333.691 274.339 342.442 271.906C334.93 272.4 332.055 279.903 322.199 283.626M301.414 301.282L336.248 263.806L298.771 298.642" fill="#85340A"/>
<path d="M301.43 303.453L369.169 272.361C369.169 272.361 370.464 271.826 370.108 270.962C369.751 270.099 368.456 270.636 368.456 270.636L298.571 296.549M324.927 297.292C335.229 297.671 340.895 291.334 350.094 292.163C359.295 292.99 364.496 287.937 368.073 286.765C371.651 285.592 373.791 288.033 374.3 286.982C374.809 285.929 371.983 283.627 366.896 284.377C361.81 285.128 360.3 288.989 349.063 288.081C337.827 287.174 335.21 292.677 324.96 291.338" fill="#F6B40E"/>
<path d="M301.43 303.453L369.169 272.361C369.169 272.361 370.464 271.826 370.108 270.962C369.751 270.099 368.456 270.636 368.456 270.636L298.571 296.549M324.927 297.292C335.229 297.671 340.895 291.334 350.094 292.163C359.295 292.99 364.496 287.937 368.073 286.765C371.651 285.592 373.791 288.033 374.3 286.982C374.809 285.929 371.983 283.627 366.896 284.377C361.81 285.128 360.3 288.989 349.063 288.081C337.827 287.174 335.21 292.677 324.96 291.338" stroke="#85340A" stroke-width="1.1116"/>
<path d="M300 303.737L374.481 300.935C374.481 300.935 375.882 300.936 375.883 300.002C375.884 299.067 374.482 299.068 374.482 299.068L300 296.265M324.066 307.038C333.438 311.33 341.098 307.644 349.28 311.93C357.464 316.215 364.203 313.537 367.957 313.823C371.711 314.109 372.754 317.182 373.626 316.406C374.5 315.628 372.769 312.42 367.783 311.167C362.796 309.914 359.924 312.903 349.89 307.764C339.856 302.627 335.332 306.709 326.375 301.549" fill="#F6B40E"/>
<path d="M300 303.737L374.481 300.935C374.481 300.935 375.882 300.936 375.883 300.002C375.884 299.067 374.482 299.068 374.482 299.068L300 296.265M324.066 307.038C333.438 311.33 341.098 307.644 349.28 311.93C357.464 316.215 364.203 313.537 367.957 313.823C371.711 314.109 372.754 317.182 373.626 316.406C374.5 315.628 372.769 312.42 367.783 311.167C362.796 309.914 359.924 312.903 349.89 307.764C339.856 302.627 335.332 306.709 326.375 301.549" stroke="#85340A" stroke-width="1.1116"/>
<path d="M298.57 303.454L368.454 329.367C368.454 329.367 369.748 329.904 370.106 329.042C370.464 328.179 369.169 327.643 369.169 327.643L301.429 296.55M319.541 315.712C326.557 323.264 335.044 322.79 340.964 329.881C346.884 336.972 354.135 337.076 357.494 338.778C360.853 340.478 360.64 343.717 361.743 343.333C362.848 342.949 362.477 339.323 358.35 336.257C354.222 333.191 350.424 334.853 343.121 326.266C335.817 317.679 330.075 319.72 323.775 311.525" fill="#F6B40E"/>
<path d="M298.57 303.454L368.454 329.367C368.454 329.367 369.748 329.904 370.106 329.042C370.464 328.179 369.169 327.643 369.169 327.643L301.429 296.55M319.541 315.712C326.557 323.264 335.044 322.79 340.964 329.881C346.884 336.972 354.135 337.076 357.494 338.778C360.853 340.478 360.64 343.717 361.743 343.333C362.848 342.949 362.477 339.323 358.35 336.257C354.222 333.191 350.424 334.853 343.121 326.266C335.817 317.679 330.075 319.72 323.775 311.525" stroke="#85340A" stroke-width="1.1116"/>
<path d="M297.357 302.643L352.005 353.328C352.005 353.328 352.995 354.319 353.656 353.659C354.317 352.999 353.326 352.008 353.326 352.008L302.641 297.36M312.04 321.994C315.633 331.656 323.655 334.466 326.41 343.282C329.167 352.099 335.826 354.971 338.277 357.828C340.73 360.684 339.294 363.595 340.46 363.663C341.628 363.731 342.673 360.238 340.033 355.826C337.393 351.414 333.248 351.497 329.787 340.768C326.325 330.04 320.239 329.728 317.554 319.746" fill="#F6B40E"/>
<path d="M297.357 302.643L352.005 353.328C352.005 353.328 352.995 354.319 353.656 353.659C354.317 352.999 353.326 352.008 353.326 352.008L302.641 297.36M312.04 321.994C315.633 331.656 323.655 334.466 326.41 343.282C329.167 352.099 335.826 354.971 338.277 357.828C340.73 360.684 339.294 363.595 340.46 363.663C341.628 363.731 342.673 360.238 340.033 355.826C337.393 351.414 333.248 351.497 329.787 340.768C326.325 330.04 320.239 329.728 317.554 319.746" stroke="#85340A" stroke-width="1.1116"/>
<path d="M326.672 295.29C336.565 294.795 340.946 289.185 349.962 290.287C342.832 287.868 337.305 293.7 326.775 293.368M300.815 301.726L347.339 280.433L299.384 298.275" fill="#85340A"/>
<path d="M326.444 305.856C335.774 309.184 341.968 305.678 349.876 310.146C344.215 305.183 336.877 308.456 327.275 304.12M300.093 301.907L351.224 300.039L300.091 298.171" fill="#85340A"/>
<path d="M322.19 315.53C329.536 322.175 336.6 321.306 342.197 328.461C338.865 321.709 330.834 321.924 323.622 314.244M299.356 301.797L347.31 319.638L300.784 298.345" fill="#85340A"/>
<path d="M314.557 322.84C318.801 331.791 325.66 333.692 328.092 342.443C327.598 334.93 320.096 332.055 316.372 322.2M298.716 301.415L336.193 336.249L301.357 298.772" fill="#85340A"/>
<path d="M299.999 330.353C316.763 330.353 330.352 316.764 330.352 300C330.352 283.237 316.763 269.647 299.999 269.647C283.236 269.647 269.646 283.237 269.646 300C269.646 316.764 283.236 330.353 299.999 330.353Z" fill="#F6B40E" stroke="#85340A" stroke-width="1.5"/>
<path d="M310.347 293.51C308.274 293.51 306.29 294.408 305.123 296.276C307.457 298.377 312.615 298.605 316.117 296.037C314.6 294.403 312.419 293.51 310.347 293.51L310.347 293.51ZM310.313 293.988C312.33 293.951 314.216 294.878 314.479 295.798C312.144 298.366 308.413 298.143 306.079 296.276C307.1 294.641 308.744 294.016 310.313 293.988V293.988Z" fill="#843511"/>
<path d="M310.741 292.067C307.707 292.067 307.005 292.768 305.604 293.935C304.202 295.103 303.503 294.869 303.27 295.103C303.037 295.337 303.27 296.036 303.736 295.802C304.202 295.568 305.138 295.103 306.537 293.935C307.939 292.766 309.338 292.768 310.739 292.768C314.942 292.768 317.277 296.269 317.743 296.036C318.209 295.802 315.408 292.066 310.739 292.066L310.741 292.067Z" fill="#85340A"/>
<path d="M319.143 293.466C313.773 288.797 307.003 288.095 303.266 291.599C302.351 292.823 301.765 294.133 301.525 295.499C301.055 298.158 301.886 301.03 303.969 303.974C303.734 303.973 303.266 304.206 303.033 304.44C301.179 300.896 300.523 297.255 301.131 293.791C301.291 292.887 301.54 291.996 301.863 291.13C307 286.928 314.003 286.461 319.14 293.466L319.143 293.466Z" fill="#85340A"/>
<path d="M310.273 297.894C311.433 297.894 312.374 296.954 312.374 295.793C312.374 294.633 311.433 293.692 310.273 293.692C309.112 293.692 308.171 294.633 308.171 295.793C308.171 296.954 309.112 297.894 310.273 297.894Z" fill="#85340A"/>
<path d="M316.346 297.202C312.377 300.238 308.408 300.005 306.073 298.603C303.738 297.202 303.738 296.736 304.204 296.736C304.671 296.736 305.137 297.202 307.005 298.136C308.874 299.071 311.674 299.071 316.344 297.203L316.346 297.202Z" fill="#85340A"/>
<path d="M295.355 304.196C294.357 304.378 293.648 305.264 293.648 306.279C293.648 307.439 294.607 308.362 295.765 308.362C296.45 308.362 297.079 308.037 297.472 307.474C298.28 308.082 299.401 308.146 299.999 308.157C300.091 308.159 300.21 308.157 300.272 308.157C300.871 308.146 301.991 308.081 302.799 307.474C303.193 308.037 303.822 308.362 304.507 308.362C305.665 308.362 306.624 307.438 306.624 306.279C306.624 305.264 305.914 304.378 304.916 304.196C305.477 304.393 305.838 304.935 305.838 305.528C305.838 306.301 305.214 306.928 304.438 306.928C303.695 306.928 303.082 306.337 303.038 305.596C302.811 306.051 301.909 307.404 300.136 307.474C298.363 307.404 297.462 306.051 297.234 305.596C297.19 306.337 296.577 306.928 295.834 306.928C295.058 306.928 294.434 306.301 294.434 305.528C294.434 304.935 294.795 304.394 295.356 304.196H295.355Z" fill="#85340A"/>
<path d="M297.639 310.414C295.303 310.414 294.379 312.53 292.278 313.931C293.446 313.465 294.364 312.544 296 311.609C297.634 310.675 299.028 311.814 299.961 311.814H299.995C300.927 311.814 302.321 310.676 303.956 311.609C305.591 312.544 306.544 313.465 307.712 313.931C305.611 312.53 304.653 310.414 302.317 310.414C301.851 310.414 300.927 310.665 299.995 311.131H299.961C299.028 310.665 298.105 310.414 297.639 310.414Z" fill="#85340A"/>
<path d="M296.853 313.178C295.931 313.219 294.711 313.404 292.96 313.93C297.164 312.996 298.092 314.408 299.96 314.408H299.994C301.863 314.408 302.79 312.996 306.994 313.93C302.324 312.529 301.395 313.452 299.994 313.452H299.96C299.085 313.452 298.39 313.11 296.853 313.178H296.853Z" fill="#85340A"/>
<path d="M293.17 313.899C292.899 313.903 292.603 313.905 292.282 313.934C297.186 314.401 294.829 317.212 299.965 317.212H299.999C305.136 317.212 302.813 314.401 307.717 313.934C302.58 313.467 304.204 316.495 299.999 316.495H299.965C296.023 316.495 297.238 313.849 293.17 313.899H293.17Z" fill="#85340A"/>
<path d="M304.206 321.483C304.206 319.163 302.323 317.28 300.003 317.28C297.683 317.28 295.8 319.163 295.8 321.483C296.263 319.537 298.004 318.162 300.003 318.162C302.006 318.162 303.745 319.537 304.206 321.483Z" fill="#85340A"/>
<path d="M281.129 293.466C286.499 288.797 293.269 288.095 297.006 291.599C297.921 292.823 298.507 294.133 298.747 295.499C299.217 298.158 298.386 301.03 296.303 303.974C296.538 303.973 297.006 304.206 297.239 304.44C299.093 300.896 299.749 297.255 299.141 293.791C298.981 292.887 298.732 291.996 298.409 291.13C293.272 286.928 286.269 286.461 281.132 293.466L281.129 293.466Z" fill="#85340A"/>
<path d="M289.532 292.067C292.566 292.067 293.267 292.768 294.668 293.935C296.07 295.103 296.77 294.869 297.003 295.103C297.235 295.337 297.003 296.036 296.537 295.802C296.071 295.568 295.135 295.103 293.736 293.935C292.334 292.766 290.935 292.768 289.533 292.768C285.33 292.768 282.995 296.269 282.529 296.036C282.063 295.802 284.864 292.066 289.533 292.066L289.532 292.067Z" fill="#85340A"/>
<path d="M289.388 293.51C287.315 293.51 285.331 294.408 284.164 296.276C286.498 298.377 291.656 298.605 295.158 296.037C293.641 294.403 291.46 293.51 289.388 293.51L289.388 293.51ZM289.354 293.988C291.371 293.951 293.257 294.878 293.52 295.798C291.185 298.366 287.454 298.143 285.12 296.276C286.141 294.641 287.785 294.016 289.354 293.988V293.988Z" fill="#843511"/>
<path d="M289.663 297.894C290.823 297.894 291.764 296.954 291.764 295.793C291.764 294.633 290.823 293.692 289.663 293.692C288.502 293.692 287.562 294.633 287.562 295.793C287.562 296.954 288.502 297.894 289.663 297.894Z" fill="#85340A"/>
<path d="M283.926 297.202C287.895 300.238 291.864 300.005 294.199 298.603C296.534 297.202 296.534 296.736 296.068 296.736C295.601 296.736 295.135 297.202 293.267 298.136C291.398 299.071 288.598 299.071 283.928 297.203L283.926 297.202Z" fill="#85340A"/>
</g>
<defs>
<clipPath id="clip0_505_1903">
<rect width="600" height="600" rx="300" fill="white"/>
</clipPath>
</defs>
</svg>
