<svg width="600" height="600" viewBox="0 0 600 600" fill="none" xmlns="http://www.w3.org/2000/svg">
<g clip-path="url(#clip0_505_1958)">
<path d="M600 0H0V600H600V0Z" fill="#00008B"/>
<path d="M-176 -16L338 241ZM338 -16L-176 241Z" fill="black"/>
<path d="M-176 -16L338 241M338 -16L-176 241" stroke="white" stroke-width="42.688"/>
<path d="M-176 -16L338 241ZM338 -16L-176 241Z" fill="black"/>
<path d="M-176 -16L338 241M338 -16L-176 241" stroke="#FF0000" stroke-width="28.4609"/>
<path d="M81 -16V241ZM-176 112.5H338Z" fill="black"/>
<path d="M81 -16V241M-176 112.5H338" stroke="white" stroke-width="71.1489"/>
<path d="M81 -16V241ZM-176 112.5H338Z" fill="black"/>
<path d="M81 -16V241M-176 112.5H338" stroke="#FF0000" stroke-width="42.688"/>
<path d="M79.8917 268.289L91.5402 304.153L127.119 290.81L106.066 322.19L138.783 341.416L100.882 344.681L106.101 381.998L79.8917 354.691L53.6824 381.998L58.9017 344.681L21 341.416L53.7176 322.19L32.6642 290.81L68.2431 304.153L79.8917 268.289Z" fill="white"/>
<path d="M482.599 332.853L488.146 349.931L505.089 343.577L495.063 358.52L510.643 367.675L492.595 369.23L495.08 387L482.599 373.996L470.119 387L472.604 369.23L454.556 367.675L470.135 358.52L460.11 343.577L477.052 349.931L482.599 332.853Z" fill="white"/>
<path d="M381.923 175.002L387.469 192.081L404.412 185.727L394.386 200.67L409.966 209.825L391.918 211.38L394.403 229.15L381.923 216.146L369.442 229.15L371.927 211.38L353.879 209.825L369.459 200.67L359.433 185.727L376.376 192.081L381.923 175.002Z" fill="white"/>
<path d="M482.599 67L488.146 84.0783L505.089 77.7246L495.063 92.6672L510.643 101.823L492.595 103.377L495.08 121.148L482.599 108.144L470.119 121.148L472.604 103.377L454.556 101.823L470.135 92.6672L460.11 77.7246L477.052 84.0783L482.599 67Z" fill="white"/>
<path d="M572.09 148.417L577.637 165.495L594.579 159.142L584.554 174.084L600.134 183.24L582.085 184.794L584.571 202.565L572.09 189.561L559.609 202.565L562.095 184.794L544.046 183.24L559.626 174.084L549.601 159.142L566.543 165.495L572.09 148.417Z" fill="white"/>
<path d="M522.87 228.411L527.254 239.052L538.829 239.892L529.963 247.308L532.733 258.469L522.87 252.411L513.008 258.469L515.778 247.308L506.912 239.892L518.487 239.052L522.87 228.411Z" fill="white"/>
</g>
<defs>
<clipPath id="clip0_505_1958">
<rect width="600" height="600" rx="300" fill="white"/>
</clipPath>
</defs>
</svg>
