<svg width="600" height="600" viewBox="0 0 600 600" fill="none" xmlns="http://www.w3.org/2000/svg">
<g clip-path="url(#clip0_505_1778)">
<path fill-rule="evenodd" clip-rule="evenodd" d="M600 0V600H0V0H600Z" fill="#009C37"/>
<path fill-rule="evenodd" clip-rule="evenodd" d="M257.312 360.152L258.335 364.152L254.846 361.944L251.358 364.152L252.381 360.152L249.202 357.516L253.323 357.253L254.846 353.415L256.371 357.253L260.491 357.516L257.312 360.152Z" fill="white"/>
<path fill-rule="evenodd" clip-rule="evenodd" d="M224.117 328.028L225.14 332.031L221.651 329.82L218.163 332.031L219.185 328.028L216.007 325.395L220.127 325.131L221.651 321.294L223.175 325.131L227.295 325.395L224.117 328.028Z" fill="white"/>
<path fill-rule="evenodd" clip-rule="evenodd" d="M215.364 283.822L216.386 287.822L212.898 285.613L209.41 287.822L210.432 283.822L207.253 281.187L211.375 280.923L212.898 277.085L214.421 280.923L218.543 281.187L215.364 283.822Z" fill="white"/>
<path d="M552 300.235L299.5 461.47L47 300.235L299.5 139L552 300.235Z" fill="#FEE000"/>
<path d="M299.5 193.759C358.295 193.759 405.976 241.439 405.976 300.235C405.976 359.032 358.295 406.711 299.5 406.711C240.704 406.711 193.024 359.031 193.024 300.235C193.024 241.44 240.704 193.759 299.5 193.759V193.759Z" fill="#002277"/>
<path fill-rule="evenodd" clip-rule="evenodd" d="M334.513 264.1L335.536 268.1L332.049 265.891L328.56 268.1L329.584 264.1L326.404 261.465L330.526 261.201L332.049 257.363L333.571 261.201L337.692 261.465L334.513 264.1Z" fill="white"/>
<path fill-rule="evenodd" clip-rule="evenodd" d="M326.229 294.504L326.963 297.381L324.455 295.793L321.944 297.381L322.682 294.504L320.394 292.609L323.358 292.42L324.455 289.659L325.55 292.42L328.515 292.609L326.229 294.504Z" fill="white"/>
<path fill-rule="evenodd" clip-rule="evenodd" d="M215.363 283.822L216.386 287.822L212.899 285.613L209.41 287.822L210.434 283.822L207.254 281.187L211.376 280.923L212.899 277.085L214.421 280.923L218.542 281.187L215.363 283.822Z" fill="white"/>
<path fill-rule="evenodd" clip-rule="evenodd" d="M260.034 305.43L260.898 308.806L257.953 306.943L255.01 308.806L255.873 305.43L253.19 303.205L256.668 302.983L257.953 299.746L259.24 302.983L262.717 303.205L260.034 305.43Z" fill="white"/>
<path fill-rule="evenodd" clip-rule="evenodd" d="M232.733 320.634L233.283 322.786L231.406 321.598L229.53 322.786L230.08 320.634L228.37 319.217L230.586 319.075L231.406 317.01L232.226 319.075L234.443 319.217L232.733 320.634Z" fill="white"/>
<path fill-rule="evenodd" clip-rule="evenodd" d="M224.116 328.031L225.139 332.031L221.652 329.822L218.163 332.031L219.187 328.031L216.007 325.396L220.129 325.132L221.652 321.294L223.174 325.132L227.295 325.396L224.116 328.031Z" fill="white"/>
<path fill-rule="evenodd" clip-rule="evenodd" d="M212.581 337.08L213.444 340.455L210.5 338.592L207.556 340.455L208.419 337.08L205.737 334.857L209.213 334.634L210.5 331.394L211.786 334.634L215.263 334.857L212.581 337.08Z" fill="white"/>
<path fill-rule="evenodd" clip-rule="evenodd" d="M245.26 337.909L246.123 341.286L243.18 339.421L240.237 341.286L241.099 337.909L238.417 335.685L241.895 335.463L243.18 332.224L244.466 335.463L247.942 335.685L245.26 337.909Z" fill="white"/>
<path fill-rule="evenodd" clip-rule="evenodd" d="M241.104 349.009L241.839 351.886L239.329 350.297L236.82 351.886L237.555 349.009L235.27 347.114L238.234 346.925L239.329 344.162L240.425 346.925L243.389 347.114L241.104 349.009Z" fill="white"/>
<path fill-rule="evenodd" clip-rule="evenodd" d="M257.311 360.152L258.334 364.152L254.847 361.943L251.358 364.152L252.382 360.152L249.202 357.517L253.324 357.253L254.847 353.415L256.369 357.253L260.49 357.517L257.311 360.152Z" fill="white"/>
<path fill-rule="evenodd" clip-rule="evenodd" d="M300.976 385.209L301.371 386.746L300.03 385.897L298.69 386.746L299.083 385.209L297.863 384.198L299.445 384.095L300.03 382.621L300.616 384.095L302.199 384.198L300.976 385.209Z" fill="white"/>
<path fill-rule="evenodd" clip-rule="evenodd" d="M302.385 319.732L303.247 323.108L300.303 321.244L297.359 323.108L298.222 319.732L295.54 317.508L299.017 317.285L300.303 314.047L301.59 317.285L305.066 317.508L302.385 319.732Z" fill="white"/>
<path fill-rule="evenodd" clip-rule="evenodd" d="M312.122 328.842L312.986 332.219L310.043 330.353L307.099 332.219L307.961 328.842L305.279 326.62L308.755 326.397L310.043 323.159L311.329 326.397L314.806 326.62L312.122 328.842Z" fill="white"/>
<path fill-rule="evenodd" clip-rule="evenodd" d="M294.646 335.451L295.197 337.603L293.32 336.416L291.444 337.603L291.993 335.451L290.283 334.034L292.5 333.893L293.32 331.827L294.14 333.893L296.357 334.034L294.646 335.451Z" fill="white"/>
<path fill-rule="evenodd" clip-rule="evenodd" d="M287.327 329.96L288.062 332.837L285.553 331.248L283.044 332.837L283.779 329.96L281.493 328.062L284.457 327.874L285.553 325.113L286.649 327.874L289.613 328.062L287.327 329.96Z" fill="white"/>
<path fill-rule="evenodd" clip-rule="evenodd" d="M302.148 350.928L303.171 354.928L299.684 352.719L296.195 354.928L297.218 350.928L294.039 348.293L298.161 348.029L299.684 344.191L301.205 348.029L305.327 348.293L302.148 350.928Z" fill="white"/>
<path fill-rule="evenodd" clip-rule="evenodd" d="M323.41 361.512L324.144 364.391L321.636 362.802L319.127 364.391L319.862 361.512L317.575 359.619L320.539 359.429L321.636 356.669L322.732 359.429L325.695 359.619L323.41 361.512Z" fill="white"/>
<path fill-rule="evenodd" clip-rule="evenodd" d="M332.446 374.76L333.309 378.137L330.366 376.272L327.421 378.137L328.285 374.76L325.603 372.538L329.079 372.314L330.366 369.076L331.65 372.314L335.128 372.538L332.446 374.76Z" fill="white"/>
<path fill-rule="evenodd" clip-rule="evenodd" d="M341.859 364.193L342.595 367.069L340.086 365.482L337.576 367.069L338.312 364.193L336.026 362.299L338.988 362.109L340.086 359.347L341.18 362.109L344.145 362.299L341.859 364.193Z" fill="white"/>
<path fill-rule="evenodd" clip-rule="evenodd" d="M354.555 383.242L355.29 386.12L352.782 384.531L350.273 386.12L351.007 383.242L348.721 381.348L351.686 381.158L352.782 378.397L353.876 381.158L356.842 381.348L354.555 383.242Z" fill="white"/>
<path fill-rule="evenodd" clip-rule="evenodd" d="M354.987 372.177L355.85 375.553L352.905 373.688L349.961 375.553L350.825 372.177L348.144 369.953L351.62 369.731L352.905 366.491L354.191 369.731L357.669 369.953L354.987 372.177Z" fill="white"/>
<path fill-rule="evenodd" clip-rule="evenodd" d="M354.388 361.724L355.125 364.6L352.615 363.013L350.107 364.6L350.841 361.724L348.556 359.828L351.519 359.638L352.615 356.877L353.712 359.638L356.676 359.828L354.388 361.724Z" fill="white"/>
<path fill-rule="evenodd" clip-rule="evenodd" d="M364.905 361.826L365.64 364.706L363.131 363.116L360.622 364.706L361.358 361.826L359.07 359.933L362.034 359.743L363.131 356.983L364.227 359.743L367.191 359.933L364.905 361.826Z" fill="white"/>
<path fill-rule="evenodd" clip-rule="evenodd" d="M375.156 357.434L376.02 360.807L373.076 358.945L370.131 360.807L370.995 357.434L368.313 355.209L371.791 354.987L373.076 351.749L374.361 354.987L377.838 355.209L375.156 357.434Z" fill="white"/>
<path fill-rule="evenodd" clip-rule="evenodd" d="M380.191 348.987L381.055 352.361L378.109 350.499L375.166 352.361L376.03 348.987L373.349 346.762L376.825 346.54L378.109 343.302L379.396 346.54L382.873 346.762L380.191 348.987Z" fill="white"/>
<path fill-rule="evenodd" clip-rule="evenodd" d="M376.361 338.645L377.383 342.645L373.897 340.436L370.408 342.645L371.431 338.645L368.251 336.01L372.374 335.746L373.897 331.908L375.418 335.746L379.539 336.01L376.361 338.645Z" fill="white"/>
<path fill-rule="evenodd" clip-rule="evenodd" d="M391.254 339.343L391.99 342.22L389.48 340.632L386.97 342.22L387.707 339.343L385.42 337.449L388.384 337.257L389.48 334.497L390.576 337.257L393.539 337.449L391.254 339.343Z" fill="white"/>
<path fill-rule="evenodd" clip-rule="evenodd" d="M235.896 267.413C222.789 267.413 209.909 268.41 197.326 270.332C198.864 265.068 200.803 259.973 203.103 255.077C213.857 253.763 224.797 253.072 235.897 253.072C299.908 253.072 358.815 275.584 405.103 313.073C404.427 318.527 403.338 323.857 401.86 329.027C357.214 290.656 299.189 267.413 235.896 267.413L235.896 267.413Z" fill="white"/>
<path fill-rule="evenodd" clip-rule="evenodd" d="M208.5 261.891C208.59 262.931 208.892 263.719 209.403 264.256C209.914 264.792 210.585 265.023 211.415 264.952C212.253 264.88 212.881 264.537 213.299 263.921C213.716 263.306 213.878 262.477 213.789 261.437C213.7 260.399 213.399 259.612 212.882 259.076C212.366 258.54 211.689 258.309 210.851 258.381C210.021 258.453 209.399 258.795 208.987 259.409C208.574 260.021 208.411 260.848 208.5 261.891L208.5 261.891ZM206.519 262.061C206.388 260.535 206.701 259.289 207.455 258.322C208.21 257.355 209.292 256.808 210.705 256.688C212.115 256.567 213.276 256.919 214.191 257.745C215.104 258.572 215.625 259.746 215.756 261.268C215.887 262.791 215.574 264.039 214.814 265.008C214.054 265.977 212.97 266.523 211.56 266.643C210.148 266.765 208.988 266.413 208.079 265.586C207.171 264.76 206.65 263.585 206.519 262.061H206.519ZM221.951 260.295L224.244 260.219C224.74 260.202 225.102 260.088 225.33 259.88C225.556 259.67 225.662 259.349 225.647 258.915C225.633 258.504 225.51 258.196 225.276 257.99C225.042 257.785 224.698 257.691 224.25 257.706L221.867 257.785L221.951 260.295H221.951ZM220.178 265.694L219.861 256.215L224.459 256.062C225.491 256.026 226.265 256.223 226.777 256.648C227.291 257.073 227.562 257.741 227.592 258.65C227.611 259.228 227.506 259.716 227.276 260.11C227.048 260.505 226.706 260.779 226.257 260.936C226.674 261.069 226.974 261.282 227.159 261.576C227.343 261.871 227.458 262.336 227.505 262.97L227.582 264.087C227.582 264.096 227.582 264.11 227.583 264.127C227.612 264.691 227.747 265.031 227.985 265.142L227.994 265.433L225.855 265.505C225.783 265.373 225.726 265.212 225.683 265.018C225.641 264.823 225.609 264.591 225.594 264.321L225.534 263.325C225.492 262.739 225.37 262.345 225.164 262.148C224.956 261.947 224.593 261.857 224.073 261.874L222.006 261.943L222.13 265.628L220.178 265.694L220.178 265.694ZM234.174 263.563L235.738 263.593C236.644 263.611 237.305 263.386 237.719 262.919C238.134 262.455 238.351 261.687 238.371 260.624C238.391 259.565 238.216 258.781 237.849 258.277C237.48 257.77 236.895 257.512 236.092 257.495L234.29 257.461L234.174 263.563V263.563ZM232.229 265.24L232.409 255.758L236.123 255.828C237.577 255.856 238.655 256.27 239.354 257.067C240.054 257.866 240.39 259.063 240.36 260.66C240.344 261.526 240.197 262.288 239.921 262.944C239.644 263.6 239.249 264.125 238.741 264.517C238.357 264.81 237.926 265.019 237.442 265.141C236.958 265.261 236.284 265.315 235.415 265.298L232.229 265.24L232.229 265.24ZM244.262 265.451L244.773 255.982L251.65 256.353L251.561 258L246.605 257.733L246.496 259.751L251.028 259.996L250.94 261.615L246.408 261.371L246.276 263.807L251.464 264.087L251.37 265.836L244.262 265.451L244.262 265.451ZM255.423 266.114L256.429 256.685L259.299 256.991L260.408 264.368L263.025 257.388L265.905 257.696L264.9 267.126L263.082 266.932L263.892 259.327L261.166 266.728L259.182 266.516L258.052 258.704L257.241 266.309L255.423 266.114L255.423 266.114ZM280.552 269.349L282.539 260.076L289.274 261.519L288.929 263.131L284.077 262.092L283.653 264.069L288.091 265.019L287.752 266.606L283.313 265.655L282.802 268.041L287.882 269.129L287.515 270.843L280.552 269.349L280.552 269.349ZM305.654 269.935L307.476 270.426C307.968 270.56 308.353 270.551 308.635 270.403C308.915 270.253 309.118 269.948 309.243 269.483C309.359 269.049 309.338 268.69 309.18 268.406C309.019 268.124 308.723 267.924 308.288 267.806L306.367 267.289L305.654 269.935L305.654 269.935ZM305.194 271.591L304.318 274.848L302.433 274.34L304.901 265.184L308.972 266.282C309.934 266.54 310.595 266.988 310.958 267.62C311.316 268.252 311.369 269.051 311.107 270.019C310.853 270.963 310.413 271.625 309.792 272.006C309.169 272.387 308.404 272.457 307.509 272.216L305.194 271.591H305.194ZM316.596 273.082L318.79 273.756C319.263 273.902 319.644 273.912 319.929 273.788C320.211 273.663 320.414 273.394 320.542 272.979C320.663 272.586 320.646 272.254 320.492 271.984C320.336 271.714 320.042 271.513 319.614 271.381L317.336 270.68L316.596 273.082L316.596 273.082ZM313.163 277.608L315.95 268.544L320.347 269.895C321.336 270.199 322.002 270.636 322.347 271.205C322.694 271.774 322.733 272.493 322.465 273.364C322.296 273.917 322.038 274.344 321.691 274.641C321.345 274.939 320.934 275.088 320.46 275.09C320.81 275.351 321.023 275.65 321.105 275.989C321.182 276.328 321.138 276.805 320.978 277.419L320.687 278.5C320.681 278.509 320.678 278.522 320.675 278.538C320.521 279.081 320.537 279.447 320.725 279.629L320.64 279.907L318.592 279.278C318.568 279.13 318.568 278.96 318.589 278.762C318.613 278.565 318.658 278.335 318.733 278.075L319 277.113C319.151 276.546 319.163 276.134 319.032 275.879C318.901 275.623 318.587 275.418 318.092 275.267L316.115 274.659L315.031 278.185L313.165 277.608L313.163 277.608ZM327.606 277.575C327.248 278.556 327.188 279.397 327.425 280.099C327.663 280.801 328.172 281.295 328.953 281.58C329.744 281.869 330.459 281.824 331.098 281.442C331.736 281.06 332.234 280.378 332.591 279.399C332.95 278.42 333.009 277.578 332.768 276.875C332.527 276.171 332.01 275.676 331.221 275.387C330.439 275.1 329.729 275.148 329.097 275.53C328.463 275.912 327.965 276.593 327.607 277.575L327.606 277.575ZM325.739 276.891C326.264 275.453 327.075 274.455 328.167 273.898C329.26 273.34 330.472 273.304 331.805 273.79C333.133 274.277 334.038 275.086 334.515 276.222C334.993 277.356 334.972 278.641 334.447 280.076C333.921 281.513 333.11 282.51 332.012 283.068C330.915 283.626 329.701 283.662 328.372 283.176C327.039 282.689 326.137 281.88 325.663 280.746C325.188 279.613 325.212 278.328 325.739 276.891H325.739ZM343.282 288.029C342.77 288.33 342.265 288.494 341.765 288.525C341.266 288.553 340.737 288.45 340.178 288.212C338.96 287.692 338.153 286.848 337.757 285.679C337.362 284.509 337.458 283.234 338.047 281.857C338.639 280.467 339.491 279.515 340.6 279.005C341.708 278.493 342.891 278.506 344.148 279.04C345.241 279.506 346.022 280.147 346.492 280.964C346.956 281.782 347.063 282.678 346.801 283.648L344.971 282.868C345.054 282.368 344.977 281.927 344.736 281.545C344.493 281.163 344.098 280.853 343.55 280.62C342.821 280.309 342.133 280.331 341.488 280.689C340.841 281.046 340.321 281.696 339.918 282.64C339.514 283.588 339.414 284.422 339.62 285.146C339.825 285.867 340.308 286.389 341.066 286.712C341.633 286.955 342.181 286.989 342.706 286.818C343.232 286.644 343.668 286.284 344.005 285.739L342.028 284.898L342.664 283.405L346.278 284.945L344.265 289.665L343.063 289.152L343.282 288.029V288.029ZM352.299 287.779L354.359 288.789C354.806 289.007 355.178 289.077 355.479 288.998C355.776 288.919 356.02 288.685 356.212 288.294C356.393 287.925 356.426 287.596 356.319 287.304C356.207 287.013 355.948 286.768 355.545 286.571L353.405 285.522L352.299 287.779H352.299ZM348.2 291.714L352.37 283.197L356.501 285.22C357.429 285.674 358.021 286.21 358.272 286.826C358.525 287.442 358.451 288.159 358.051 288.976C357.798 289.495 357.475 289.876 357.086 290.117C356.699 290.358 356.269 290.441 355.801 290.367C356.106 290.68 356.271 291.008 356.296 291.356C356.321 291.703 356.203 292.166 355.948 292.749L355.49 293.772C355.484 293.78 355.481 293.791 355.475 293.806C355.235 294.319 355.193 294.683 355.353 294.892L355.224 295.152L353.301 294.212C353.299 294.062 353.325 293.893 353.377 293.701C353.432 293.51 353.512 293.29 353.627 293.044L354.04 292.136C354.28 291.6 354.356 291.194 354.265 290.923C354.177 290.65 353.899 290.399 353.432 290.17L351.577 289.26L349.954 292.572L348.202 291.714L348.2 291.714ZM358.797 297.156L363.407 288.868L369.427 292.217L368.625 293.658L364.29 291.246L363.307 293.012L367.272 295.219L366.483 296.636L362.518 294.43L361.333 296.561L365.872 299.088L365.021 300.618L358.797 297.156V297.156ZM369.498 300.095L371.146 301.089C370.941 301.571 370.925 302.011 371.096 302.408C371.267 302.804 371.638 303.173 372.208 303.517C372.695 303.811 373.111 303.943 373.461 303.919C373.812 303.897 374.088 303.714 374.293 303.376C374.588 302.882 374.128 302.05 372.905 300.872C372.89 300.857 372.875 300.843 372.864 300.832C372.831 300.801 372.783 300.754 372.716 300.689C372.057 300.065 371.628 299.556 371.432 299.155C371.255 298.799 371.186 298.418 371.223 298.018C371.259 297.616 371.404 297.205 371.659 296.781C372.136 295.991 372.77 295.548 373.561 295.449C374.35 295.353 375.252 295.609 376.267 296.221C377.215 296.793 377.823 297.465 378.087 298.234C378.35 299.006 378.251 299.807 377.788 300.643L376.184 299.675C376.391 299.263 376.422 298.873 376.273 298.505C376.124 298.135 375.799 297.798 375.296 297.495C374.857 297.231 374.471 297.112 374.129 297.141C373.788 297.169 373.526 297.34 373.333 297.657C373.075 298.087 373.343 298.685 374.135 299.456C374.35 299.665 374.517 299.829 374.636 299.946C375.139 300.453 375.488 300.826 375.686 301.058C375.883 301.292 376.042 301.517 376.165 301.732C376.382 302.114 376.485 302.508 376.466 302.91C376.451 303.313 376.313 303.728 376.057 304.15C375.547 304.993 374.87 305.476 374.018 305.6C373.169 305.721 372.227 305.471 371.19 304.845C370.167 304.229 369.51 303.509 369.214 302.685C368.92 301.859 369.015 300.997 369.498 300.095L369.498 300.095ZM379.493 306.346L381.088 307.425C380.856 307.894 380.817 308.333 380.967 308.74C381.119 309.145 381.469 309.531 382.019 309.906C382.489 310.224 382.899 310.379 383.249 310.373C383.601 310.369 383.885 310.203 384.109 309.874C384.432 309.397 384.012 308.541 382.856 307.302C382.841 307.285 382.826 307.272 382.816 307.257C382.784 307.227 382.738 307.176 382.676 307.108C382.051 306.452 381.649 305.921 381.474 305.51C381.315 305.143 381.267 304.761 381.322 304.362C381.38 303.964 381.548 303.561 381.824 303.151C382.341 302.388 383 301.977 383.793 301.921C384.585 301.866 385.474 302.17 386.456 302.833C387.372 303.456 387.944 304.155 388.167 304.939C388.388 305.724 388.25 306.52 387.743 307.33L386.191 306.279C386.419 305.878 386.47 305.49 386.343 305.115C386.213 304.738 385.907 304.384 385.42 304.057C384.996 303.768 384.614 303.63 384.273 303.639C383.932 303.651 383.659 303.809 383.453 304.112C383.168 304.529 383.407 305.14 384.157 305.953C384.36 306.172 384.521 306.345 384.632 306.467C385.106 307 385.437 307.389 385.62 307.634C385.806 307.877 385.953 308.11 386.063 308.329C386.261 308.724 386.343 309.12 386.305 309.522C386.266 309.924 386.11 310.33 385.833 310.739C385.278 311.556 384.576 312.004 383.72 312.08C382.864 312.156 381.936 311.857 380.932 311.177C379.945 310.51 379.323 309.756 379.074 308.917C378.823 308.075 378.961 307.22 379.492 306.346L379.493 306.346ZM391.543 312.742C390.913 313.573 390.611 314.363 390.631 315.101C390.652 315.841 390.995 316.463 391.66 316.965C392.332 317.473 393.028 317.638 393.749 317.461C394.472 317.282 395.147 316.773 395.777 315.94C396.404 315.112 396.706 314.324 396.682 313.579C396.658 312.836 396.308 312.213 395.637 311.705C394.974 311.201 394.281 311.041 393.566 311.22C392.848 311.401 392.174 311.907 391.543 312.742L391.543 312.742ZM389.957 311.542C390.877 310.32 391.946 309.603 393.154 309.389C394.362 309.175 395.532 309.494 396.663 310.351C397.793 311.204 398.419 312.243 398.545 313.466C398.672 314.693 398.274 315.914 397.354 317.132C396.43 318.353 395.363 319.07 394.152 319.283C392.938 319.495 391.766 319.174 390.639 318.322C389.507 317.465 388.881 316.428 388.759 315.207C388.637 313.986 389.035 312.762 389.957 311.542L389.957 311.542Z" fill="#009C37"/>
</g>
<defs>
<clipPath id="clip0_505_1778">
<rect width="600" height="600" rx="300" fill="white"/>
</clipPath>
</defs>
</svg>
