<svg width="600" height="600" viewBox="0 0 600 600" fill="none" xmlns="http://www.w3.org/2000/svg">
<g clip-path="url(#clip0_505_2162)">
<path d="M0 0H150L156.188 12.375H443.812L450 0H600V600H450L443.812 587.625H156.188L150 600H0V0Z" fill="#FF0000"/>
<rect x="150" width="300" height="600" fill="white"/>
<rect x="150" y="150" width="300" height="300" fill="#FF0000"/>
<path d="M150 150H450V450H150V150ZM305.625 426.875L302.812 372.938C302.772 372.05 302.93 371.166 303.277 370.348C303.623 369.53 304.148 368.801 304.814 368.213C305.48 367.625 306.269 367.194 307.123 366.952C307.977 366.71 308.875 366.662 309.75 366.812L363.438 376.25L356.188 356.25C355.893 355.454 355.856 354.586 356.08 353.768C356.304 352.95 356.779 352.222 357.438 351.688L416.25 304.062L403 297.875C402.105 297.452 401.395 296.717 401.004 295.808C400.613 294.899 400.567 293.878 400.875 292.938L412.5 257.188L378.625 264.375C377.707 264.566 376.752 264.434 375.92 264.002C375.088 263.569 374.432 262.862 374.062 262L367.5 246.562L341.062 274.938C340.458 275.575 339.663 276 338.797 276.147C337.931 276.295 337.04 276.158 336.259 275.756C335.477 275.355 334.847 274.711 334.462 273.921C334.077 273.131 333.959 272.238 334.125 271.375L346.875 205.625L326.438 217.438C325.958 217.719 325.425 217.898 324.873 217.965C324.321 218.033 323.761 217.985 323.228 217.827C322.695 217.669 322.2 217.403 321.773 217.046C321.347 216.688 320.999 216.247 320.75 215.75L300 175L279.25 215.75C279.001 216.247 278.653 216.688 278.227 217.046C277.8 217.403 277.305 217.669 276.772 217.827C276.239 217.985 275.679 218.033 275.127 217.965C274.575 217.898 274.042 217.719 273.562 217.438L253.125 205.625L265.875 271.375C266.041 272.238 265.923 273.131 265.538 273.921C265.153 274.711 264.523 275.355 263.741 275.756C262.96 276.158 262.069 276.295 261.203 276.147C260.337 276 259.542 275.575 258.938 274.938L232.5 246.562L225.938 262C225.568 262.862 224.912 263.569 224.08 264.002C223.248 264.434 222.293 264.566 221.375 264.375L187.5 257.188L199.125 292.938C199.433 293.878 199.387 294.899 198.996 295.808C198.605 296.717 197.895 297.452 197 297.875L183.75 304.062L242.562 351.688C243.221 352.222 243.696 352.95 243.92 353.768C244.144 354.586 244.107 355.454 243.812 356.25L236.562 376.25L290.25 366.812C291.125 366.662 292.023 366.71 292.877 366.952C293.731 367.194 294.52 367.625 295.186 368.213C295.852 368.801 296.377 369.53 296.723 370.348C297.07 371.166 297.228 372.05 297.188 372.938L294.375 426.875H305.625Z" fill="white"/>
</g>
<defs>
<clipPath id="clip0_505_2162">
<rect width="600" height="600" rx="300" fill="white"/>
</clipPath>
</defs>
</svg>
