<svg width="600" height="600" viewBox="0 0 600 600" fill="none" xmlns="http://www.w3.org/2000/svg">
<g clip-path="url(#clip0_505_1972)">
<path d="M600 0H0V600H600V0Z" fill="#DA0000"/>
<path d="M600 0H0V400H600V0Z" fill="white"/>
<path d="M600 0H0V200H600V0Z" fill="#239F40"/>
<path d="M8 169.667H42.6667M9.33333 190.667V179H20V188.333H30.6667V179H24M13.3333 188.333H16M42.6667 188.333H36V179H46.6667M46.6667 167.333V188.333H57.3333V167.333M52 167.333V188.333" stroke="white" stroke-width="2.8"/>
<path d="M8 200H32M34.6667 200H58.6667" stroke="white" stroke-width="5.6"/>
<path d="M8 400H32M34.6667 400H58.6667" stroke="white" stroke-width="5.6"/>
<path d="M8 411.667H42.6667M9.33333 432.667V421H20V430.333H30.6667V421H24M13.3333 430.333H16M42.6667 430.333H36V421H46.6667M46.6667 409.333V430.333H57.3333V409.333M52 409.333V430.333" stroke="white" stroke-width="2.8"/>
<path d="M61.3335 169.667H96.0002M62.6668 190.667V179H73.3335V188.333H84.0002V179H77.3335M66.6668 188.333H69.3335M96.0002 188.333H89.3335V179H100M100 167.333V188.333H110.667V167.333M105.333 167.333V188.333" stroke="white" stroke-width="2.8"/>
<path d="M61.3335 200H85.3335M88.0002 200H112" stroke="white" stroke-width="5.6"/>
<path d="M61.3335 400H85.3335M88.0002 400H112" stroke="white" stroke-width="5.6"/>
<path d="M61.3335 411.667H96.0002M62.6668 432.667V421H73.3335V430.333H84.0002V421H77.3335M66.6668 430.333H69.3335M96.0002 430.333H89.3335V421H100M100 409.333V430.333H110.667V409.333M105.333 409.333V430.333" stroke="white" stroke-width="2.8"/>
<path d="M114.667 169.667H149.334M116 190.667V179H126.667V188.333H137.334V179H130.667M120 188.333H122.667M149.334 188.333H142.667V179H153.334M153.334 167.333V188.333H164V167.333M158.667 167.333V188.333" stroke="white" stroke-width="2.8"/>
<path d="M114.667 200H138.667M141.334 200H165.334" stroke="white" stroke-width="5.6"/>
<path d="M114.667 400H138.667M141.334 400H165.334" stroke="white" stroke-width="5.6"/>
<path d="M114.667 411.667H149.334M116 432.667V421H126.667V430.333H137.334V421H130.667M120 430.333H122.667M149.334 430.333H142.667V421H153.334M153.334 409.333V430.333H164V409.333M158.667 409.333V430.333" stroke="white" stroke-width="2.8"/>
<path d="M168 169.667H202.667M169.333 190.667V179H180V188.333H190.667V179H184M173.333 188.333H176M202.667 188.333H196V179H206.667M206.667 167.333V188.333H217.333V167.333M212 167.333V188.333" stroke="white" stroke-width="2.8"/>
<path d="M168 200H192M194.667 200H218.667" stroke="white" stroke-width="5.6"/>
<path d="M168 400H192M194.667 400H218.667" stroke="white" stroke-width="5.6"/>
<path d="M168 411.667H202.667M169.333 432.667V421H180V430.333H190.667V421H184M173.333 430.333H176M202.667 430.333H196V421H206.667M206.667 409.333V430.333H217.333V409.333M212 409.333V430.333" stroke="white" stroke-width="2.8"/>
<path d="M221.333 169.667H256M222.667 190.667V179H233.333V188.333H244V179H237.333M226.667 188.333H229.333M256 188.333H249.333V179H260M260 167.333V188.333H270.667V167.333M265.333 167.333V188.333" stroke="white" stroke-width="2.8"/>
<path d="M221.333 200H245.333M248 200H272" stroke="white" stroke-width="5.6"/>
<path d="M221.333 400H245.333M248 400H272" stroke="white" stroke-width="5.6"/>
<path d="M221.333 411.667H256M222.667 432.667V421H233.333V430.333H244V421H237.333M226.667 430.333H229.333M256 430.333H249.333V421H260M260 409.333V430.333H270.667V409.333M265.333 409.333V430.333" stroke="white" stroke-width="2.8"/>
<path d="M274.667 169.667H309.334M276 190.667V179H286.667V188.333H297.334V179H290.667M280 188.333H282.667M309.334 188.333H302.667V179H313.334M313.334 167.333V188.333H324V167.333M318.667 167.333V188.333" stroke="white" stroke-width="2.8"/>
<path d="M274.667 200H298.667M301.334 200H325.334" stroke="white" stroke-width="5.6"/>
<path d="M274.667 400H298.667M301.334 400H325.334" stroke="white" stroke-width="5.6"/>
<path d="M274.667 411.667H309.334M276 432.667V421H286.667V430.333H297.334V421H290.667M280 430.333H282.667M309.334 430.333H302.667V421H313.334M313.334 409.333V430.333H324V409.333M318.667 409.333V430.333" stroke="white" stroke-width="2.8"/>
<path d="M328 169.667H362.667M329.333 190.667V179H340V188.333H350.667V179H344M333.333 188.333H336M362.667 188.333H356V179H366.667M366.667 167.333V188.333H377.333V167.333M372 167.333V188.333" stroke="white" stroke-width="2.8"/>
<path d="M328 200H352M354.667 200H378.667" stroke="white" stroke-width="5.6"/>
<path d="M328 400H352M354.667 400H378.667" stroke="white" stroke-width="5.6"/>
<path d="M328 411.667H362.667M329.333 432.667V421H340V430.333H350.667V421H344M333.333 430.333H336M362.667 430.333H356V421H366.667M366.667 409.333V430.333H377.333V409.333M372 409.333V430.333" stroke="white" stroke-width="2.8"/>
<path d="M381.333 169.667H416M382.667 190.667V179H393.333V188.333H404V179H397.333M386.667 188.333H389.333M416 188.333H409.333V179H420M420 167.333V188.333H430.667V167.333M425.333 167.333V188.333" stroke="white" stroke-width="2.8"/>
<path d="M381.333 200H405.333M408 200H432" stroke="white" stroke-width="5.6"/>
<path d="M381.333 400H405.333M408 400H432" stroke="white" stroke-width="5.6"/>
<path d="M381.333 411.667H416M382.667 432.667V421H393.333V430.333H404V421H397.333M386.667 430.333H389.333M416 430.333H409.333V421H420M420 409.333V430.333H430.667V409.333M425.333 409.333V430.333" stroke="white" stroke-width="2.8"/>
<path d="M434.667 169.667H469.334M436 190.667V179H446.667V188.333H457.334V179H450.667M440 188.333H442.667M469.334 188.333H462.667V179H473.334M473.334 167.333V188.333H484V167.333M478.667 167.333V188.333" stroke="white" stroke-width="2.8"/>
<path d="M434.667 200H458.667M461.334 200H485.334" stroke="white" stroke-width="5.6"/>
<path d="M434.667 400H458.667M461.334 400H485.334" stroke="white" stroke-width="5.6"/>
<path d="M434.667 411.667H469.334M436 432.667V421H446.667V430.333H457.334V421H450.667M440 430.333H442.667M469.334 430.333H462.667V421H473.334M473.334 409.333V430.333H484V409.333M478.667 409.333V430.333" stroke="white" stroke-width="2.8"/>
<path d="M488 169.667H522.667M489.334 190.667V179H500V188.333H510.667V179H504M493.334 188.333H496M522.667 188.333H516V179H526.667M526.667 167.333V188.333H537.334V167.333M532 167.333V188.333" stroke="white" stroke-width="2.8"/>
<path d="M488 200H512M514.667 200H538.667" stroke="white" stroke-width="5.6"/>
<path d="M488 400H512M514.667 400H538.667" stroke="white" stroke-width="5.6"/>
<path d="M488 411.667H522.667M489.334 432.667V421H500V430.333H510.667V421H504M493.334 430.333H496M522.667 430.333H516V421H526.667M526.667 409.333V430.333H537.334V409.333M532 409.333V430.333" stroke="white" stroke-width="2.8"/>
<path d="M541.333 169.667H576M542.667 190.667V179H553.333V188.333H564V179H557.333M546.667 188.333H549.333M576 188.333H569.333V179H580M580 167.333V188.333H590.667V167.333M585.333 167.333V188.333" stroke="white" stroke-width="2.8"/>
<path d="M541.333 200H565.333M568 200H592" stroke="white" stroke-width="5.6"/>
<path d="M541.333 400H565.333M568 400H592" stroke="white" stroke-width="5.6"/>
<path d="M541.333 411.667H576M542.667 432.667V421H553.333V430.333H564V421H557.333M546.667 430.333H549.333M576 430.333H569.333V421H580M580 409.333V430.333H590.667V409.333M585.333 409.333V430.333" stroke="white" stroke-width="2.8"/>
<path d="M265.792 349.951C278.118 353.956 291.449 353.569 303.521 348.857C315.593 344.145 325.661 335.398 332.014 324.102C338.367 312.807 340.613 299.66 338.37 286.897C336.126 274.133 329.533 262.54 319.709 254.087C326.101 263.546 329.734 274.597 330.202 286.003C330.67 297.409 327.953 308.721 322.357 318.671C316.761 328.621 308.506 336.817 298.516 342.341C288.526 347.866 277.195 350.501 265.792 349.951" fill="#DA0000"/>
<path d="M337.531 339.19C345.632 334.509 352.15 327.515 356.25 319.106C360.351 310.696 361.848 301.254 360.548 291.989C359.249 282.723 355.212 274.057 348.957 267.1C342.701 260.143 334.51 255.212 325.435 252.939C331.901 257.801 337.346 263.892 341.455 270.861C345.564 277.831 348.258 285.542 349.381 293.555C350.505 301.567 350.037 309.722 348.003 317.553C345.97 325.384 342.411 332.737 337.531 339.19" fill="#DA0000"/>
<path d="M299.503 360.014L296.428 298.514L299.503 250.097C301.371 252.707 303.868 254.803 306.762 256.191V292.339L304.288 353.428L299.503 360.014Z" fill="#DA0000"/>
<path d="M298.275 246.239L299.505 247.394C300.756 249.173 302.617 250.431 304.734 250.928C306.851 251.425 309.077 251.128 310.99 250.093C312.902 249.057 314.368 247.355 315.109 245.31C315.849 243.266 315.813 241.02 315.007 239C314.69 240.682 313.865 242.227 312.644 243.427C311.423 244.627 309.865 245.425 308.177 245.713C306.49 246.002 304.754 245.767 303.204 245.04C301.654 244.314 300.363 243.13 299.505 241.649" fill="#DA0000"/>
<path d="M333.211 349.951C320.886 353.956 307.554 353.569 295.482 348.857C283.41 344.145 273.342 335.398 266.989 324.102C260.636 312.807 258.391 299.66 260.634 286.897C262.877 274.133 269.471 262.54 279.294 254.087C272.902 263.546 269.269 274.597 268.801 286.003C268.334 297.409 271.05 308.721 276.646 318.671C282.242 328.621 290.498 336.817 300.488 342.341C310.478 347.866 321.808 350.501 333.211 349.951" fill="#DA0000"/>
<path d="M261.472 339.19C253.372 334.509 246.854 327.515 242.753 319.106C238.652 310.696 237.156 301.254 238.455 291.989C239.755 282.723 243.791 274.057 250.047 267.1C256.303 260.143 264.493 255.212 273.569 252.939C267.102 257.801 261.658 263.892 257.549 270.861C253.439 277.831 250.746 285.542 249.622 293.555C248.498 301.567 248.967 309.722 251 317.553C253.034 325.384 256.592 332.737 261.472 339.19" fill="#DA0000"/>
<path d="M299.501 360.014L302.576 298.514L299.501 250.097C297.633 252.707 295.136 254.803 292.242 256.191V292.339L294.715 353.428L299.501 360.014Z" fill="#DA0000"/>
<path d="M300.729 246.239L299.499 247.394C298.247 249.173 296.386 250.431 294.269 250.928C292.152 251.425 289.926 251.128 288.014 250.093C286.101 249.057 284.635 247.355 283.895 245.31C283.154 243.266 283.19 241.02 283.996 239C284.313 240.682 285.138 242.227 286.359 243.427C287.58 244.627 289.139 245.425 290.826 245.713C292.514 246.002 294.249 245.767 295.799 245.04C297.35 244.314 298.64 243.13 299.499 241.649" fill="#DA0000"/>
</g>
<defs>
<clipPath id="clip0_505_1972">
<rect width="600" height="600" rx="300" fill="white"/>
</clipPath>
</defs>
</svg>
