<svg width="600" height="600" viewBox="0 0 600 600" fill="none" xmlns="http://www.w3.org/2000/svg">
<path d="M0 0H600V600H0V0Z" fill="#244AA5"/>
<path d="M172.567 282.769C172.567 282.769 174.125 281.719 174.695 281.579C175.265 281.439 177.279 280.809 177.279 280.809C177.279 280.809 178.571 280.144 179.255 280.144C179.977 280.144 181.383 280.914 181.839 281.579C182.257 282.244 184.537 283.399 184.537 283.399C184.537 283.399 186.095 283.924 186.399 283.399C186.703 282.874 187.387 282.489 188.109 282.489C188.831 282.489 188.945 281.824 188.945 281.299C188.945 280.774 189.249 280.109 189.781 279.479C190.351 278.814 191.491 278.429 191.491 278.429C191.491 278.429 193.049 277.764 193.201 276.854C193.353 275.944 194.911 275.279 195.785 275.139C196.621 274.999 195.785 274.614 198.065 274.859C200.345 275.139 200.649 274.334 200.763 273.669C200.915 273.004 200.763 272.339 202.207 272.479C203.651 272.619 204.335 272.619 204.335 271.814C204.335 271.044 205.627 270.624 203.347 269.994C201.067 269.329 201.219 269.854 201.067 268.804C200.915 267.754 201.067 267.894 199.509 267.754C197.951 267.614 198.787 266.844 198.673 266.039C198.521 265.269 198.103 264.849 197.837 264.324C197.533 263.799 196.697 263.799 196.697 263.029C196.697 262.259 196.545 261.839 195.709 261.839C194.873 261.839 194.569 261.839 194.569 261.069C194.569 260.299 194.721 259.634 195.557 259.634C196.393 259.634 196.849 258.969 196.697 258.199C196.545 257.429 196.545 255.714 196.545 255.714L197.685 254.384C197.685 254.384 201.105 251.619 201.409 251.094C201.713 250.569 202.853 250.184 203.385 251.234C203.955 252.284 204.221 252.564 204.677 253.054C205.095 253.579 206.387 253.194 206.653 252.669C206.957 252.144 207.071 250.219 207.831 249.169C208.591 248.154 209.123 247.629 209.313 246.789C209.503 245.949 209.883 245.249 210.795 245.249C211.707 245.249 212.277 244.059 212.277 243.359C212.277 242.659 212.657 241.994 213.759 241.819C214.861 241.644 215.431 240.979 215.811 241.994C216.191 243.009 216.571 243.009 217.293 243.359C218.053 243.709 219.155 244.199 219.687 243.709C220.257 243.184 220.523 242.344 221.359 242.869C222.157 243.394 222.727 242.869 222.917 241.854C223.107 240.839 223.297 239.474 223.297 239.474C223.297 239.474 223.487 238.774 224.779 238.774C226.071 238.774 225.159 237.934 225.881 237.409C226.641 236.884 226.641 236.394 227.553 236.709C228.465 237.059 229.947 236.289 229.225 235.449C228.465 234.609 226.831 233.244 227.743 232.194C228.655 231.179 229.035 229.464 228.123 229.289C227.211 229.114 225.881 229.464 225.729 228.449C225.539 227.434 225.159 226.734 226.299 226.559C227.401 226.384 229.263 226.384 229.833 225.859C230.403 225.334 232.227 225.019 232.227 223.479C232.227 221.939 232.797 221.764 232.987 220.924C233.177 220.084 233.177 218.299 232.417 217.459C231.657 216.619 230.555 215.394 230.365 214.904C230.175 214.379 229.453 213.539 228.313 213.189C227.211 212.839 226.261 212.664 226.261 211.824C226.261 210.984 227.021 211.999 227.021 209.759C227.021 207.554 225.539 207.204 225.539 207.204L223.297 205.839C223.297 205.839 219.345 204.789 218.281 204.789C217.217 204.789 216.001 203.669 217.217 202.969C218.433 202.269 218.737 201.009 218.281 200.029C217.825 199.049 217.521 198.349 215.849 197.929C214.177 197.509 213.721 197.089 214.481 196.109C215.241 195.129 215.393 194.429 216.305 195.129C217.217 195.829 218.737 196.109 219.953 195.549C221.169 194.989 221.625 194.569 222.233 195.129C222.841 195.689 223.601 196.249 224.513 195.409C225.425 194.569 227.097 194.429 227.857 194.849C228.617 195.269 230.441 195.129 231.049 194.849C231.657 194.569 232.873 193.589 232.873 193.029C232.873 192.469 233.633 191.489 234.393 191.069C235.153 190.649 236.065 189.249 236.825 189.249C237.585 189.249 237.889 188.409 237.889 187.849C237.889 187.289 238.497 186.169 238.649 185.749C238.801 185.329 240.321 184.734 241.385 185.609C242.449 186.449 243.817 186.729 243.817 186.729C243.817 186.729 245.337 187.009 246.097 186.729C246.857 186.449 247.921 186.169 248.985 186.869C250.049 187.569 251.569 187.569 251.569 187.569C251.569 187.569 251.873 186.449 251.873 185.889C251.873 185.329 252.177 184.349 251.569 183.929C250.961 183.509 250.201 182.949 251.417 182.109C252.633 181.269 252.633 181.409 253.849 181.409C255.065 181.409 255.825 181.549 256.737 181.549C257.649 181.549 259.169 182.389 259.169 183.229C259.169 184.069 259.777 184.629 260.537 185.049C261.297 185.469 262.209 185.889 261.905 186.589C261.601 187.289 261.601 187.849 262.513 187.709C263.425 187.569 263.729 188.129 263.729 188.829C263.729 189.529 264.033 189.949 264.945 190.229C265.857 190.509 266.313 191.069 266.313 191.769C266.313 192.469 266.161 192.889 266.465 193.589C266.769 194.289 267.681 195.409 267.681 195.409C267.681 195.409 269.353 197.369 267.225 196.389C265.097 195.409 264.641 194.989 263.881 195.129C263.121 195.269 262.665 195.689 262.665 195.689C262.665 195.689 261.601 195.969 260.841 195.969C260.081 195.969 259.321 197.509 260.537 197.789C261.753 198.069 262.209 198.349 262.209 199.329C262.209 200.309 261.753 200.029 261.145 200.729C260.537 201.429 260.081 201.009 259.017 201.009C257.953 201.009 257.649 201.849 257.649 202.689C257.649 203.529 258.105 203.389 258.561 204.089C259.017 204.789 259.777 204.929 260.537 204.229C261.297 203.529 261.905 203.109 262.361 204.369C262.817 205.629 263.425 205.629 264.337 205.629C265.249 205.629 265.553 205.629 266.313 205.209C267.073 204.789 267.985 205.209 268.137 206.329C268.289 207.449 269.049 207.589 269.809 208.009C270.569 208.429 271.025 208.709 271.177 209.409C271.329 210.109 271.785 210.389 272.545 209.969C273.305 209.549 274.521 209.269 274.977 209.829C275.433 210.389 276.193 211.509 276.193 211.509L276.345 212.909L279.233 213.889C279.233 213.889 279.537 214.589 279.537 215.149C279.537 215.709 279.993 215.989 280.753 215.849C281.513 215.709 282.881 215.849 282.881 215.849C282.881 215.849 283.945 215.429 283.945 214.589C283.945 213.749 284.401 213.469 285.161 213.469C285.921 213.469 287.593 214.029 288.049 213.189C288.505 212.349 289.873 212.069 290.937 212.489C292.001 212.909 294.737 214.029 294.737 214.029C294.737 214.029 294.433 214.169 295.345 215.569C296.257 216.969 297.929 216.969 297.929 216.969C297.929 216.969 298.081 218.229 298.385 218.789C298.689 219.349 300.057 219.629 300.817 219.069C301.577 218.509 302.641 217.809 303.553 217.809C304.465 217.809 305.073 217.809 305.073 217.249C305.073 216.689 304.161 216.269 304.161 215.429C304.161 214.589 305.073 214.589 305.225 213.749C305.377 212.909 306.289 213.749 306.897 214.169C307.505 214.589 308.265 215.289 308.265 215.849C308.265 216.409 309.481 218.369 310.241 218.649C311.001 218.929 312.977 219.069 313.585 218.369C314.193 217.669 315.713 217.389 315.561 219.069C315.409 220.749 315.105 220.889 316.169 221.449C317.233 222.009 317.385 223.969 316.473 224.529C315.561 225.089 315.257 225.229 315.257 226.209C315.257 227.189 314.953 228.309 315.713 228.869C316.473 229.429 316.929 229.849 316.929 230.409C316.929 230.969 317.841 233.489 317.841 233.489C317.841 233.489 318.297 236.009 318.145 236.569C317.993 237.129 317.689 238.109 319.057 237.969C320.425 237.829 320.729 237.829 320.729 238.949C320.729 240.069 321.185 240.489 320.425 240.909C319.665 241.329 319.209 242.729 319.969 243.009C320.729 243.289 321.337 243.709 321.489 244.269C321.641 244.829 322.857 245.809 323.617 245.249C324.377 244.689 324.529 244.409 325.137 244.269C325.745 244.129 326.201 243.709 325.593 243.009C324.985 242.309 324.833 241.609 325.441 241.189C326.049 240.769 326.353 239.369 326.353 239.369C326.353 239.369 327.265 238.109 328.329 239.369C329.393 240.629 329.545 240.209 330.305 240.209C331.065 240.209 331.369 240.909 331.369 241.609C331.369 242.309 332.889 242.169 332.889 243.289C332.889 244.409 333.193 247.069 333.193 247.069C333.193 247.069 333.193 248.609 334.105 249.169C335.017 249.729 334.865 249.869 334.409 250.569C333.953 251.269 334.105 252.389 334.105 252.949C334.105 253.509 334.409 253.789 333.649 254.349C332.889 254.909 332.585 255.609 333.041 256.449C333.497 257.289 333.345 257.849 334.561 258.829C335.777 259.809 335.625 260.229 335.625 260.929C335.625 261.629 336.841 262.609 336.841 263.309C336.841 264.009 337.753 264.849 338.513 264.989C339.273 265.129 340.185 266.389 340.185 267.089C340.185 267.789 340.337 269.609 340.337 269.609C340.337 269.609 340.185 270.029 341.097 270.029C342.009 270.029 342.617 271.009 342.921 269.889C343.225 268.769 344.137 268.629 344.745 268.349C345.353 268.069 346.569 267.509 347.177 267.929C347.785 268.349 348.545 268.349 349.153 268.349C349.761 268.349 352.649 268.489 352.649 268.489C352.649 268.489 353.409 268.349 353.865 269.469C354.321 270.589 355.689 271.849 354.929 272.409C354.169 272.969 354.169 274.089 355.081 274.089C355.993 274.089 356.905 274.089 356.905 274.789C356.905 275.489 357.057 276.049 357.817 275.629C358.577 275.209 359.033 275.069 359.337 275.629C359.641 276.189 360.249 276.189 361.009 276.609C361.769 277.029 362.073 276.749 362.529 276.189C362.985 275.629 364.809 275.069 364.809 275.069C364.809 275.069 367.241 274.509 368.153 274.789C369.065 275.069 370.281 275.629 370.281 275.629C370.281 275.629 370.889 277.029 370.585 277.869C370.281 278.709 369.977 278.569 370.281 279.829C370.585 281.089 369.977 281.229 369.369 281.089C368.761 280.949 368.153 280.949 368.153 282.069C368.153 283.189 367.545 283.469 367.545 284.449C367.545 285.429 367.545 285.289 366.937 285.709C366.329 286.129 366.177 286.829 367.089 286.969C368.001 287.109 367.697 288.089 367.697 288.649C367.697 289.209 367.545 290.469 367.545 290.469C367.545 290.469 367.697 291.169 366.633 291.169C365.569 291.169 364.657 291.029 364.505 291.729C364.353 292.429 363.137 293.549 364.201 294.249C365.265 294.949 364.961 295.369 364.353 295.649C363.745 295.929 363.289 297.329 364.505 297.749C365.721 298.169 365.569 298.589 364.809 299.149C364.049 299.709 362.529 300.129 362.529 300.969C362.529 301.809 362.225 301.809 361.313 301.949C360.401 302.089 359.945 303.209 361.009 304.609C362.073 306.009 362.377 305.729 363.137 305.729C363.897 305.729 363.897 304.609 363.897 304.609C363.897 304.609 366.481 304.749 367.241 304.749C368.001 304.749 369.065 304.749 369.673 304.329C370.281 303.909 371.953 303.209 371.953 304.469C371.953 305.729 372.257 305.589 373.017 306.149C373.777 306.709 373.929 306.289 374.537 307.129C375.145 307.969 375.297 307.269 375.753 306.289C376.209 305.309 377.121 304.329 377.881 305.449C378.641 306.569 378.641 306.289 379.553 306.289C380.465 306.289 380.769 306.709 380.769 307.409C380.769 308.109 381.681 308.109 382.745 307.969C383.809 307.829 383.961 308.529 384.417 309.229C384.873 309.929 385.025 309.789 385.633 309.789C386.241 309.789 386.849 309.789 387.305 309.229C387.761 308.669 388.369 307.969 388.977 308.809C389.585 309.649 390.801 309.509 391.105 308.529C391.409 307.549 392.777 306.709 393.537 307.829C394.297 308.949 394.905 308.949 395.665 309.089C396.425 309.229 397.489 309.229 397.945 309.929C398.401 310.629 399.921 311.749 398.857 312.589C397.793 313.429 396.577 314.549 397.489 314.829C398.401 315.109 399.009 315.389 399.617 316.089C400.225 316.789 402.201 317.069 403.113 317.209C404.025 317.349 404.785 317.489 405.849 316.649C406.913 315.809 407.977 315.809 407.825 316.929C407.673 318.049 408.281 319.309 408.281 319.309C408.281 319.309 409.041 321.129 409.041 321.829C409.041 322.529 408.889 322.669 410.257 323.509C411.625 324.349 411.473 324.909 412.537 324.069C413.601 323.229 413.905 322.809 413.905 322.109C413.905 321.409 413.905 319.869 413.905 319.869C413.905 319.869 415.425 319.589 416.033 319.169C416.641 318.749 419.073 317.489 419.681 318.049C420.289 318.609 421.049 318.469 421.657 318.189C422.265 317.909 423.481 317.909 424.089 317.909C424.697 317.909 425.761 318.049 426.977 317.069C428.193 316.089 428.193 316.369 428.953 317.069C429.713 317.769 429.713 318.609 429.257 319.169C428.801 319.729 429.257 320.989 430.321 320.989C431.385 320.989 431.689 321.549 431.689 322.249C431.689 322.949 431.841 323.929 431.993 324.489C432.145 325.049 432.145 325.329 433.817 325.749C435.489 326.169 435.185 327.149 435.489 327.849C435.793 328.549 435.793 329.109 434.881 329.109C433.969 329.109 433.665 329.529 433.513 330.229C433.361 330.929 431.993 331.209 431.993 331.209L430.625 330.929C430.625 330.929 429.713 330.929 429.257 331.489C428.801 332.049 427.889 333.169 428.497 334.149C429.105 335.129 429.105 335.689 428.497 336.109C427.889 336.529 427.585 338.629 426.977 338.209C426.369 337.789 425.609 338.349 425.001 338.629C424.393 338.909 424.545 340.869 425.761 341.569C426.977 342.269 427.281 343.249 427.281 343.249L428.649 345.349C428.649 345.349 428.193 345.769 427.889 346.469C427.585 347.169 426.673 348.569 427.585 348.849C428.497 349.129 428.041 350.669 427.129 350.669C426.217 350.669 425.153 350.249 425.001 351.369C424.849 352.489 424.393 352.209 423.481 352.069C422.569 351.929 420.289 351.369 419.681 352.489C419.073 353.609 418.921 354.029 417.857 353.889C416.793 353.749 417.249 355.569 417.553 356.269C417.857 356.969 418.921 357.949 418.921 357.949C418.921 357.949 419.833 358.649 419.833 360.049C419.833 361.449 419.225 361.309 418.617 360.329C418.009 359.349 416.793 359.489 416.641 360.609C416.489 361.729 416.337 363.409 415.273 363.409C414.209 363.409 413.753 363.689 413.297 364.249C412.841 364.809 412.081 365.789 412.081 366.349C412.081 366.909 411.929 367.469 411.169 367.609C410.409 367.749 410.257 369.289 410.257 369.289C410.257 369.289 408.433 369.569 408.281 370.269C408.129 370.969 408.433 372.089 406.913 372.229C405.393 372.369 404.481 373.349 404.025 374.049C403.569 374.749 403.417 375.309 404.025 376.009C404.633 376.709 405.089 378.949 405.849 379.369C406.609 379.789 407.217 379.929 407.065 381.049C406.913 382.169 406.001 383.009 407.217 383.009C408.433 383.009 409.193 383.289 408.737 384.269C408.281 385.249 408.281 385.389 407.369 385.809C406.457 386.229 406.001 386.229 406.001 387.349C406.001 388.469 406.305 388.469 405.545 388.889C404.785 389.309 404.785 389.869 404.785 390.709C404.785 391.549 404.481 391.269 403.569 392.249C402.657 393.229 401.441 393.229 400.681 392.949C399.921 392.669 399.769 392.669 399.617 391.829C399.465 390.989 398.097 390.989 397.337 391.129C396.577 391.269 395.513 392.109 395.513 392.109C395.513 392.109 394.145 392.949 394.753 393.649C395.361 394.349 395.057 395.469 393.993 395.329C392.929 395.189 390.497 396.449 389.737 395.189C388.977 393.929 386.849 393.089 386.545 394.769C386.241 396.449 387.457 396.309 387.305 397.989C387.153 399.669 386.849 399.669 386.241 400.229C385.633 400.789 385.633 401.209 385.481 401.909C385.329 402.609 385.177 404.149 386.241 404.709C387.305 405.269 387.761 406.809 387.761 407.649C387.761 408.489 387.761 409.329 388.825 409.329C389.889 409.329 390.801 409.189 390.953 408.209C391.105 407.229 393.233 406.669 393.385 408.629C393.537 410.589 393.537 411.569 394.297 412.409C395.057 413.249 395.665 414.369 396.273 414.789C396.881 415.209 397.907 418.779 397.907 418.779C396.425 419.094 396.045 421.019 395.095 421.404C394.563 421.614 393.993 421.439 393.499 421.789C393.119 422.069 393.119 422.594 392.587 422.839C391.485 423.329 391.675 421.614 390.345 422.244C389.129 422.804 389.015 424.204 387.267 423.609C386.355 423.294 385.785 419.724 385.519 418.884C385.367 418.394 384.417 416.924 384.113 416.469C383.087 414.929 381.035 416.469 380.389 416.014C379.363 415.314 379.819 414.124 378.261 413.984C375.107 413.774 377.349 415.909 376.019 416.399C373.473 417.309 373.473 414.019 371.573 415.524C370.851 416.084 372.713 416.434 372.257 417.414C371.877 418.219 370.015 419.444 370.129 420.389C370.281 421.684 371.687 422.069 372.105 423.154C373.245 426.024 371.345 428.019 368.495 425.779C366.899 424.519 366.595 422.174 364.125 422.349C363.555 422.384 363.365 422.979 362.795 423.049C362.225 423.084 361.769 422.524 361.161 422.699C360.249 423.014 361.047 423.644 360.857 424.169C360.857 424.169 359.641 425.184 359.451 425.464C358.767 426.374 358.995 427.179 358.007 427.914C357.171 428.544 356.525 428.159 355.613 429.139C354.663 430.154 354.587 431.659 353.371 432.639C352.763 433.129 352.345 431.169 351.585 432.464C351.471 432.639 351.357 432.814 351.281 432.989C351.091 433.374 351.053 433.549 351.243 433.969C352.839 437.049 349.495 438.204 348.469 440.374C348.013 441.284 349.267 442.124 348.773 442.824C348.431 443.349 346.949 444.784 346.835 445.099C346.721 445.414 346.569 446.114 346.303 446.359C346.037 446.639 345.125 446.499 345.049 446.919C344.973 447.409 345.999 447.794 346.265 448.109C346.607 448.494 346.113 449.019 346.227 449.124C347.937 450.839 346.911 450.314 347.785 451.819C347.899 452.029 348.431 451.644 348.621 452.204C348.811 452.729 348.203 452.694 348.431 453.289C348.469 453.464 349.685 455.039 349.685 455.074C349.761 455.599 347.367 456.684 346.835 456.684C345.391 456.719 348.089 453.709 345.733 453.709C344.707 453.709 344.631 456.054 344.365 456.299C344.251 456.404 343.301 456.299 343.073 456.299C341.553 456.299 340.565 458.189 339.957 458.364C339.577 458.504 338.741 458.154 338.095 458.259C337.487 458.364 336.765 458.959 336.195 458.959C335.815 458.959 335.625 458.714 335.321 458.539C334.637 458.154 333.383 457.979 332.623 457.734C332.205 457.594 331.407 458.259 331.141 458.084C330.647 457.769 331.483 456.894 330.343 456.264C330.191 456.194 329.355 454.164 329.393 454.059C329.773 452.729 330.191 451.294 330.001 449.894C329.773 448.459 327.531 447.234 326.923 446.079C326.467 445.204 326.049 442.894 325.175 442.299C324.225 441.669 323.351 440.444 322.857 439.499C322.705 439.219 323.161 438.729 322.819 438.239C322.439 437.714 321.717 437.504 321.527 436.804C321.375 436.244 321.527 434.424 320.881 434.039C320.159 433.619 315.523 433.059 314.383 432.954C313.775 432.919 313.319 432.919 312.863 432.464C312.673 432.289 312.369 431.554 312.217 431.554C311.761 431.519 311.229 431.764 310.773 431.799C310.431 431.834 309.861 431.589 309.557 431.799C308.075 432.814 307.695 434.109 306.289 435.194C304.845 436.279 303.249 436.244 301.805 437.504C300.893 438.309 300.285 440.234 299.373 441.144C298.993 441.529 298.385 441.144 298.233 441.319C297.473 442.264 296.409 442.824 295.649 443.699C295.497 443.874 295.535 444.224 295.345 444.364L293.711 444.784C293.293 444.854 292.495 444.749 292.153 444.854C291.393 445.099 291.431 445.904 288.847 446.429C288.657 446.464 288.315 446.639 288.163 446.744C287.859 446.954 287.631 447.269 287.327 447.479C287.137 447.619 286.567 447.374 286.225 447.409C285.579 447.514 285.199 448.074 284.591 448.144C283.223 448.319 281.019 447.514 279.955 447.934C279.309 448.179 277.523 450.174 276.877 450.384C276.459 450.524 276.155 450.349 275.699 450.174C275.471 450.454 274.939 452.624 274.749 453.114C274.749 453.149 271.823 455.599 271.595 455.879C271.215 456.299 271.063 456.754 270.607 457.209C270.303 457.524 269.809 457.804 269.315 457.804C268.707 457.804 267.795 457.349 267.225 457.244C266.123 457.069 262.817 456.929 261.829 457.139C260.803 457.349 261.107 460.289 258.561 460.569C257.079 460.744 255.711 461.024 254.191 461.164C254.039 461.164 253.127 460.534 252.215 460.779C251.873 460.884 250.771 462.004 250.771 462.354V462.984C250.771 463.089 251.075 463.474 251.037 463.509C250.467 464.174 249.175 465.224 248.757 465.994C248.643 466.204 248.491 466.449 248.301 466.589C247.959 466.834 246.211 467.499 246.059 467.814C245.641 468.864 247.275 469.844 247.123 470.264C246.667 471.629 244.843 472.924 244.273 474.184C244.045 474.709 244.881 476.459 244.843 477.054C244.653 478.699 244.083 480.799 244.159 482.409C244.159 482.724 244.387 484.369 244.501 484.544C244.691 484.859 245.109 485.034 245.375 485.314C245.641 485.594 247.655 489.514 247.731 489.934C248.111 492.839 243.893 491.824 246.325 494.729C246.705 495.184 247.009 495.674 247.427 496.059C247.959 496.584 251.075 498.859 251.113 499.104C251.189 499.524 248.605 499.944 248.149 500.399C246.933 501.589 245.907 503.794 244.729 505.019C244.007 505.789 243.361 504.949 242.411 506.734C242.069 507.399 242.411 508.904 241.993 509.324C241.385 509.954 240.891 509.114 240.283 509.394C240.017 509.499 239.865 510.269 239.599 510.479C238.915 511.074 232.835 514.294 232.265 514.014C231.961 513.874 231.619 512.859 231.581 512.544C231.505 512.194 231.125 511.424 230.821 511.179C229.263 509.849 226.869 509.604 225.349 511.214C224.969 511.634 224.931 512.264 224.437 512.684C223.601 513.384 222.651 514.014 221.853 514.714C221.701 514.854 221.245 515.379 221.055 515.344C220.447 515.274 218.965 513.594 218.585 513.139C217.901 512.334 215.925 510.409 215.735 509.499C215.735 506.384 213.303 503.129 212.277 500.084L213.797 500.119C215.507 498.964 215.013 496.129 218.091 497.249C218.471 496.724 218.433 496.164 219.155 495.779C219.421 495.639 219.915 495.499 220.067 495.254C221.093 493.679 222.309 487.659 221.245 486.119C220.295 484.719 219.307 484.789 218.547 482.479C218.319 481.849 218.737 481.114 218.547 480.414C218.395 479.854 217.369 476.529 217.217 476.284C217.027 476.004 216.381 475.654 216.343 475.479C216.305 475.199 216.077 471.594 216.191 471.314C215.165 468.514 211.707 466.729 211.517 466.414C211.099 465.749 210.681 464.874 210.225 464.139C209.693 463.264 209.693 462.809 209.389 461.969C209.275 461.584 208.705 461.269 208.667 460.849C208.591 460.114 210.681 458.574 210.605 457.279C210.567 456.859 209.275 455.599 209.541 454.899C209.807 454.164 211.137 452.519 211.099 451.714C211.023 450.629 209.009 448.284 208.743 447.129C208.629 446.569 209.541 446.114 209.313 445.729C209.047 445.239 206.919 443.314 206.577 442.754C206.311 442.334 207.375 441.774 206.615 441.004C205.931 440.304 206.501 440.549 206.311 439.954C206.083 439.289 205.323 438.694 205.019 437.994C204.753 437.399 202.929 430.819 202.967 430.434C202.663 429.979 202.131 429.594 201.865 429.139C201.599 428.684 201.485 427.809 201.257 427.459C201.219 427.424 199.205 426.829 198.825 426.234C198.521 425.744 198.445 424.134 197.913 423.329C197.647 422.944 197.229 423.014 196.925 422.734C196.659 422.524 196.697 422.139 196.507 421.894C195.899 421.054 194.683 421.824 193.847 418.744C192.745 417.974 191.719 417.309 190.769 416.364C190.579 416.189 190.465 415.979 190.237 415.874C189.477 415.559 188.337 415.454 187.691 414.894C187.311 414.894 185.297 414.824 185.069 414.684C184.841 414.544 184.613 413.669 184.461 413.634C183.397 413.424 181.649 413.529 180.737 412.759C180.015 412.129 179.863 409.084 178.571 409.504C178.419 409.434 178.229 409.364 178.039 409.399C177.203 408.314 174.315 408.174 173.137 407.474C172.795 407.264 171.693 407.439 171.693 407.124C171.959 406.529 171.883 406.039 171.921 405.444C171.275 404.814 170.857 404.079 170.401 403.624C169.299 403.379 169.717 403.274 169.033 402.854C167.133 402.714 166.943 403.029 165.727 404.149C165.423 404.429 164.815 404.499 164.435 404.709C163.789 405.059 163.599 406.214 162.687 405.689C162.383 405.514 162.193 405.234 161.965 405.024C161.433 404.569 161.129 404.814 160.863 403.974C159.305 403.134 155.011 406.039 153.985 404.009C153.263 403.624 152.731 404.114 152.123 403.484C151.819 403.169 152.959 399.669 149.843 398.234C150.565 397.674 151.325 397.289 152.009 396.764C152.199 396.379 151.971 395.784 151.971 395.399C151.971 394.804 152.351 393.649 152.237 393.229C152.123 392.809 151.667 392.459 151.515 391.969C151.325 391.479 151.553 390.849 151.287 390.324C151.097 390.184 150.527 389.834 150.299 389.834C149.501 389.169 148.627 388.749 147.981 387.944C147.829 387.769 147.715 387.454 147.525 387.314C146.955 386.894 145.093 386.334 145.169 385.459C145.207 385.179 145.587 385.144 145.701 384.864C145.815 384.514 145.739 384.059 146.005 383.744C146.879 382.554 148.817 383.079 148.513 380.874C148.361 379.894 147.677 379.054 147.487 378.004C147.145 377.759 147.107 377.339 146.803 377.094C144.903 376.919 145.169 374.959 144.485 374.504C142.471 373.139 140.913 373.979 143.155 371.284C143.459 370.409 141.217 369.009 140.761 368.519C139.963 367.749 140.343 366.139 140.039 365.299C139.887 364.879 138.557 364.144 138.139 363.549C138.025 363.374 137.683 362.464 137.493 362.359L137.531 362.079C137.949 361.764 137.721 361.134 137.607 360.714C137.341 360.469 136.771 360.539 136.581 360.364C134.757 358.719 132.553 357.984 130.159 357.039C129.513 356.794 129.703 356.269 129.171 356.024C128.715 355.814 125.485 354.379 125.257 354.449C124.877 354.344 124.611 352.909 124.345 352.454C124.117 352.034 123.205 351.264 123.205 351.229C123.281 349.899 122.445 349.724 121.419 349.024C121.495 348.849 121.305 348.429 121.305 348.219C121.305 348.044 121.989 345.734 122.103 345.419C122.293 344.929 122.939 344.474 122.825 343.914C122.673 343.039 122.559 341.674 122.255 340.904C121.229 338.174 120.013 338.524 120.659 334.954C120.811 334.219 120.545 333.799 121.115 333.134C121.039 333.099 121.381 332.749 121.419 332.679C121.761 332.364 122.711 331.839 122.901 331.594C123.471 330.824 123.813 329.074 124.535 328.514C125.067 328.094 126.587 327.289 126.853 326.939C127.081 326.659 127.423 325.784 127.233 325.434C126.701 325.119 126.169 325.259 125.637 325.189C125.447 325.154 124.763 324.664 124.231 324.559C124.079 324.384 123.813 324.174 123.813 323.929L123.585 323.719C122.977 323.649 122.293 323.264 121.761 323.089C121.077 322.809 120.127 322.774 119.481 322.389C118.265 321.689 116.897 319.764 115.719 319.484C114.123 319.134 113.097 319.624 111.577 319.694C110.589 319.764 110.589 319.169 109.791 318.924C108.727 318.609 109.525 319.484 107.093 318.714C106.789 318.469 107.245 317.629 107.283 317.314C106.903 317.209 106.447 317.419 105.991 317.314C103.977 316.824 104.737 315.004 104.205 313.814C103.977 313.534 103.141 313.604 102.761 313.569C102.647 313.534 102.609 313.359 102.647 313.289L102.837 313.149C103.179 312.624 101.963 311.294 102.001 311.119C102.077 310.699 104.547 310.314 104.889 310.279C105.003 309.964 104.661 309.684 104.623 309.369C104.547 308.669 105.003 307.759 105.231 307.129L105.155 306.919C104.471 306.534 104.243 305.974 103.635 305.519C103.673 305.204 104.091 304.994 104.167 304.679C105.345 301.424 107.169 304.014 108.765 301.004C108.917 300.724 109.373 299.989 109.525 299.499L109.829 299.429C110.133 299.499 110.551 299.744 110.855 299.639C111.083 299.324 111.577 299.219 111.957 299.114L112.527 299.254C115.491 298.624 114.807 297.539 116.517 296.314C116.973 295.999 118.303 295.859 118.911 295.649C119.557 295.929 120.469 296.944 121.685 297.399C122.559 297.749 125.561 298.379 126.055 298.659C126.701 299.009 126.815 299.849 127.385 300.164C129.095 301.074 128.107 299.534 129.741 299.849C131.413 300.199 132.781 301.564 134.339 302.229C134.605 302.334 135.251 302.194 135.555 302.124C136.049 302.019 138.709 301.529 138.975 301.634C139.279 301.739 139.735 302.019 140.039 302.089C140.419 302.159 140.723 301.354 140.989 301.389C142.129 301.564 142.167 302.019 143.687 301.879C143.763 301.879 144.485 297.609 145.207 297.399C145.625 297.294 146.765 298.414 147.107 298.484C147.677 298.624 147.069 297.609 147.031 297.539C146.879 297.189 146.081 294.564 146.119 294.319C146.157 294.179 146.879 294.529 147.221 294.424C148.057 294.144 149.197 293.934 149.805 293.269C149.881 293.199 151.173 291.344 151.211 291.274C151.287 290.959 150.869 290.224 151.059 289.979C151.249 289.769 151.971 289.489 152.313 289.139C152.807 288.649 152.883 287.809 153.567 287.459C156.265 287.214 157.215 285.114 159.647 284.834C159.799 284.834 160.331 284.729 160.445 284.764L160.939 285.569C161.091 285.779 162.725 286.759 162.991 286.689C163.219 286.654 163.333 286.269 163.561 286.199C164.055 286.269 165.423 285.429 165.575 285.009C165.613 284.939 165.271 284.519 165.423 284.239C165.537 284.029 167.247 282.769 167.513 282.629C168.121 282.629 168.767 282.489 169.337 282.699C169.679 282.839 169.717 283.364 170.097 283.434C170.515 283.469 171.275 283.294 171.579 283.364C171.921 283.434 172.073 282.734 172.491 282.699L172.567 282.769Z" fill="#D0A650"/>
<path d="M302.308 84L323.468 149.125L268.07 108.875H336.546L281.148 149.125L302.308 84Z" fill="white"/>
<path d="M384.706 98.53L405.866 163.655L350.468 123.405H418.944L363.546 163.655L384.706 98.53Z" fill="white"/>
<path d="M463.33 127.146L484.49 192.271L429.092 152.021H497.568L442.17 192.271L463.33 127.146Z" fill="white"/>
</svg>
