<svg width="600" height="600" viewBox="0 0 600 600" fill="none" xmlns="http://www.w3.org/2000/svg">
<g clip-path="url(#clip0)">
<path d="M0 0H600V600H0V0Z" fill="#D82126"/>
<path d="M-150 360V240L750 360V240L-150 360ZM255 0H345L300 235.714L255 0ZM345 600H255L300 364.286L345 600ZM-150 0H-15L341.336 333.086L-150 0ZM-150 600H-15L341.336 266.914L-150 600ZM750 0H615L258.664 333.086L750 0ZM750 600H615L258.664 266.914L750 600Z" fill="#F8E92E"/>
<path d="M300 407.143C359.174 407.143 407.143 359.173 407.143 300C407.143 240.826 359.174 192.857 300 192.857C240.827 192.857 192.857 240.826 192.857 300C192.857 359.173 240.827 407.143 300 407.143Z" fill="#D82126"/>
<path d="M300 385.714C347.339 385.714 385.715 347.339 385.715 300C385.715 252.661 347.339 214.286 300 214.286C252.662 214.286 214.286 252.661 214.286 300C214.286 347.339 252.662 385.714 300 385.714Z" fill="#F8E92E"/>
</g>
<defs>
<clipPath id="clip0">
<rect width="600" height="600" rx="300" fill="white"/>
</clipPath>
</defs>
</svg>
