<svg width="600" height="600" viewBox="0 0 600 600" fill="none" xmlns="http://www.w3.org/2000/svg">
<path d="M600 0H0V600H600V0Z" fill="#FF0000"/>
<path d="M240 0H0V600H240V0Z" fill="#006600"/>
<path fill-rule="evenodd" clip-rule="evenodd" d="M347.97 384.909C306.528 383.661 116.493 265.041 115.19 246.152L125.684 228.652C144.534 256.041 338.806 371.401 357.888 367.313L347.97 384.904" fill="#FFFF00"/>
<path d="M347.97 384.909C306.528 383.661 116.493 265.041 115.19 246.152L125.684 228.652C144.534 256.041 338.806 371.401 357.888 367.313L347.97 384.904" stroke="black" stroke-width="0.573" stroke-linecap="round" stroke-linejoin="round"/>
<path fill-rule="evenodd" clip-rule="evenodd" d="M123.476 226.274C119.758 236.28 173.065 269.236 237.202 308.245C301.336 347.25 356.637 371.355 360.736 367.899C360.987 367.452 362.753 364.413 362.591 364.437C361.823 365.595 359.952 365.96 357.034 365.12C339.707 360.122 294.515 339.378 238.547 305.438C182.58 271.496 133.887 240.217 126.318 226.927C125.792 226.007 125.417 224.326 125.493 223.02L125.309 223.017L123.698 225.833L123.477 226.275H123.475L123.476 226.274ZM348.944 385.458C348.241 386.733 346.931 386.775 344.442 386.502C328.941 384.786 281.904 361.912 226.246 328.594C161.483 289.827 107.997 254.503 113.799 245.271L115.378 242.48L115.689 242.577C110.471 258.222 221.246 321.562 227.768 325.601C291.864 365.31 345.9 388.499 350.682 382.473L348.942 385.465V385.462L348.944 385.458Z" fill="#FFFF00" stroke="black" stroke-width="0.573" stroke-linecap="round" stroke-linejoin="round"/>
<path fill-rule="evenodd" clip-rule="evenodd" d="M240.874 257.592C282.353 257.264 333.539 251.924 362.996 240.184L356.649 229.873C339.238 239.509 287.771 245.846 240.523 246.794C184.642 246.28 145.197 241.076 125.434 227.815L119.443 238.795C155.774 254.169 193.003 257.434 240.874 257.593" fill="#FFFF00"/>
<path d="M240.874 257.592C282.353 257.264 333.539 251.924 362.996 240.184L356.649 229.873C339.238 239.509 287.771 245.846 240.523 246.794C184.642 246.28 145.197 241.076 125.434 227.815L119.443 238.795C155.774 254.169 193.003 257.434 240.874 257.593" stroke="black" stroke-width="0.573" stroke-linecap="round" stroke-linejoin="round"/>
<path fill-rule="evenodd" clip-rule="evenodd" d="M364.706 240.417C363.692 242.039 344.481 248.664 316.181 253.553C296.993 256.478 271.963 258.979 240.727 259.009C211.051 259.037 186.808 256.925 168.455 254.437C138.747 249.779 123.415 243.298 117.747 241.008C118.289 239.93 118.637 239.174 119.16 238.167C135.477 244.664 150.881 248.582 168.927 251.358C187.16 253.827 211.11 255.97 240.639 255.942C271.73 255.911 296.484 253.22 315.561 250.382C344.582 245.701 360.434 239.677 362.661 236.88L364.71 240.417H364.707H364.706ZM359.136 229.961C355.99 232.487 340.318 238.045 312.743 242.449C294.34 245.086 270.942 247.447 241.046 247.476C212.644 247.504 189.44 245.59 171.791 243.019C143.787 239.361 128.882 232.764 123.509 230.84C124.044 229.916 124.588 228.999 125.147 228.078C129.328 230.183 143.712 236.022 172.098 240.044C189.548 242.518 212.787 244.362 241.048 244.333C270.802 244.302 293.935 241.896 312.221 239.273C339.938 235.46 354.852 228.371 357.117 226.596L359.137 229.958V229.961L359.136 229.961Z" fill="#FFFF00" stroke="black" stroke-width="0.573" stroke-linecap="round" stroke-linejoin="round"/>
<path fill-rule="evenodd" clip-rule="evenodd" d="M104.668 307.567C130.181 321.289 186.846 328.204 240.468 328.68C289.291 328.758 352.898 321.133 376.683 308.528L376.029 294.794C368.587 306.423 300.425 317.578 239.938 317.121C179.452 316.665 123.283 307.323 104.56 295.229L104.669 307.563" fill="#FFFF00"/>
<path d="M104.668 307.567C130.181 321.289 186.846 328.204 240.468 328.68C289.291 328.758 352.898 321.133 376.683 308.528L376.029 294.794C368.587 306.423 300.425 317.578 239.938 317.121C179.452 316.665 123.283 307.323 104.56 295.229L104.669 307.563" stroke="black" stroke-width="0.573" stroke-linecap="round" stroke-linejoin="round"/>
<path fill-rule="evenodd" clip-rule="evenodd" d="M377.985 305.592L377.986 308.867C374.411 313.141 351.996 319.602 323.886 324.151C302.493 327.431 274.602 329.905 239.847 329.905C206.829 329.905 180.499 327.551 160.08 324.416C127.803 319.716 107.157 311.485 103.013 309.029L103.031 305.208C115.48 313.484 149.207 319.539 160.533 321.392C180.819 324.506 206.993 326.843 239.846 326.843C274.437 326.843 302.172 324.386 323.431 321.127C343.598 318.214 372.328 310.638 377.983 305.593H377.985L377.985 305.592ZM377.998 293.942L378 297.217C374.425 301.489 352.01 307.95 323.9 312.499C302.507 315.779 274.615 318.253 239.861 318.253C206.843 318.253 180.513 315.901 160.094 312.764C127.817 308.066 107.171 299.835 103.027 297.378L103.045 293.557C115.494 301.832 149.221 307.888 160.547 309.739C180.833 312.855 207.007 315.193 239.86 315.193C274.451 315.193 302.186 312.734 323.445 309.474C343.612 306.56 372.341 298.984 377.997 293.939L377.998 293.942L377.998 293.942Z" fill="#FFFF00" stroke="black" stroke-width="0.573" stroke-linecap="round" stroke-linejoin="round"/>
<path fill-rule="evenodd" clip-rule="evenodd" d="M240.352 382.549C181.678 382.2 131.403 366.555 120.787 363.97L128.528 376.089C147.281 383.977 196.328 395.733 240.915 394.431C285.504 393.13 324.472 389.676 351.932 376.308L359.87 363.749C341.156 372.562 277.469 382.459 240.352 382.549" fill="#FFFF00"/>
<path d="M240.352 382.549C181.678 382.2 131.403 366.555 120.787 363.97L128.528 376.089C147.281 383.977 196.328 395.733 240.915 394.431C285.504 393.13 324.472 389.676 351.932 376.308L359.87 363.749C341.156 372.562 277.469 382.459 240.352 382.549" stroke="black" stroke-width="0.573" stroke-linecap="round" stroke-linejoin="round"/>
<path fill-rule="evenodd" clip-rule="evenodd" d="M354.911 373.496C353.745 375.278 352.556 377.038 351.35 378.749C338.398 383.316 317.989 388.111 309.377 389.509C291.785 393.134 264.567 395.811 240.411 395.823C188.434 395.062 145.887 384.887 125.871 376.208L124.256 373.431L124.52 373.014L127.259 374.076C162.855 386.811 202.833 391.892 240.704 392.804C264.763 392.889 288.847 390.047 308.323 386.564C338.188 380.58 350.264 376.069 353.969 374.025L354.912 373.496H354.91L354.911 373.496ZM361.794 362.143C361.824 362.179 361.854 362.212 361.884 362.25C361.011 363.722 360.112 365.22 359.192 366.725C352.284 369.194 333.536 374.68 306.159 378.508C288.122 380.965 276.91 383.345 241.028 384.042C173.789 382.331 130.255 369.184 119.913 365.941L118.38 363.001C157.348 373.173 197.152 380.275 241.03 381C273.859 380.301 287.825 377.884 305.713 375.445C337.636 370.481 353.72 365.225 358.548 363.708C358.487 363.621 358.416 363.529 358.336 363.434L361.797 362.141L361.795 362.144L361.794 362.143Z" fill="#FFFF00" stroke="black" stroke-width="0.55" stroke-linecap="round" stroke-linejoin="round"/>
<path fill-rule="evenodd" clip-rule="evenodd" d="M362.498 296.73C362.688 335.328 342.936 369.965 327.026 385.245C304.517 406.863 274.674 420.769 239.822 421.41C200.904 422.125 164.208 396.753 154.366 385.607C135.122 363.816 119.455 336.144 118.953 298.851C121.336 256.724 137.874 227.38 161.846 207.257C185.818 187.134 217.737 177.334 244.32 178.035C274.991 178.844 310.818 193.89 335.573 223.76C351.792 243.33 358.816 264.568 362.498 296.73ZM240.152 164.568C314.895 164.568 376.366 225.391 376.366 299.969C376.366 374.545 314.895 435.37 240.152 435.37C165.41 435.37 104.449 374.546 104.449 299.969C104.449 225.391 165.41 164.568 240.152 164.568" fill="#FFFF00"/>
<path d="M240.152 164.568C314.895 164.568 376.366 225.391 376.366 299.969C376.366 374.545 314.895 435.37 240.152 435.37C165.41 435.37 104.449 374.546 104.449 299.969C104.449 225.391 165.41 164.568 240.152 164.568M362.498 296.73C362.688 335.328 342.936 369.965 327.026 385.245C304.517 406.863 274.674 420.769 239.822 421.41C200.904 422.125 164.208 396.753 154.366 385.607C135.122 363.816 119.455 336.144 118.953 298.851C121.336 256.724 137.874 227.38 161.846 207.257C185.818 187.134 217.737 177.334 244.32 178.035C274.991 178.844 310.818 193.89 335.573 223.76C351.792 243.33 358.816 264.568 362.498 296.73Z" stroke="black" stroke-width="0.573" stroke-linecap="round" stroke-linejoin="round"/>
<path fill-rule="evenodd" clip-rule="evenodd" d="M240.517 164.104C315.327 164.104 376.34 225.126 376.34 299.943C376.34 374.758 315.325 435.778 240.517 435.778C165.707 435.778 104.694 374.759 104.694 299.943C104.694 225.126 165.709 164.104 240.517 164.104V164.104ZM107.683 299.943C107.683 373.005 167.68 432.791 240.517 432.791C313.355 432.791 373.352 373.005 373.352 299.943C373.352 226.878 313.354 167.093 240.517 167.093C167.68 167.093 107.683 226.881 107.683 299.943Z" fill="#FFFF00" stroke="black" stroke-width="0.573" stroke-linecap="round" stroke-linejoin="round"/>
<path fill-rule="evenodd" clip-rule="evenodd" d="M240.627 175.394C308.848 175.394 365.039 231.392 365.039 299.822C365.039 368.253 308.846 424.248 240.627 424.248C172.407 424.248 116.214 368.253 116.214 299.822C116.214 231.392 172.409 175.394 240.627 175.394V175.394ZM119.202 299.821C119.202 366.607 174.045 421.258 240.627 421.258C307.208 421.258 362.051 366.607 362.051 299.821C362.051 233.034 307.21 178.383 240.627 178.383C174.045 178.383 119.202 233.034 119.202 299.821Z" fill="#FFFF00" stroke="black" stroke-width="0.573" stroke-linecap="round" stroke-linejoin="round"/>
<path fill-rule="evenodd" clip-rule="evenodd" d="M246.1 163.556H234.46L234.474 436.489H246.154L246.1 163.556Z" fill="#FFFF00" stroke="black" stroke-width="0.573" stroke-linecap="round" stroke-linejoin="round"/>
<path fill-rule="evenodd" clip-rule="evenodd" d="M244.935 162H247.897L247.923 438.074H244.958L244.936 162H244.935ZM233.382 162.002H236.368L236.372 438.077H233.384V162.002H233.382Z" fill="#FFFF00" stroke="black" stroke-width="0.573" stroke-linecap="round" stroke-linejoin="round"/>
<path fill-rule="evenodd" clip-rule="evenodd" d="M376.435 305.201V295.111L368.218 287.456L321.577 275.11L254.359 268.251L173.423 272.366L115.807 286.084L104.174 294.699V304.792L133.641 291.572L203.602 280.597H270.82L320.205 286.084L354.5 294.315L376.435 305.201Z" fill="#FFFF00" stroke="black" stroke-width="0.573" stroke-linecap="round" stroke-linejoin="round"/>
<path fill-rule="evenodd" clip-rule="evenodd" d="M240.572 278.91C272.649 278.851 303.771 281.949 328.456 286.756C353.929 291.848 371.856 298.218 377.985 305.373L377.978 308.915C370.586 300.012 346.464 293.485 327.883 289.754C303.385 284.988 272.472 281.911 240.572 281.971C206.911 282.034 175.567 285.222 151.427 289.931C132.057 293.775 106.225 301.411 103 308.942V305.253C104.771 300.04 124.006 292.25 150.991 286.848C175.312 282.105 206.713 278.971 240.572 278.91V278.91ZM240.586 267.26C272.663 267.202 303.785 270.302 328.47 275.106C353.943 280.201 371.87 286.569 377.999 293.723L377.992 297.265C370.6 288.364 346.478 281.837 327.897 278.107C303.399 273.339 272.486 270.262 240.586 270.324C206.925 270.384 175.733 273.575 151.59 278.282C132.898 281.826 106.011 289.764 103.012 297.295V293.604C104.783 288.448 124.408 280.378 151.005 275.199C175.325 270.456 206.727 267.325 240.586 267.261V267.26Z" fill="#FFFF00" stroke="black" stroke-width="0.573" stroke-linecap="round" stroke-linejoin="round"/>
<path fill-rule="evenodd" clip-rule="evenodd" d="M239.927 207.837C290.477 207.584 334.568 214.905 354.74 225.239L362.098 237.967C344.565 228.518 296.998 218.694 240.001 220.163C193.56 220.448 143.938 225.276 119.042 238.559L127.826 223.868C148.259 213.272 196.446 207.896 239.929 207.84" fill="#FFFF00"/>
<path d="M239.927 207.837C290.477 207.584 334.568 214.905 354.74 225.239L362.098 237.967C344.565 228.518 296.998 218.694 240.001 220.163C193.56 220.448 143.938 225.276 119.042 238.559L127.826 223.868C148.259 213.272 196.446 207.896 239.929 207.84" stroke="black" stroke-width="0.573" stroke-linecap="round" stroke-linejoin="round"/>
<path fill-rule="evenodd" clip-rule="evenodd" d="M240.599 218.345C269.43 218.269 297.289 219.895 319.445 223.892C340.078 227.732 359.755 233.496 362.569 236.596L364.75 240.45C357.907 235.982 340.879 231.007 319.015 226.861C297.058 222.735 269.219 221.367 240.549 221.442C208.007 221.331 182.725 223.049 161.027 226.832C138.079 231.126 122.158 237.26 118.231 240.175L120.369 236.1C128 232.207 140.109 227.513 160.457 223.85C182.895 219.751 208.446 218.522 240.601 218.345H240.6L240.599 218.345ZM240.587 206.706C268.178 206.634 295.42 208.172 316.656 211.989C333.404 215.249 349.967 220.339 356.032 224.869L359.222 229.938C353.799 223.909 333.383 218.196 315.36 214.996C294.288 211.362 268.177 209.924 240.586 209.694C211.63 209.775 184.871 211.548 164.106 215.329C144.296 219.099 131.512 223.562 126.103 227.048L128.908 222.813C136.373 218.884 148.432 215.275 163.619 212.324C184.538 208.515 211.462 206.787 240.588 206.706H240.587Z" fill="#FFFF00" stroke="black" stroke-width="0.573" stroke-linecap="round" stroke-linejoin="round"/>
<path fill-rule="evenodd" clip-rule="evenodd" d="M308.064 356.403C283.073 351.738 258.036 351.06 240.549 351.266C156.311 352.253 129.098 368.563 125.777 373.501L119.481 363.238C140.928 347.693 186.8 338.975 241.005 339.867C269.151 340.328 293.44 342.197 313.873 346.155L308.063 356.406" fill="#FFFF00"/>
<path d="M308.064 356.403C283.073 351.738 258.036 351.06 240.549 351.266C156.311 352.253 129.098 368.563 125.777 373.501L119.481 363.238C140.928 347.693 186.8 338.975 241.005 339.867C269.151 340.328 293.44 342.197 313.873 346.155L308.063 356.406" stroke="black" stroke-width="0.573" stroke-linecap="round" stroke-linejoin="round"/>
<path fill-rule="evenodd" clip-rule="evenodd" d="M240.064 349.818C263.497 350.168 286.498 351.136 308.699 355.276L307.092 358.114C286.472 354.308 264.49 352.851 240.144 352.97C209.055 352.727 177.61 355.63 150.235 363.487C141.597 365.891 127.297 371.445 125.839 376.033L124.239 373.396C124.7 370.684 133.343 365.054 149.5 360.515C180.856 351.535 210.187 350.022 240.064 349.816V349.819L240.064 349.818ZM241.128 338.026C265.406 338.48 290.478 339.602 314.848 344.43L313.174 347.384C291.167 343.015 270.142 341.559 241.271 341.115C210.083 341.172 177.001 343.395 146.921 352.14C137.21 354.969 120.45 361.085 119.891 365.927L118.292 363.093C118.656 358.695 133.165 352.958 146.219 349.161C176.53 340.349 209.699 338.083 241.128 338.026L241.128 338.026Z" fill="#FFFF00" stroke="black" stroke-width="0.55" stroke-linecap="round" stroke-linejoin="round"/>
<path fill-rule="evenodd" clip-rule="evenodd" d="M360.783 364.798L350.66 380.504L321.577 354.674L246.128 303.918L161.077 257.277L116.918 242.173L126.329 224.724L129.525 222.982L156.961 229.841L247.5 276.482L299.628 309.405L343.526 340.956L361.359 361.533L360.783 364.798Z" fill="#FFFF00" stroke="black" stroke-width="0.573" stroke-linecap="round" stroke-linejoin="round"/>
<path fill-rule="evenodd" clip-rule="evenodd" d="M115.327 242.585C123.072 237.332 179.992 262.689 239.55 298.601C298.951 334.616 355.71 375.313 350.586 382.929L348.901 385.58L348.128 386.19C348.294 386.071 349.148 385.027 348.045 382.203C345.514 373.876 305.251 341.748 238.446 301.411C173.32 262.577 119.044 239.172 113.617 245.862L115.327 242.584H115.326L115.327 242.585ZM362.854 364.575C367.752 354.901 314.957 315.13 249.5 276.407C182.538 238.454 134.277 216.115 125.462 222.776L123.503 226.342C123.486 226.538 123.575 226.098 123.989 225.779C125.591 224.38 128.248 224.475 129.447 224.453C144.626 224.68 187.978 244.631 248.802 279.5C275.453 295.022 361.387 350.136 361.059 365.634C361.082 366.966 361.169 367.241 360.668 367.9L362.854 364.576V364.573L362.854 364.575Z" fill="#FFFF00" stroke="black" stroke-width="0.573" stroke-linecap="round" stroke-linejoin="round"/>
<path d="M159.156 314.906C159.156 337.227 168.296 357.414 183.103 372.168C197.939 386.953 218.101 396.283 240.457 396.283C262.928 396.283 283.321 387.157 298.094 372.428C312.867 357.702 322.023 337.376 322.027 314.977H322.024V206.346L159.137 206.153L159.154 314.906H159.156L159.156 314.906Z" fill="white" stroke="black" stroke-width="0.67037"/>
<path d="M162.202 315.057V315.119C162.202 336.46 171.038 355.894 185.213 370.003C199.417 384.139 218.979 392.929 240.379 392.929C261.89 392.929 281.412 384.203 295.555 370.121C309.696 356.04 318.46 336.604 318.463 315.189H318.46V209.799L162.295 209.774L162.199 315.056L162.202 315.057ZM287.063 241.326L287.068 308.395L287.012 315.489H287.013C287.013 317.356 286.9 319.484 286.683 321.297C285.414 331.9 280.537 341.142 273.314 348.332C264.859 356.749 253.189 361.97 240.327 361.97C227.532 361.97 216.13 356.568 207.638 348.114C198.928 339.445 193.879 327.557 193.879 315.264L193.861 241.155L287.061 241.323L287.064 241.326L287.063 241.326Z" fill="#FF0000" stroke="black" stroke-width="0.50734"/>
<path d="M234.844 237.471C235.029 229.897 240.403 228.104 240.442 228.078C240.481 228.052 246.247 230.008 246.227 237.541L234.844 237.471" fill="#FFFF00"/>
<path d="M230.207 228.225L229.272 236.928L234.952 236.941C235.006 229.74 240.403 228.542 240.534 228.568C240.656 228.562 246.006 230.161 246.149 236.941H251.843L250.815 228.171L230.208 228.223V228.225L230.207 228.225Z" fill="#FFFF00" stroke="black" stroke-width="0.5"/>
<path d="M228.89 236.963H252.137C252.627 236.963 253.027 237.447 253.027 238.039C253.027 238.629 252.627 239.111 252.137 239.111H228.89C228.4 239.111 228 238.629 228 238.039C228 237.447 228.4 236.963 228.89 236.963Z" fill="#FFFF00" stroke="black" stroke-width="0.5"/>
<path d="M237.341 236.922C237.366 232.378 240.444 231.092 240.46 231.094C240.461 231.094 243.673 232.42 243.698 236.922H237.341" fill="#FFFF00"/>
<path d="M237.341 236.922C237.366 232.378 240.444 231.092 240.46 231.094C240.461 231.094 243.673 232.42 243.698 236.922H237.341" stroke="black" stroke-width="0.5"/>
<path d="M229.384 224.603H251.669C252.138 224.603 252.523 225.04 252.523 225.57C252.523 226.101 252.138 226.537 251.669 226.537H229.384C228.915 226.537 228.53 226.103 228.53 225.57C228.53 225.04 228.915 224.603 229.384 224.603Z" fill="#FFFF00" stroke="black" stroke-width="0.5"/>
<path d="M229.851 226.551H251.166C251.615 226.551 251.982 226.986 251.982 227.517C251.982 228.049 251.615 228.483 251.166 228.483H229.851C229.402 228.483 229.034 228.049 229.034 227.517C229.034 226.986 229.402 226.551 229.851 226.551Z" fill="#FFFF00" stroke="black" stroke-width="0.5"/>
<path d="M236.737 212.024L238.42 212.027V213.222H239.648V212L241.372 212.005V213.223H242.604V212.001H244.329L244.326 214.76C244.326 215.193 243.978 215.474 243.574 215.474H237.522C237.116 215.474 236.741 215.149 236.739 214.752L236.735 212.025H236.737L236.737 212.024Z" fill="#FFFF00" stroke="black" stroke-width="0.5"/>
<path d="M243.075 215.714L243.455 224.564L237.552 224.542L237.943 215.691L243.075 215.714" fill="#FFFF00"/>
<path d="M243.075 215.714L243.455 224.564L237.552 224.542L237.943 215.691L243.075 215.714" stroke="black" stroke-width="0.5"/>
<path d="M235.873 219.816L236.054 224.586L230.394 224.589L230.554 219.816H235.874H235.873L235.873 219.816Z" fill="#FFFF00" stroke="black" stroke-width="0.5"/>
<path d="M229.508 216.359L231.153 216.363V217.559H232.357V216.335L234.043 216.341V217.56H235.25V216.336L236.937 216.338L236.934 219.098C236.934 219.529 236.593 219.81 236.199 219.81H230.277C229.88 219.81 229.511 219.486 229.51 219.088L229.506 216.36H229.507L229.508 216.359Z" fill="#FFFF00" stroke="black" stroke-width="0.5"/>
<path d="M239.934 218.512C239.898 217.652 241.136 217.643 241.122 218.512V220.62H239.934V218.513" fill="black"/>
<path d="M232.622 221.572C232.617 220.74 233.77 220.723 233.755 221.572V223.2H232.622V221.572" fill="black"/>
<path d="M250.9 219.661L251.08 224.432L245.421 224.435L245.581 219.662H250.901H250.9L250.9 219.661Z" fill="#FFFF00" stroke="black" stroke-width="0.5"/>
<path d="M244.535 216.205L246.18 216.209V217.405H247.384V216.181L249.07 216.186V217.406H250.276V216.182L251.964 216.184L251.961 218.944C251.961 219.375 251.62 219.655 251.226 219.655H245.304C244.907 219.655 244.538 219.332 244.537 218.934L244.533 216.206H244.534L244.535 216.205Z" fill="#FFFF00" stroke="black" stroke-width="0.5"/>
<path d="M247.648 221.417C247.644 220.586 248.797 220.569 248.782 221.417V223.046H247.649V221.417" fill="black"/>
<path d="M297.844 237.471C298.029 229.897 303.403 228.104 303.442 228.078C303.481 228.052 309.247 230.008 309.227 237.541L297.844 237.471" fill="#FFFF00"/>
<path d="M293.207 228.225L292.272 236.928L297.952 236.941C298.006 229.74 303.403 228.542 303.534 228.568C303.656 228.562 309.006 230.161 309.149 236.941H314.843L313.815 228.171L293.208 228.223V228.225L293.207 228.225Z" fill="#FFFF00" stroke="black" stroke-width="0.5"/>
<path d="M291.89 236.963H315.137C315.627 236.963 316.027 237.447 316.027 238.039C316.027 238.629 315.627 239.111 315.137 239.111H291.89C291.4 239.111 291 238.629 291 238.039C291 237.447 291.4 236.963 291.89 236.963Z" fill="#FFFF00" stroke="black" stroke-width="0.5"/>
<path d="M300.341 236.922C300.366 232.378 303.444 231.092 303.46 231.094C303.461 231.094 306.673 232.42 306.698 236.922H300.341" fill="#FFFF00"/>
<path d="M300.341 236.922C300.366 232.378 303.444 231.092 303.46 231.094C303.461 231.094 306.673 232.42 306.698 236.922H300.341" stroke="black" stroke-width="0.5"/>
<path d="M292.384 224.603H314.669C315.138 224.603 315.523 225.04 315.523 225.57C315.523 226.101 315.138 226.537 314.669 226.537H292.384C291.915 226.537 291.53 226.103 291.53 225.57C291.53 225.04 291.915 224.603 292.384 224.603Z" fill="#FFFF00" stroke="black" stroke-width="0.5"/>
<path d="M292.851 226.551H314.166C314.615 226.551 314.982 226.986 314.982 227.517C314.982 228.049 314.615 228.483 314.166 228.483H292.851C292.402 228.483 292.034 228.049 292.034 227.517C292.034 226.986 292.402 226.551 292.851 226.551Z" fill="#FFFF00" stroke="black" stroke-width="0.5"/>
<path d="M299.737 212.024L301.42 212.027V213.222H302.648V212L304.372 212.005V213.223H305.604V212.001H307.329L307.326 214.76C307.326 215.193 306.978 215.474 306.574 215.474H300.522C300.116 215.474 299.741 215.149 299.739 214.752L299.735 212.025H299.737L299.737 212.024Z" fill="#FFFF00" stroke="black" stroke-width="0.5"/>
<path d="M306.075 215.714L306.455 224.564L300.552 224.542L300.943 215.691L306.075 215.714" fill="#FFFF00"/>
<path d="M306.075 215.714L306.455 224.564L300.552 224.542L300.943 215.691L306.075 215.714" stroke="black" stroke-width="0.5"/>
<path d="M298.873 219.816L299.054 224.586L293.394 224.589L293.554 219.816H298.874H298.873L298.873 219.816Z" fill="#FFFF00" stroke="black" stroke-width="0.5"/>
<path d="M292.508 216.359L294.153 216.363V217.559H295.357V216.335L297.043 216.341V217.56H298.25V216.336L299.937 216.338L299.934 219.098C299.934 219.529 299.593 219.81 299.199 219.81H293.277C292.88 219.81 292.511 219.486 292.51 219.088L292.506 216.36H292.507L292.508 216.359Z" fill="#FFFF00" stroke="black" stroke-width="0.5"/>
<path d="M302.934 218.512C302.898 217.652 304.136 217.643 304.122 218.512V220.62H302.934V218.513" fill="black"/>
<path d="M295.622 221.572C295.617 220.74 296.77 220.723 296.755 221.572V223.2H295.622V221.572" fill="black"/>
<path d="M313.9 219.661L314.08 224.432L308.421 224.435L308.581 219.662H313.901H313.9L313.9 219.661Z" fill="#FFFF00" stroke="black" stroke-width="0.5"/>
<path d="M307.535 216.205L309.18 216.209V217.405H310.384V216.181L312.07 216.186V217.406H313.276V216.182L314.964 216.184L314.961 218.944C314.961 219.375 314.62 219.655 314.226 219.655H308.304C307.907 219.655 307.538 219.332 307.537 218.934L307.533 216.206H307.534L307.535 216.205Z" fill="#FFFF00" stroke="black" stroke-width="0.5"/>
<path d="M310.648 221.417C310.644 220.586 311.797 220.569 311.782 221.417V223.046H310.649V221.417" fill="black"/>
<path d="M171.844 305.471C172.029 297.897 177.403 296.104 177.442 296.078C177.481 296.052 183.247 298.008 183.227 305.541L171.844 305.471" fill="#FFFF00"/>
<path d="M167.207 296.225L166.272 304.928L171.952 304.941C172.006 297.74 177.403 296.542 177.534 296.568C177.656 296.562 183.006 298.161 183.149 304.941H188.843L187.815 296.171L167.208 296.223V296.225L167.207 296.225Z" fill="#FFFF00" stroke="black" stroke-width="0.5"/>
<path d="M165.89 304.963H189.137C189.627 304.963 190.027 305.447 190.027 306.039C190.027 306.629 189.627 307.111 189.137 307.111H165.89C165.4 307.111 165 306.629 165 306.039C165 305.447 165.4 304.963 165.89 304.963Z" fill="#FFFF00" stroke="black" stroke-width="0.5"/>
<path d="M174.341 304.922C174.366 300.378 177.444 299.092 177.46 299.094C177.461 299.094 180.673 300.42 180.698 304.922H174.341" fill="#FFFF00"/>
<path d="M174.341 304.922C174.366 300.378 177.444 299.092 177.46 299.094C177.461 299.094 180.673 300.42 180.698 304.922H174.341" stroke="black" stroke-width="0.5"/>
<path d="M166.384 292.603H188.669C189.138 292.603 189.523 293.04 189.523 293.57C189.523 294.101 189.138 294.537 188.669 294.537H166.384C165.915 294.537 165.53 294.103 165.53 293.57C165.53 293.04 165.915 292.603 166.384 292.603Z" fill="#FFFF00" stroke="black" stroke-width="0.5"/>
<path d="M166.851 294.551H188.166C188.615 294.551 188.982 294.986 188.982 295.517C188.982 296.049 188.615 296.483 188.166 296.483H166.851C166.402 296.483 166.034 296.049 166.034 295.517C166.034 294.986 166.402 294.551 166.851 294.551Z" fill="#FFFF00" stroke="black" stroke-width="0.5"/>
<path d="M173.737 280.024L175.42 280.027V281.222H176.648V280L178.372 280.005V281.223H179.604V280.001H181.329L181.326 282.76C181.326 283.193 180.978 283.474 180.574 283.474H174.522C174.116 283.474 173.741 283.149 173.739 282.752L173.735 280.025H173.737L173.737 280.024Z" fill="#FFFF00" stroke="black" stroke-width="0.5"/>
<path d="M180.075 283.714L180.455 292.564L174.552 292.542L174.943 283.691L180.075 283.714" fill="#FFFF00"/>
<path d="M180.075 283.714L180.455 292.564L174.552 292.542L174.943 283.691L180.075 283.714" stroke="black" stroke-width="0.5"/>
<path d="M172.873 287.816L173.054 292.586L167.394 292.589L167.554 287.816H172.874H172.873L172.873 287.816Z" fill="#FFFF00" stroke="black" stroke-width="0.5"/>
<path d="M166.508 284.359L168.153 284.363V285.559H169.357V284.335L171.043 284.341V285.56H172.25V284.336L173.937 284.338L173.934 287.098C173.934 287.529 173.593 287.81 173.199 287.81H167.277C166.88 287.81 166.511 287.486 166.51 287.088L166.506 284.36H166.507L166.508 284.359Z" fill="#FFFF00" stroke="black" stroke-width="0.5"/>
<path d="M176.934 286.512C176.898 285.652 178.136 285.643 178.122 286.512V288.62H176.934V286.513" fill="black"/>
<path d="M169.622 289.572C169.617 288.74 170.77 288.723 170.755 289.572V291.2H169.622V289.572" fill="black"/>
<path d="M187.9 287.661L188.08 292.432L182.421 292.435L182.581 287.662H187.901H187.9L187.9 287.661Z" fill="#FFFF00" stroke="black" stroke-width="0.5"/>
<path d="M181.535 284.205L183.18 284.209V285.405H184.384V284.181L186.07 284.186V285.406H187.276V284.182L188.964 284.184L188.961 286.944C188.961 287.375 188.62 287.655 188.226 287.655H182.304C181.907 287.655 181.538 287.332 181.537 286.934L181.533 284.206H181.534L181.535 284.205Z" fill="#FFFF00" stroke="black" stroke-width="0.5"/>
<path d="M184.648 289.417C184.644 288.586 185.797 288.569 185.782 289.417V291.046H184.649V289.417" fill="black"/>
<path d="M297.844 304.471C298.029 296.897 303.403 295.104 303.442 295.078C303.481 295.052 309.247 297.008 309.227 304.541L297.844 304.471" fill="#FFFF00"/>
<path d="M293.207 295.225L292.272 303.928L297.952 303.941C298.006 296.74 303.403 295.542 303.534 295.568C303.656 295.562 309.006 297.161 309.149 303.941H314.843L313.815 295.171L293.208 295.223V295.225L293.207 295.225Z" fill="#FFFF00" stroke="black" stroke-width="0.5"/>
<path d="M291.89 303.963H315.137C315.627 303.963 316.027 304.447 316.027 305.039C316.027 305.629 315.627 306.111 315.137 306.111H291.89C291.4 306.111 291 305.629 291 305.039C291 304.447 291.4 303.963 291.89 303.963Z" fill="#FFFF00" stroke="black" stroke-width="0.5"/>
<path d="M300.341 303.922C300.366 299.378 303.444 298.092 303.46 298.094C303.461 298.094 306.673 299.42 306.698 303.922H300.341" fill="#FFFF00"/>
<path d="M300.341 303.922C300.366 299.378 303.444 298.092 303.46 298.094C303.461 298.094 306.673 299.42 306.698 303.922H300.341" stroke="black" stroke-width="0.5"/>
<path d="M292.384 291.603H314.669C315.138 291.603 315.523 292.04 315.523 292.57C315.523 293.101 315.138 293.537 314.669 293.537H292.384C291.915 293.537 291.53 293.103 291.53 292.57C291.53 292.04 291.915 291.603 292.384 291.603Z" fill="#FFFF00" stroke="black" stroke-width="0.5"/>
<path d="M292.851 293.551H314.166C314.615 293.551 314.982 293.986 314.982 294.517C314.982 295.049 314.615 295.483 314.166 295.483H292.851C292.402 295.483 292.034 295.049 292.034 294.517C292.034 293.986 292.402 293.551 292.851 293.551Z" fill="#FFFF00" stroke="black" stroke-width="0.5"/>
<path d="M299.737 279.024L301.42 279.027V280.222H302.648V279L304.372 279.005V280.223H305.604V279.001H307.329L307.326 281.76C307.326 282.193 306.978 282.474 306.574 282.474H300.522C300.116 282.474 299.741 282.149 299.739 281.752L299.735 279.025H299.737L299.737 279.024Z" fill="#FFFF00" stroke="black" stroke-width="0.5"/>
<path d="M306.075 282.714L306.455 291.564L300.552 291.542L300.943 282.691L306.075 282.714" fill="#FFFF00"/>
<path d="M306.075 282.714L306.455 291.564L300.552 291.542L300.943 282.691L306.075 282.714" stroke="black" stroke-width="0.5"/>
<path d="M298.873 286.816L299.054 291.586L293.394 291.589L293.554 286.816H298.874H298.873L298.873 286.816Z" fill="#FFFF00" stroke="black" stroke-width="0.5"/>
<path d="M292.508 283.359L294.153 283.363V284.559H295.357V283.335L297.043 283.341V284.56H298.25V283.336L299.937 283.338L299.934 286.098C299.934 286.529 299.593 286.81 299.199 286.81H293.277C292.88 286.81 292.511 286.486 292.51 286.088L292.506 283.36H292.507L292.508 283.359Z" fill="#FFFF00" stroke="black" stroke-width="0.5"/>
<path d="M302.934 285.512C302.898 284.652 304.136 284.643 304.122 285.512V287.62H302.934V285.513" fill="black"/>
<path d="M295.622 288.572C295.617 287.74 296.77 287.723 296.755 288.572V290.2H295.622V288.572" fill="black"/>
<path d="M313.9 286.661L314.08 291.432L308.421 291.435L308.581 286.662H313.901H313.9L313.9 286.661Z" fill="#FFFF00" stroke="black" stroke-width="0.5"/>
<path d="M307.535 283.205L309.18 283.209V284.405H310.384V283.181L312.07 283.186V284.406H313.276V283.182L314.964 283.184L314.961 285.944C314.961 286.375 314.62 286.655 314.226 286.655H308.304C307.907 286.655 307.538 286.332 307.537 285.934L307.533 283.206H307.534L307.535 283.205Z" fill="#FFFF00" stroke="black" stroke-width="0.5"/>
<path d="M310.648 288.417C310.644 287.586 311.797 287.569 311.782 288.417V290.046H310.649V288.417" fill="black"/>
<path d="M197.85 367.868C192.626 362.382 195.158 357.314 195.166 357.268C195.176 357.222 200.636 354.529 205.949 359.869L197.85 367.868" fill="#FFFF00"/>
<path d="M188.033 364.609L193.526 371.425L197.551 367.417C192.498 362.287 195.467 357.623 195.578 357.55C195.66 357.459 200.573 354.806 205.469 359.5L209.495 355.473L202.567 349.999L188.032 364.607L188.034 364.609L188.033 364.609Z" fill="#FFFF00" stroke="black" stroke-width="0.5"/>
<path d="M193.281 371.719L209.719 355.281C210.065 354.935 210.691 354.994 211.109 355.412C211.526 355.83 211.584 356.453 211.237 356.8L194.799 373.238C194.453 373.584 193.829 373.527 193.412 373.109C192.994 372.691 192.935 372.065 193.281 371.719Z" fill="#FFFF00" stroke="black" stroke-width="0.5"/>
<path d="M199.227 365.715C196.032 362.483 197.299 359.398 197.312 359.388C197.313 359.387 200.522 358.054 203.723 361.219L199.227 365.715" fill="#FFFF00"/>
<path d="M199.227 365.715C196.032 362.483 197.299 359.398 197.312 359.388C197.313 359.387 200.522 358.054 203.723 361.219L199.227 365.715" stroke="black" stroke-width="0.5"/>
<path d="M184.891 362.63L200.648 346.873C200.98 346.541 201.561 346.577 201.936 346.952C202.311 347.328 202.347 347.908 202.015 348.24L186.258 363.997C185.926 364.329 185.347 364.295 184.97 363.918C184.595 363.543 184.559 362.962 184.891 362.63Z" fill="#FFFF00" stroke="black" stroke-width="0.5"/>
<path d="M186.598 363.678L201.67 348.606C201.987 348.288 202.554 348.335 202.93 348.711C203.306 349.087 203.354 349.654 203.036 349.972L187.964 365.044C187.647 365.361 187.08 365.314 186.703 364.938C186.328 364.562 186.281 363.995 186.598 363.678Z" fill="#FFFF00" stroke="black" stroke-width="0.5"/>
<path d="M181.195 348.536L182.387 347.348L183.232 348.193L184.1 347.325L183.236 346.461L184.459 345.246L185.32 346.106L186.191 345.235L185.327 344.371L186.547 343.151L188.496 345.105C188.802 345.411 188.754 345.856 188.469 346.142L184.19 350.421C183.902 350.708 183.407 350.743 183.126 350.463L181.194 348.538L181.195 348.537L181.195 348.536Z" fill="#FFFF00" stroke="black" stroke-width="0.5"/>
<path d="M188.286 346.664L194.813 352.653L190.624 356.811L184.641 350.276L188.286 346.664" fill="#FFFF00"/>
<path d="M188.286 346.664L194.813 352.653L190.624 356.811L184.641 350.276L188.286 346.664" stroke="black" stroke-width="0.5"/>
<path d="M186.094 354.656L189.594 357.902L185.594 361.906L182.332 358.418L186.095 354.656L186.094 354.657L186.094 354.656Z" fill="#FFFF00" stroke="black" stroke-width="0.5"/>
<path d="M179.148 356.713L180.314 355.552L181.161 356.399L182.012 355.547L181.146 354.682L182.342 353.493L183.205 354.355L184.058 353.502L183.192 352.637L184.387 351.445L186.336 353.399C186.641 353.703 186.598 354.143 186.319 354.422L182.132 358.609C181.851 358.89 181.362 358.922 181.08 358.642L179.148 356.715L179.149 356.715L179.148 356.713Z" fill="#FFFF00" stroke="black" stroke-width="0.5"/>
<path d="M188.043 350.864C187.409 350.281 188.279 349.398 188.883 350.024L190.374 351.514L189.534 352.354L188.044 350.864" fill="black"/>
<path d="M185.036 358.197C184.445 357.612 185.248 356.785 185.838 357.395L186.989 358.547L186.188 359.348L185.037 358.197" fill="black"/>
<path d="M196.61 343.922L200.111 347.167L196.111 351.171L192.849 347.683L196.611 343.921L196.61 343.922L196.61 343.922Z" fill="#FFFF00" stroke="black" stroke-width="0.5"/>
<path d="M189.665 345.978L190.832 344.818L191.678 345.664L192.529 344.813L191.663 343.947L192.859 342.758L193.722 343.621L194.575 342.768L193.709 341.902L194.904 340.711L196.854 342.664C197.158 342.969 197.115 343.408 196.836 343.687L192.649 347.875C192.368 348.155 191.879 348.188 191.597 347.907L189.665 345.981L189.666 345.98L189.665 345.978Z" fill="#FFFF00" stroke="black" stroke-width="0.5"/>
<path d="M195.553 347.462C194.962 346.878 195.765 346.051 196.354 346.661L197.506 347.812L196.705 348.614L195.553 347.462" fill="black"/>
<path d="M276.999 357.85C282.485 352.626 287.553 355.158 287.599 355.166C287.644 355.176 290.338 360.636 284.998 365.949L276.999 357.85" fill="#FFFF00"/>
<path d="M280.258 348.033L273.443 353.526L277.45 357.552C282.581 352.498 287.244 355.467 287.317 355.579C287.409 355.66 290.061 360.574 285.367 365.469L289.394 369.495L294.868 362.567L280.26 348.032L280.258 348.034L280.258 348.033Z" fill="#FFFF00" stroke="black" stroke-width="0.5"/>
<path d="M273.148 353.281L289.586 369.719C289.932 370.065 289.873 370.691 289.455 371.109C289.038 371.527 288.414 371.584 288.067 371.237L271.63 354.8C271.283 354.453 271.341 353.83 271.758 353.412C272.176 352.994 272.802 352.935 273.148 353.281Z" fill="#FFFF00" stroke="black" stroke-width="0.5"/>
<path d="M279.152 359.227C282.383 356.032 285.469 357.299 285.478 357.312C285.479 357.313 286.813 360.522 283.648 363.723L279.152 359.227" fill="#FFFF00"/>
<path d="M279.152 359.227C282.383 356.032 285.469 357.299 285.478 357.312C285.479 357.313 286.813 360.522 283.648 363.723L279.152 359.227" stroke="black" stroke-width="0.5"/>
<path d="M282.237 344.89L297.995 360.648C298.326 360.98 298.29 361.561 297.915 361.936C297.539 362.311 296.959 362.347 296.627 362.015L280.87 346.258C280.538 345.926 280.572 345.347 280.949 344.97C281.324 344.595 281.905 344.559 282.237 344.89Z" fill="#FFFF00" stroke="black" stroke-width="0.5"/>
<path d="M281.189 346.598L296.261 361.67C296.579 361.987 296.532 362.555 296.156 362.93C295.78 363.307 295.212 363.354 294.895 363.036L279.823 347.964C279.506 347.647 279.553 347.08 279.929 346.703C280.305 346.328 280.872 346.281 281.189 346.598Z" fill="#FFFF00" stroke="black" stroke-width="0.5"/>
<path d="M296.331 341.195L297.519 342.387L296.674 343.232L297.542 344.1L298.406 343.236L299.621 344.459L298.761 345.32L299.632 346.191L300.496 345.327L301.716 346.547L299.762 348.496C299.456 348.802 299.011 348.754 298.726 348.469L294.447 344.19C294.159 343.902 294.124 343.407 294.404 343.125L296.329 341.194L296.33 341.195L296.331 341.195Z" fill="#FFFF00" stroke="black" stroke-width="0.5"/>
<path d="M298.203 348.286L292.214 354.812L288.056 350.623L294.591 344.641L298.203 348.286" fill="#FFFF00"/>
<path d="M298.203 348.286L292.214 354.812L288.056 350.623L294.591 344.641L298.203 348.286" stroke="black" stroke-width="0.5"/>
<path d="M290.211 346.094L286.965 349.594L282.961 345.594L286.449 342.332L290.211 346.095L290.211 346.094L290.211 346.094Z" fill="#FFFF00" stroke="black" stroke-width="0.5"/>
<path d="M288.154 339.148L289.315 340.315L288.469 341.161L289.32 342.012L290.185 341.146L291.374 342.343L290.512 343.205L291.365 344.058L292.23 343.192L293.422 344.387L291.468 346.337C291.164 346.641 290.724 346.599 290.445 346.32L286.258 342.132C285.977 341.852 285.945 341.362 286.225 341.08L288.152 339.148L288.153 339.149L288.154 339.148Z" fill="#FFFF00" stroke="black" stroke-width="0.5"/>
<path d="M294.003 348.043C294.586 347.409 295.469 348.279 294.843 348.883L293.353 350.374L292.513 349.534L294.003 348.044" fill="black"/>
<path d="M286.67 345.036C287.255 344.446 288.081 345.248 287.472 345.838L286.32 346.989L285.519 346.188L286.67 345.037" fill="black"/>
<path d="M300.945 356.61L297.699 360.111L293.696 356.111L297.184 352.849L300.946 356.611L300.945 356.61L300.945 356.61Z" fill="#FFFF00" stroke="black" stroke-width="0.5"/>
<path d="M298.888 349.665L300.049 350.831L299.203 351.677L300.054 352.529L300.92 351.663L302.108 352.859L301.246 353.722L302.099 354.574L302.965 353.709L304.156 354.904L302.203 356.853C301.898 357.158 301.459 357.115 301.18 356.836L296.992 352.649C296.712 352.368 296.679 351.879 296.96 351.597L298.886 349.665L298.887 349.665L298.888 349.665Z" fill="#FFFF00" stroke="black" stroke-width="0.5"/>
<path d="M297.404 355.553C297.989 354.962 298.816 355.765 298.206 356.354L297.054 357.506L296.253 356.704L297.405 355.553" fill="black"/>
<path d="M172.312 237.29C172.497 229.716 177.871 227.923 177.909 227.897C177.948 227.871 183.714 229.828 183.695 237.36L172.312 237.29" fill="#FFFF00"/>
<path d="M167.674 228.044L166.739 236.747L172.419 236.76C172.474 229.559 177.871 228.361 178.001 228.388C178.124 228.381 183.473 229.98 183.616 236.76H189.31L188.282 227.99L167.675 228.042V228.044L167.674 228.044Z" fill="#FFFF00" stroke="black" stroke-width="0.5"/>
<path d="M166.358 236.782H189.604C190.094 236.782 190.495 237.266 190.495 237.858C190.495 238.448 190.094 238.93 189.604 238.93H166.358C165.868 238.93 165.467 238.448 165.467 237.858C165.467 237.266 165.868 236.782 166.358 236.782Z" fill="#FFFF00" stroke="black" stroke-width="0.5"/>
<path d="M174.808 236.741C174.833 232.197 177.911 230.911 177.927 230.913C177.928 230.913 181.14 232.239 181.166 236.741H174.808" fill="#FFFF00"/>
<path d="M174.808 236.741C174.833 232.197 177.911 230.911 177.927 230.913C177.928 230.913 181.14 232.239 181.166 236.741H174.808" stroke="black" stroke-width="0.5"/>
<path d="M166.851 224.422H189.136C189.605 224.422 189.99 224.859 189.99 225.389C189.99 225.92 189.605 226.356 189.136 226.356H166.851C166.382 226.356 165.997 225.923 165.997 225.389C165.997 224.859 166.382 224.422 166.851 224.422Z" fill="#FFFF00" stroke="black" stroke-width="0.5"/>
<path d="M167.318 226.37H188.633C189.082 226.37 189.45 226.805 189.45 227.336C189.45 227.868 189.082 228.302 188.633 228.302H167.318C166.869 228.302 166.501 227.868 166.501 227.336C166.501 226.805 166.869 226.37 167.318 226.37Z" fill="#FFFF00" stroke="black" stroke-width="0.5"/>
<path d="M174.205 211.843L175.888 211.846V213.041H177.115V211.819L178.839 211.825V213.042H180.071V211.82H181.796L181.793 214.579C181.793 215.013 181.445 215.293 181.041 215.293H174.99C174.583 215.293 174.208 214.968 174.207 214.571L174.203 211.844H174.204L174.205 211.843Z" fill="#FFFF00" stroke="black" stroke-width="0.5"/>
<path d="M180.542 215.533L180.922 224.383L175.02 224.361L175.41 215.51L180.542 215.533" fill="#FFFF00"/>
<path d="M180.542 215.533L180.922 224.383L175.02 224.361L175.41 215.51L180.542 215.533" stroke="black" stroke-width="0.5"/>
<path d="M173.341 219.635L173.521 224.405L167.861 224.408L168.021 219.635H173.342H173.34L173.341 219.635Z" fill="#FFFF00" stroke="black" stroke-width="0.5"/>
<path d="M166.975 216.178L168.621 216.182V217.379H169.824V216.154L171.511 216.16V217.379H172.717V216.155L174.404 216.158L174.402 218.917C174.402 219.348 174.061 219.629 173.666 219.629H167.744C167.347 219.629 166.978 219.306 166.977 218.908L166.973 216.179H166.974L166.975 216.178Z" fill="#FFFF00" stroke="black" stroke-width="0.5"/>
<path d="M177.401 218.332C177.365 217.471 178.604 217.462 178.589 218.332V220.439H177.401V218.332" fill="black"/>
<path d="M170.089 221.391C170.085 220.559 171.237 220.543 171.222 221.391V223.019H170.089V221.391" fill="black"/>
<path d="M188.367 219.481L188.548 224.251L182.888 224.254L183.048 219.481H188.369H188.367L188.367 219.481Z" fill="#FFFF00" stroke="black" stroke-width="0.5"/>
<path d="M182.002 216.024L183.647 216.028V217.224H184.851V216L186.538 216.005V217.225H187.744V216.001L189.431 216.003L189.429 218.763C189.429 219.194 189.087 219.474 188.693 219.474H182.771C182.374 219.474 182.005 219.151 182.004 218.753L182 216.025H182.001L182.002 216.024Z" fill="#FFFF00" stroke="black" stroke-width="0.5"/>
<path d="M185.116 221.236C185.112 220.405 186.264 220.388 186.249 221.236V222.865H185.116V221.237" fill="black"/>
<path d="M230.539 303.103V303.11C230.539 306.144 231.704 308.909 233.573 310.915C235.446 312.927 238.025 314.176 240.846 314.176C243.682 314.176 246.256 312.935 248.121 310.932C249.984 308.93 251.142 306.168 251.142 303.122V288.35L230.576 288.333L230.538 303.102" fill="#003399"/>
<path d="M235.255 295.99C236.381 295.99 237.294 295.078 237.294 293.952C237.294 292.826 236.381 291.913 235.255 291.913C234.129 291.913 233.217 292.826 233.217 293.952C233.217 295.078 234.129 295.99 235.255 295.99Z" fill="white"/>
<path d="M246.666 296C247.792 296 248.704 295.087 248.704 293.961C248.704 292.836 247.792 291.923 246.666 291.923C245.54 291.923 244.627 292.836 244.627 293.961C244.627 295.087 245.54 296 246.666 296Z" fill="white"/>
<path d="M240.95 301.477C242.075 301.477 242.988 300.565 242.988 299.439C242.988 298.313 242.075 297.401 240.95 297.401C239.824 297.401 238.911 298.313 238.911 299.439C238.911 300.565 239.824 301.477 240.95 301.477Z" fill="white"/>
<path d="M235.255 307.213C236.381 307.213 237.294 306.3 237.294 305.175C237.294 304.049 236.381 303.136 235.255 303.136C234.129 303.136 233.217 304.049 233.217 305.175C233.217 306.3 234.129 307.213 235.255 307.213Z" fill="white"/>
<path d="M246.654 307.198C247.78 307.198 248.692 306.285 248.692 305.159C248.692 304.034 247.78 303.121 246.654 303.121C245.528 303.121 244.615 304.034 244.615 305.159C244.615 306.285 245.528 307.198 246.654 307.198Z" fill="white"/>
<path d="M231.001 268.77V268.776C231.001 271.811 232.166 274.575 234.035 276.581C235.908 278.593 238.487 279.843 241.308 279.843C244.144 279.843 246.718 278.602 248.583 276.598C250.446 274.597 251.603 271.835 251.603 268.788V254.017L231.037 254L231 268.769" fill="#003399"/>
<path d="M235.717 261.657C236.843 261.657 237.756 260.744 237.756 259.618C237.756 258.493 236.843 257.58 235.717 257.58C234.591 257.58 233.679 258.493 233.679 259.618C233.679 260.744 234.591 261.657 235.717 261.657Z" fill="white"/>
<path d="M247.128 261.666C248.254 261.666 249.166 260.754 249.166 259.628C249.166 258.502 248.254 257.589 247.128 257.589C246.002 257.589 245.089 258.502 245.089 259.628C245.089 260.754 246.002 261.666 247.128 261.666Z" fill="white"/>
<path d="M241.412 267.144C242.537 267.144 243.45 266.231 243.45 265.106C243.45 263.98 242.537 263.067 241.412 263.067C240.286 263.067 239.373 263.98 239.373 265.106C239.373 266.231 240.286 267.144 241.412 267.144Z" fill="white"/>
<path d="M235.717 272.88C236.843 272.88 237.756 271.967 237.756 270.841C237.756 269.715 236.843 268.803 235.717 268.803C234.591 268.803 233.679 269.715 233.679 270.841C233.679 271.967 234.591 272.88 235.717 272.88Z" fill="white"/>
<path d="M247.116 272.864C248.241 272.864 249.154 271.952 249.154 270.826C249.154 269.7 248.241 268.787 247.116 268.787C245.99 268.787 245.077 269.7 245.077 270.826C245.077 271.952 245.99 272.864 247.116 272.864Z" fill="white"/>
<path d="M231.001 337.77V337.776C231.001 340.811 232.166 343.575 234.035 345.581C235.908 347.593 238.487 348.843 241.308 348.843C244.144 348.843 246.718 347.602 248.583 345.598C250.446 343.597 251.603 340.835 251.603 337.788V323.017L231.037 323L231 337.769" fill="#003399"/>
<path d="M235.717 330.657C236.843 330.657 237.756 329.744 237.756 328.618C237.756 327.493 236.843 326.58 235.717 326.58C234.591 326.58 233.679 327.493 233.679 328.618C233.679 329.744 234.591 330.657 235.717 330.657Z" fill="white"/>
<path d="M247.128 330.666C248.254 330.666 249.166 329.754 249.166 328.628C249.166 327.502 248.254 326.589 247.128 326.589C246.002 326.589 245.089 327.502 245.089 328.628C245.089 329.754 246.002 330.666 247.128 330.666Z" fill="white"/>
<path d="M241.412 336.144C242.537 336.144 243.45 335.231 243.45 334.106C243.45 332.98 242.537 332.067 241.412 332.067C240.286 332.067 239.373 332.98 239.373 334.106C239.373 335.231 240.286 336.144 241.412 336.144Z" fill="white"/>
<path d="M235.717 341.88C236.843 341.88 237.756 340.967 237.756 339.841C237.756 338.715 236.843 337.803 235.717 337.803C234.591 337.803 233.679 338.715 233.679 339.841C233.679 340.967 234.591 341.88 235.717 341.88Z" fill="white"/>
<path d="M247.116 341.864C248.241 341.864 249.154 340.952 249.154 339.826C249.154 338.7 248.241 337.787 247.116 337.787C245.99 337.787 245.077 338.7 245.077 339.826C245.077 340.952 245.99 341.864 247.116 341.864Z" fill="white"/>
<path d="M203.001 302.77V302.776C203.001 305.811 204.166 308.575 206.035 310.581C207.908 312.593 210.487 313.843 213.308 313.843C216.144 313.843 218.718 312.602 220.583 310.598C222.446 308.597 223.603 305.835 223.603 302.788V288.017L203.037 288L203 302.769" fill="#003399"/>
<path d="M207.717 295.657C208.843 295.657 209.756 294.744 209.756 293.618C209.756 292.493 208.843 291.58 207.717 291.58C206.591 291.58 205.679 292.493 205.679 293.618C205.679 294.744 206.591 295.657 207.717 295.657Z" fill="white"/>
<path d="M219.128 295.666C220.254 295.666 221.166 294.754 221.166 293.628C221.166 292.502 220.254 291.589 219.128 291.589C218.002 291.589 217.089 292.502 217.089 293.628C217.089 294.754 218.002 295.666 219.128 295.666Z" fill="white"/>
<path d="M213.412 301.144C214.537 301.144 215.45 300.231 215.45 299.106C215.45 297.98 214.537 297.067 213.412 297.067C212.286 297.067 211.373 297.98 211.373 299.106C211.373 300.231 212.286 301.144 213.412 301.144Z" fill="white"/>
<path d="M207.717 306.88C208.843 306.88 209.756 305.967 209.756 304.841C209.756 303.715 208.843 302.803 207.717 302.803C206.591 302.803 205.679 303.715 205.679 304.841C205.679 305.967 206.591 306.88 207.717 306.88Z" fill="white"/>
<path d="M219.116 306.864C220.241 306.864 221.154 305.952 221.154 304.826C221.154 303.7 220.241 302.787 219.116 302.787C217.99 302.787 217.077 303.7 217.077 304.826C217.077 305.952 217.99 306.864 219.116 306.864Z" fill="white"/>
<path d="M258.001 302.77V302.776C258.001 305.811 259.166 308.575 261.035 310.581C262.908 312.593 265.487 313.843 268.308 313.843C271.144 313.843 273.718 312.602 275.583 310.598C277.446 308.597 278.603 305.835 278.603 302.788V288.017L258.037 288L258 302.769" fill="#003399"/>
<path d="M262.717 295.657C263.843 295.657 264.756 294.744 264.756 293.618C264.756 292.493 263.843 291.58 262.717 291.58C261.591 291.58 260.679 292.493 260.679 293.618C260.679 294.744 261.591 295.657 262.717 295.657Z" fill="white"/>
<path d="M274.128 295.666C275.254 295.666 276.166 294.754 276.166 293.628C276.166 292.502 275.254 291.589 274.128 291.589C273.002 291.589 272.089 292.502 272.089 293.628C272.089 294.754 273.002 295.666 274.128 295.666Z" fill="white"/>
<path d="M268.412 301.144C269.537 301.144 270.45 300.231 270.45 299.106C270.45 297.98 269.537 297.067 268.412 297.067C267.286 297.067 266.373 297.98 266.373 299.106C266.373 300.231 267.286 301.144 268.412 301.144Z" fill="white"/>
<path d="M262.717 306.88C263.843 306.88 264.756 305.967 264.756 304.841C264.756 303.715 263.843 302.803 262.717 302.803C261.591 302.803 260.679 303.715 260.679 304.841C260.679 305.967 261.591 306.88 262.717 306.88Z" fill="white"/>
<path d="M274.116 306.864C275.241 306.864 276.154 305.952 276.154 304.826C276.154 303.7 275.241 302.787 274.116 302.787C272.99 302.787 272.077 303.7 272.077 304.826C272.077 305.952 272.99 306.864 274.116 306.864Z" fill="white"/>
</svg>
