<svg width="600" height="600" viewBox="0 0 600 600" fill="none" xmlns="http://www.w3.org/2000/svg">
<g clip-path="url(#clip0_505_1899)">
<path d="M0 0H600V600H0V0Z" fill="#006C35"/>
<path d="M431.597 446.007H419.097C417.708 447.83 415.538 450 414.323 450C412.847 450 408.854 445.92 408.854 444.444C408.854 443.316 410.764 441.146 412.5 439.757V436.372H185.937C156.076 436.372 141.233 436.111 131.25 426.128H412.5V422.743C410.851 421.441 408.854 419.184 408.854 418.056C408.854 416.58 412.847 412.5 414.323 412.5C415.799 412.5 419.792 416.58 419.792 418.056C419.792 419.184 417.795 421.441 416.146 422.743V426.128H454.34C464.583 426.128 468.75 426.997 468.75 436.372C468.75 446.354 466.059 448.177 461.806 448.177C460.33 448.177 457.899 448.09 456.076 446.007H441.233C440.84 446.644 440.173 447.188 439.315 447.572C438.457 447.955 437.448 448.16 436.415 448.16C435.382 448.16 434.373 447.955 433.515 447.572C432.657 447.188 431.99 446.644 431.597 446.007V446.007ZM441.233 442.882H454.34C453.646 440.972 453.646 438.976 454.34 436.372H416.146V439.757C417.101 440.451 418.403 441.927 419.097 442.882H431.597C431.99 442.245 432.657 441.7 433.515 441.317C434.373 440.934 435.382 440.729 436.415 440.729C437.448 440.729 438.457 440.934 439.315 441.317C440.173 441.7 440.84 442.245 441.233 442.882Z" fill="white"/>
<path d="M462.847 286.806C463.715 287.847 464.236 288.802 462.76 290.538C461.372 291.753 460.417 292.448 458.941 293.663C458.333 294.705 457.899 296.354 459.896 296.875C463.715 297.917 470.747 293.403 470.747 293.316C472.222 292.274 471.701 290.365 471.615 290.365C470.747 289.497 468.924 290.017 467.708 289.844C467.101 289.844 466.753 288.715 467.622 287.066C468.403 286.024 468.75 285.417 469.271 284.201C469.792 282.986 469.271 282.118 467.187 281.424C465.017 281.076 464.149 281.25 461.806 281.424C460.503 281.684 460.069 282.292 459.809 283.767C459.896 286.024 461.372 285.851 462.847 286.806ZM446.354 233.16C445.139 234.809 444.271 236.111 446.615 237.413C449.045 238.628 452.691 242.014 451.128 245.833C450.26 248.785 451.128 251.128 453.819 246.875C456.597 242.448 454.427 237.153 451.736 233.767C449.392 230.816 447.83 231.424 446.354 233.16ZM519.444 172.569C522.743 175.434 524.566 174.566 522.483 169.705C520.052 164.844 517.708 159.722 515.538 155.122C513.194 150.26 512.587 151.389 509.896 154.861C506.858 158.247 506.597 160.851 507.726 162.847C513.455 208.247 516.146 231.944 516.753 245.66C517.969 265.625 512.847 276.823 492.448 289.67C485.851 293.924 478.385 298.785 494.271 295.052C509.115 291.493 525 282.118 525 246.267C525 219.271 518.75 190.365 519.444 172.569ZM495.139 163.368C493.316 166.233 493.663 166.84 495.747 169.965C497.83 173.437 499.653 179.687 499.653 184.549C499.653 189.41 501.476 188.802 502.344 184.288C503.299 179.948 502.951 171.441 500.26 165.451C497.569 159.115 496.615 161.372 495.139 163.368ZM512.587 257.899C511.979 253.906 510.764 249.913 505.382 242.274C500 234.809 495.139 227.951 490.365 221.354C488.889 204.253 486.719 185.937 486.719 176.302C489.149 178.559 490.972 176.302 489.757 172.569C488.542 168.837 486.111 158.854 484.375 154.601C482.812 150.521 481.076 151.389 478.646 155.122C476.562 158.854 475.087 160.59 476.562 163.368C477.17 179.948 479.514 196.007 482.292 210.503C477.431 204.253 472.917 198.264 468.75 192.795C468.49 186.545 467.882 180.295 467.535 173.958C470.226 175.955 471.441 175.434 469.965 171.701C468.75 167.708 465.451 159.375 463.976 155.729C462.413 151.997 461.545 151.997 459.462 154.861C456.163 159.722 455.208 163.108 457.986 167.708C458.247 171.701 458.854 175.955 459.115 179.687C456.424 176.302 454.08 172.83 451.91 169.705C454.601 171.094 456.771 168.837 453.733 166.233C451.042 163.715 445.312 159.375 442.969 156.25C440.278 153.125 437.847 153.125 437.847 155.99C437.847 158.854 438.108 161.372 437.847 163.976C437.24 166.233 437.24 168.576 440.799 172.569C447.743 180.556 454.34 188.802 460.677 196.528C463.021 225.087 464.583 243.403 463.976 254.774C463.628 261.632 461.285 265.625 457.378 266.753C453.472 268.229 449.566 265.625 445.92 260.503C439.323 251.389 436.979 253.125 431.858 261.111C426.997 268.49 423.698 274.826 421.007 280.208C418.663 285.33 414.41 289.931 410.503 283.073C406.944 276.215 406.337 268.49 406.597 263.108C406.597 257.639 405.729 253.385 403.646 261.979C398.264 283.073 401.562 287.674 407.552 292.187C415.017 298.524 417.448 299.045 421.354 293.663C429.167 283.333 431.25 274.219 435.764 269.097C439.323 265.104 439.323 268.229 441.146 270.226C445.66 275.608 449.566 277.604 455.816 278.472C462.153 279.601 473.524 274.479 472.656 254.514C472.049 242.535 471.181 226.215 469.965 208.854C475.955 216.84 481.337 223.958 485.59 229.687C487.674 241.059 488.889 251.389 488.281 259.635C487.674 269.097 489.757 269.097 491.84 259.375C492.448 255.382 492.448 247.049 491.58 237.066C499.653 247.396 504.427 254.253 507.726 259.115C511.372 265.104 513.455 270.226 512.587 257.899ZM430.295 235.417C430.295 233.42 431.25 232.812 434.809 229.948C437.847 227.691 446.267 221.962 448.958 219.358C451.649 216.84 453.733 214.497 454.34 217.708C454.601 220.833 455.208 221.962 451.91 223.698C448.611 225.087 439.931 230.208 437.24 232.205C434.201 234.549 430.295 237.413 430.295 235.417ZM431.25 200.26C430.642 202.865 426.997 202.865 427.344 200C427.604 197.135 427.344 197.656 427.344 195.399C426.997 193.142 430.035 191.667 431.51 193.663C433.333 195.66 436.372 201.997 437.24 204.253C438.455 206.51 439.062 205.99 439.062 202.865C438.715 199.132 438.108 195.66 438.455 193.142C438.715 191.667 439.67 189.931 441.406 188.542C443.576 187.153 444.705 186.806 445.66 189.41C446.267 191.667 448.003 191.927 447.135 194.01C445.92 196.788 443.229 191.146 441.406 195.139C440.538 198.003 441.406 205.99 441.146 208.854C441.146 211.372 439.931 215.104 437.847 210.851C436.372 207.986 434.201 203.125 431.25 200.26ZM410.503 177.083C414.757 179.08 419.271 180.295 415.972 175.434C412.587 170.833 409.896 163.108 408.16 157.378C405.99 151.736 405.469 151.997 402.083 156.858C397.049 164.236 401.562 171.441 402.691 179.948C406.944 210.503 411.111 241.667 412.326 249.913C413.542 259.115 415.017 265.104 412.587 275.087C411.719 278.212 412.934 279.08 415.017 275.347C423.437 260.243 417.708 247.049 416.84 238.542C415.365 225.347 410.503 190.538 409.635 176.562M389.844 175.694C392.187 177.691 394.965 177.691 393.403 173.437C391.927 169.097 390.712 163.976 389.236 159.115C387.76 154.253 386.806 153.125 384.983 155.382C382.899 157.986 381.424 158.854 379.948 160.59C378.385 161.979 378.125 165.104 379.948 167.969C386.545 211.111 386.806 230.208 387.76 246.267C388.628 262.24 391.059 269.618 380.556 280.469C369.097 292.187 362.24 295.052 357.118 296.181C351.389 297.743 349.045 300 355.208 300C375.347 300 377.344 294.618 385.59 285.937C392.274 278.906 395.486 269.965 394.965 248.785C394.358 211.632 388.889 195.66 389.844 175.694ZM314.497 284.809C317.535 283.073 319.01 281.684 321.354 280.816C323.785 279.601 325.608 279.948 323.785 284.809C321.962 290.451 322.917 292.187 326.823 290.799C330.382 289.67 332.465 288.194 335.503 287.066C338.194 285.937 341.233 285.937 336.979 289.062C333.681 291.667 328.906 295.052 326.215 295.66C320.226 297.049 317.187 294.792 318.403 290.191C319.618 285.937 320.486 284.201 316.927 285.677C312.674 287.326 313.021 285.677 314.497 284.809ZM362.847 187.674C363.976 191.146 365.538 192.795 366.406 188.542C367.014 184.809 368.229 183.681 368.837 187.674C369.705 191.667 372.135 191.146 372.743 187.413C373.611 183.681 374.826 181.684 375.434 185.677C376.042 189.931 375.694 191.406 375.087 192.795C374.826 194.01 372.396 195.399 370.573 193.663C368.49 191.927 367.882 191.927 366.406 193.403C363.108 196.267 361.892 194.271 361.285 190.278C361.024 186.806 362.24 185.417 362.847 187.674ZM382.899 259.635C380.208 246.788 367.882 226.215 349.566 199.392C349.045 192.274 348.698 185.677 348.698 179.687C351.389 182.552 353.212 180.816 352.344 177.083C350.521 170.573 347.83 165.104 344.531 157.726C343.316 154.601 340.017 153.733 338.542 158.247C336.372 163.715 336.111 164.844 338.802 168.576C338.542 172.569 340.017 179.427 340.625 185.677C337.326 181.076 333.073 175.434 329.774 170.573C334.896 172.569 337.934 171.094 333.42 166.58C328.906 161.719 322.569 156.858 318.663 153.385C314.757 150 313.021 152.257 313.628 155.382C313.889 158.594 314.236 160.851 313.889 163.368C313.628 165.972 314.497 167.708 318.403 169.097C326.215 178.819 334.028 188.802 341.233 199.132C342.101 207.639 343.924 217.101 344.792 224.826C347.222 243.056 350.781 266.753 347.83 277.083C345.399 284.809 347.83 288.194 351.736 276.476C355.295 264.757 354.948 253.646 352.604 236.198C351.649 229.427 351.389 220.833 350.521 212.847C363.108 231.337 374.479 249.045 379.601 261.372C382.292 267.969 384.722 269.358 382.899 259.635ZM360.417 155.382C359.201 157.726 358.333 159.375 360.677 161.111C363.108 162.847 366.753 167.448 365.191 172.569C364.323 176.562 365.191 179.687 367.882 173.958C370.573 167.969 368.49 160.851 365.799 156.25C363.368 152.257 361.892 153.125 360.417 155.382ZM271.615 217.708C271.007 221.701 271.875 224.219 273.351 226.215C274.913 228.212 277.865 227.951 278.819 225.694C279.687 223.09 280.295 222.83 282.118 224.826C284.201 226.823 291.059 225.087 287.76 215.104C286.285 211.111 285.677 211.979 285.677 216.493C285.677 223.698 283.247 223.698 280.556 216.84C279.687 214.236 278.472 214.236 278.212 217.708C278.212 224.219 275.174 225.087 273.351 218.49C272.743 215.712 272.222 213.368 271.615 217.708ZM313.021 227.951C319.271 226.562 315.712 225.955 311.458 223.351C307.031 220.833 305.208 220.833 305.469 223.698C305.816 225.347 305.816 227.083 306.424 229.34C308.507 228.819 310.59 228.559 313.021 227.951ZM300.694 213.976C305.469 207.378 313.281 209.375 322.309 215.365C331.337 221.354 327.691 230.816 319.01 235.677C316.927 236.806 314.236 237.934 310.851 239.062C311.806 241.059 310.59 241.667 307.899 239.931C300.087 242.535 289.844 246.267 282.726 249.913C291.406 250.521 327.431 249.913 334.635 249.045C341.84 248.524 340.625 249.653 338.542 255.642C336.372 261.372 334.028 260.764 328.038 261.632C318.403 263.368 304.253 267.361 294.097 271.354C283.854 275.347 287.5 282.465 298.003 286.198C306.076 288.194 305.208 289.062 303.733 293.663C302.517 297.917 302.517 299.045 292.622 297.656C268.316 293.924 259.549 281.076 255.642 271.094C240.712 291.319 225.955 302.517 212.153 299.045C205.295 297.656 201.997 291.667 201.389 284.201C191.753 288.455 180.642 292.187 166.233 296.181C162.934 297.309 160.243 295.92 164.757 293.924C174.306 289.323 189.323 281.684 201.649 273.351C202.865 268.229 205.556 261.111 208.247 255.903C209.722 252.778 210.677 253.906 210.677 256.51C210.677 258.507 210.069 263.628 210.33 267.361C212.5 265.625 215.451 263.976 216.927 262.5C225.347 255.382 234.635 250.781 228.385 239.41C225.694 234.201 223.524 230.556 222.656 228.212C217.274 226.215 218.75 223.351 221.181 218.49C223.524 213.715 224.479 212.5 229.253 217.969C236.198 225.694 237.066 229.08 232.292 228.559C239.757 246.788 237.934 256.25 226.302 267.101C220.833 272.483 215.191 276.823 208.594 280.208C207.986 285.069 210.069 289.931 219.618 288.455C232.292 286.806 246.354 271.094 252.344 259.115C249.653 249.045 243.663 231.076 240.104 221.962C238.281 217.361 240.104 215.365 241.58 211.632C243.403 207.986 244.271 205.642 246.354 210.851C248.437 215.712 255.035 227.951 258.073 242.535C261.372 257.118 260.764 269.618 268.576 276.476C272.222 279.601 276.649 281.684 281.51 282.812C277.865 273.09 285.417 265.625 295.312 262.24C289.323 256.771 279.948 257.639 269.444 257.118C261.719 256.771 262.587 255.903 264.67 249.392C266.753 242.795 269.184 241.927 274.913 239.67C282.726 236.806 290.451 233.941 298.611 231.684C293.49 224.566 296.788 219.358 300.694 213.976ZM262.847 155.382C260.764 157.378 260.764 157.726 262.587 160.243C264.41 162.24 267.101 168.576 266.146 175.087C265.885 177.951 266.493 180.816 267.969 175.694C269.184 170.573 268.837 163.368 267.361 159.115C265.885 154.861 264.062 153.733 262.847 155.382ZM222.049 166.58C217.274 179.427 217.535 191.667 227.431 202.257C233.16 208.247 237.326 205.382 239.757 198.785C242.448 192.535 244.271 186.285 246.094 181.944C247.83 177.691 249.392 178.559 249.045 182.552C248.177 190.538 247.569 203.385 255.99 208.247C264.41 213.108 277.257 204.861 281.771 196.267C295.312 213.368 307.292 205.382 308.767 188.802C309.115 183.681 306.684 172.569 305.208 169.444C303.733 165.972 304.601 165.972 306.684 167.708C308.767 169.705 312.413 170.833 310.59 165.104C308.507 159.722 306.076 156.597 302.778 153.993C299.826 151.389 299.219 152.865 298.003 154.861C296.788 156.858 297.049 157.378 295.312 158.854C293.49 160.59 293.75 161.372 295.312 164.583C300.347 177.083 305.208 195.399 297.049 197.135C289.583 198.524 284.809 183.073 284.462 176.302C284.201 167.101 282.986 159.375 281.163 154.601C279.861 151.476 279.08 150 278.385 150C277.17 150 275.434 154.948 274.306 156.858C273.09 158.854 274.306 159.375 275.174 163.368C279.687 183.42 279.08 192.535 269.444 197.656C259.896 203.125 254.774 198.003 254.774 191.667C254.514 185.417 254.514 177.691 255.382 171.962C255.99 166.233 257.465 165.451 255.382 162.587C253.299 159.375 251.476 160.59 248.785 164.236C242.795 172.222 236.806 185.677 234.635 191.927C232.552 198.524 228.385 196.267 225.347 190.799C222.049 184.288 222.396 172.569 223.524 167.969C224.74 163.368 224.132 161.372 222.049 166.58ZM209.722 161.719C210.33 159.983 208.854 158.247 207.639 160.851C206.771 162.847 206.424 164.236 208.247 165.451C208.854 164.236 209.462 162.847 209.722 161.719ZM202.517 159.115C206.163 150.26 218.142 151.389 214.844 162.847C214.583 164.583 213.628 166.84 212.5 169.097C214.236 171.441 213.368 174.306 209.722 173.698C205.816 179.687 198.351 186.285 185.417 191.667C179.427 194.271 178.559 192.274 183.073 189.67C191.753 184.288 199.826 177.691 204.948 170.833C201.042 167.708 201.042 163.108 202.517 159.115ZM200.434 190.799C196.875 195.139 194.184 201.389 199.219 205.122C201.997 207.378 207.639 204.861 209.722 200.521C211.892 196.007 210.937 195.399 207.378 199.132C202.257 204.514 197.135 199.653 202.517 192.274C206.163 187.153 204.08 185.937 200.434 190.799ZM192.361 253.646C192.969 255.642 192.622 260.243 191.753 262.24C190.538 264.757 191.753 265.972 193.576 262.76C195.312 259.375 196.528 255.382 195.66 251.389C195.312 248.524 195.312 247.656 192.622 246.528C189.67 245.399 188.715 247.049 187.847 249.392C186.632 252.257 188.108 255.382 192.361 253.646ZM146.094 234.809C140.712 236.198 139.844 234.201 140.104 231.076C140.451 227.951 140.712 227.083 144.358 228.559C145.833 229.08 147.656 231.076 149.479 233.681C148.264 233.941 147.049 234.549 146.094 234.809ZM150.608 221.962C145.226 216.84 140.712 216.493 136.198 222.83C132.031 228.819 132.292 230.208 132.639 235.677C132.899 241.059 131.771 243.056 136.198 244.531C140.451 245.92 142.274 245.399 144.965 244.531C147.049 243.924 150 243.056 153.038 241.927C153.646 244.792 153.299 247.917 151.562 250.26C140.451 262.76 123.351 271.962 115.799 263.628C111.632 259.115 109.809 251.91 111.024 243.403C112.24 236.198 109.809 239.41 108.941 241.927C106.25 250.26 105.295 262.24 108.941 268.229C114.062 276.476 122.135 280.208 135.069 274.826C147.917 269.358 160.503 259.635 159.983 246.267C159.983 243.663 159.635 241.406 159.635 239.67C160.851 239.062 162.934 237.674 164.41 237.066C164.757 241.667 164.149 247.396 164.41 251.91C165.017 266.493 159.028 270.747 153.646 274.826C146.094 280.469 135.937 284.201 127.257 285.677C106.51 288.455 101.736 275.955 101.997 259.115C101.997 256.51 103.212 254.774 103.212 251.042C102.951 243.924 101.997 245.052 99.6528 252.257C97.4826 259.115 94.7917 275.087 101.736 288.194C108.941 301.389 133.247 297.656 152.17 289.062C170.747 280.469 172.83 264.236 171.962 247.917C171.962 243.663 171.615 239.062 171.354 234.201C171.962 233.941 172.222 233.42 172.569 233.073C175.26 241.406 187.847 239.062 191.753 234.201C193.837 231.944 193.837 231.684 195.66 234.201C198.351 237.934 207.639 239.062 210.069 233.941C212.153 228.559 211.892 223.351 211.285 219.358C210.677 215.365 209.722 215.712 207.031 217.708C204.08 219.965 206.424 220.226 206.771 223.09C207.986 233.941 198.09 233.073 196.875 221.962C196.267 215.104 195.052 217.708 194.184 220.833C189.931 234.201 177.604 236.806 178.819 221.354C179.167 216.84 176.128 218.229 174.653 219.965C173.177 221.094 171.962 222.569 170.486 223.351C169.531 210.851 168.663 196.528 167.101 179.427C170.747 183.681 174.045 178.819 171.615 173.958C169.878 170.226 167.101 161.979 165.365 157.378C163.802 152.865 162.934 154.253 159.028 157.986C155.469 161.979 156.076 162.847 157.812 166.84C157.205 171.701 158.16 176.562 159.375 186.545C160.243 193.663 162.674 208.507 163.802 227.344C162.066 228.212 159.375 229.948 157.552 230.816C156.076 227.691 153.906 225.087 150.608 221.962ZM86.1111 258.247C86.3715 261.111 86.3715 263.108 86.3715 264.236C86.3715 266.233 85.2431 268.229 84.6354 270.747C80.9896 283.073 86.3715 289.062 89.4097 284.462C92.1007 279.948 93.5764 280.469 93.316 284.201C93.0556 296.528 80.7292 297.309 79.7743 287.066C78.2986 270.747 82.2049 268.229 83.4201 262.76C84.2882 259.115 85.5035 256.25 86.1111 258.247ZM79.7743 240.191C88.5417 230.208 99.6528 225.087 105.295 223.351C108.941 222.222 110.764 220.833 110.764 224.219C111.024 227.344 110.764 227.691 107.726 228.559C100.781 230.208 86.3715 237.066 81.5972 240.538C79.2535 242.274 76.2153 244.271 79.7743 240.191ZM128.733 154.253C127.865 156.597 128.472 159.375 129.948 161.111C131.424 163.108 134.115 163.108 135.937 161.719C137.413 159.983 137.413 159.722 138.976 161.979C139.844 163.715 142.795 163.108 143.75 161.372C144.358 159.983 145.226 158.594 144.358 156.597C143.403 154.601 143.403 155.122 142.795 157.378C142.274 161.111 138.628 160.243 138.368 155.729C138.368 151.389 137.413 153.733 136.198 156.597C134.115 160.851 131.163 159.983 131.163 156.25C131.163 153.125 130.208 150.521 128.733 154.253ZM115.799 214.236C116.753 224.566 119.705 243.663 119.705 250.26C120.052 257.118 120.92 255.122 122.743 251.389C124.566 247.656 124.219 243.663 123.958 238.194C123.351 232.552 123.003 223.09 121.788 210.243C124.219 208.507 126.302 205.642 127.257 203.993C129.601 199.653 130.208 200 131.163 203.385C132.899 210.243 140.104 214.844 149.74 208.247C158.767 202.257 154.861 189.67 150.955 175.955C154.253 176.562 155.469 173.958 153.299 170.573C152.431 168.576 150.608 166.84 149.132 165.104C147.656 163.368 146.094 161.979 144.618 163.715C143.403 165.451 141.927 166.84 141.059 167.969C140.104 169.097 140.104 170.226 141.319 173.09C144.965 181.076 147.309 189.67 147.917 194.531C148.872 199.132 147.049 200.26 143.75 200.26C140.451 200.26 135.937 199.392 134.115 192.535C132.292 185.677 131.424 182.552 131.771 177.951C132.031 173.437 132.639 170.226 129.34 165.712C125.694 161.111 125.434 161.979 124.566 164.236C123.958 166.84 122.743 170.573 123.958 174.826C125.434 181.076 126.302 186.545 127.257 190.278C127.865 192.795 125.087 198.264 121.267 201.128C120.312 192.535 118.837 181.076 118.229 171.962C123.351 170.226 120.66 163.715 116.406 156.597C113.455 151.128 112.24 153.385 110.156 156.858C107.986 160.243 109.549 161.719 111.024 164.583C109.809 166.84 111.892 170.226 112.847 176.562C113.108 180.556 114.062 191.927 114.931 201.997C110.764 201.997 108.333 199.392 106.858 196.007C103.559 188.802 104.427 182.292 105.903 177.951C107.465 173.698 108.941 167.101 106.25 165.451C103.819 163.715 100.521 165.712 98.4375 168.837C94.7917 173.958 91.4931 181.424 91.2326 189.149C90.8854 192.274 90.0174 198.264 88.5417 200.521C87.3264 202.865 85.2431 203.125 83.0729 199.653C79.5139 194.271 78.2986 180.556 78.6458 173.437C78.6458 169.965 77.691 169.444 76.4757 173.437C75.434 177.083 75 180.816 75 184.375C75 194.444 77.9514 203.646 80.3819 208.247C83.6806 214.497 87.934 213.108 90.8854 207.986C95.3993 200.26 93.5764 193.403 97.8299 181.944C100.26 174.826 101.128 180.295 100.26 184.549C98.0903 196.007 98.6979 214.497 115.799 214.236ZM90.0174 169.444C93.0556 161.372 93.316 154.253 89.7569 156.858C86.7187 159.115 84.8958 156.858 87.3264 154.253C90.2778 150.521 94.184 149.392 95.1389 155.729C95.3993 160.59 91.8403 166.58 90.0174 169.444Z" fill="white"/>
</g>
<defs>
<clipPath id="clip0_505_1899">
<rect width="600" height="600" rx="300" fill="white"/>
</clipPath>
</defs>
</svg>
