<svg width="600" height="600" viewBox="0 0 600 600" fill="none" xmlns="http://www.w3.org/2000/svg">
<g clip-path="url(#clip0_505_2127)">
<path d="M600 0H0V600H600V0Z" fill="#00853F"/>
<path d="M600 0H200V600H600V0Z" fill="#FDEF42"/>
<path d="M600 0H400V600H600V0Z" fill="#E31B23"/>
<path d="M299.8 196L268.899 291.106L316.451 306.557L299.8 196Z" fill="#00853F"/>
<path d="M299.8 196L330.702 291.106L283.149 306.557L299.8 196Z" fill="#00853F"/>
<path d="M394.906 265.099H294.906V315.099L394.906 265.099Z" fill="#00853F"/>
<path d="M394.906 265.099L314.005 323.877L284.615 283.426L394.906 265.099Z" fill="#00853F"/>
<path d="M358.579 376.901L327.677 281.796L280.124 297.247L358.579 376.901Z" fill="#00853F"/>
<path d="M358.579 376.901L277.677 318.123L307.066 277.672L358.579 376.901Z" fill="#00853F"/>
<path d="M241.021 376.902L321.923 318.123L292.534 277.672L241.021 376.902Z" fill="#00853F"/>
<path d="M241.021 376.902L271.923 281.796L319.476 297.247L241.021 376.902Z" fill="#00853F"/>
<path d="M204.695 265.098L285.597 323.877L314.986 283.426L204.695 265.098Z" fill="#00853F"/>
<path d="M204.695 265.098H304.695V315.098L204.695 265.098Z" fill="#00853F"/>
</g>
<defs>
<clipPath id="clip0_505_2127">
<rect width="600" height="600" rx="300" fill="white"/>
</clipPath>
</defs>
</svg>
