<svg width="600" height="600" viewBox="0 0 600 600" fill="none" xmlns="http://www.w3.org/2000/svg">
<path d="M600 0H0V600H600V0Z" fill="#EE1C25"/>
<path d="M600 0H0V400H600V0Z" fill="#0B4EA2"/>
<path d="M600 0H0V200H600V0Z" fill="white"/>
<path d="M341.479 141H333.376H217.917H102.461H94.358L93.511 149.059C93.327 150.811 89 193.03 89 285.749C89 329.312 103.726 367.745 132.77 399.979C153.119 422.564 179.693 441.578 214.012 458.108L217.917 459.989L221.823 458.108C256.143 441.578 282.719 422.564 303.069 399.979C332.113 367.745 346.84 329.312 346.84 285.749C346.84 193.031 342.512 150.811 342.328 149.059L341.479 141Z" fill="white"/>
<path d="M217.917 450C168.577 426.234 98 379.062 98 285.749C98 192.436 102.461 150 102.461 150H217.917H333.376C333.376 150 337.839 192.437 337.839 285.749C337.839 379.062 267.261 426.234 217.917 450Z" fill="#EE1C25"/>
<path d="M228.484 261.284C241.844 261.5 267.909 262.023 291.119 254.257C291.119 254.257 290.506 262.563 290.506 272.237C290.506 281.914 291.119 290.219 291.119 290.219C269.83 283.094 243.539 282.946 228.484 283.137V334.676H207.38V283.137C192.325 282.946 166.035 283.094 144.745 290.219C144.745 290.219 145.358 281.914 145.358 272.237C145.358 262.562 144.745 254.257 144.745 254.257C167.955 262.023 194.02 261.5 207.38 261.284V228.916C195.203 228.808 177.657 229.389 157.817 236.029C157.817 236.029 158.43 227.724 158.43 218.047C158.43 208.371 157.817 200.066 157.817 200.066C177.627 206.694 195.153 207.285 207.326 207.18C206.7 186.682 200.729 160.848 200.729 160.848C200.729 160.848 213.018 161.807 217.931 161.807C222.849 161.807 235.134 160.848 235.134 160.848C235.134 160.848 229.165 186.683 228.538 207.178C240.712 207.284 258.237 206.693 278.047 200.064C278.047 200.064 277.434 208.369 277.434 218.045C277.434 227.722 278.047 236.027 278.047 236.027C258.208 229.388 240.661 228.806 228.484 228.914V261.282V261.284Z" fill="white"/>
<path d="M217.904 329.094C193.052 329.094 179.741 363.563 179.741 363.563C179.741 363.563 172.356 347.219 152.08 347.219C138.361 347.219 128.251 359.42 121.824 370.719C146.783 410.424 186.604 434.926 217.903 450C249.208 434.925 289.055 410.429 314.015 370.719C307.588 359.42 297.478 347.219 283.759 347.219C263.482 347.219 256.066 363.563 256.066 363.563C256.066 363.563 242.758 329.094 217.904 329.094Z" fill="#0B4EA2"/>
</svg>
