<svg width="600" height="600" viewBox="0 0 600 600" fill="none" xmlns="http://www.w3.org/2000/svg">
<g clip-path="url(#clip0_505_2147)">
<path d="M0 0H600V600H0V0Z" fill="white"/>
<path d="M77.1953 214.379L135.586 126.793L150.184 136.525L91.793 224.111L77.1953 214.379ZM99.0919 228.977L157.483 141.391L172.08 151.122L113.69 238.709L99.0919 228.977ZM120.988 243.575L179.379 155.988L193.977 165.72L135.586 253.306L120.988 243.575Z" fill="black"/>
<path d="M398.345 428.479L456.736 340.893L471.334 350.625L412.943 438.211L398.345 428.479ZM420.242 443.077L478.633 355.49L493.23 365.222L434.839 452.809L420.242 443.077ZM442.138 457.674L500.529 370.088L515.127 379.82L456.736 467.406L442.138 457.674Z" fill="black"/>
<path d="M420.242 379.82L493.23 428.479Z" fill="black"/>
<path d="M420.242 379.82L493.23 428.479" stroke="white" stroke-width="12.5"/>
<path d="M208.575 238.709C224.061 215.479 248.141 199.353 275.517 193.878C302.893 188.403 331.323 194.027 354.552 209.513C377.782 225 393.908 249.079 399.383 276.455C404.858 303.831 399.234 332.261 383.748 355.49L208.575 238.709Z" fill="#CD2E3A"/>
<path d="M208.575 238.709C193.089 261.938 187.465 290.368 192.94 317.744C198.415 345.12 214.541 369.2 237.77 384.686C261 400.172 289.429 405.796 316.806 400.321C344.182 394.846 368.261 378.72 383.747 355.491C391.491 343.876 394.303 329.661 391.565 315.973C388.827 302.285 380.764 290.245 369.15 282.502C357.535 274.759 343.32 271.947 329.632 274.684C315.944 277.422 303.904 285.485 296.161 297.1L208.575 238.709Z" fill="#0047A0"/>
<path d="M296.161 297.1C312.285 272.913 305.75 240.235 281.563 224.111C257.377 207.987 224.699 214.523 208.575 238.709C192.451 262.895 198.986 295.573 223.173 311.697C247.359 327.822 280.037 321.286 296.161 297.1Z" fill="#CD2E3A"/>
<path d="M135.586 467.407L77.1956 379.82L91.7933 370.089L150.184 457.675L135.586 467.407ZM157.483 452.809L99.0921 365.223L113.69 355.491L172.081 443.077L157.483 452.809ZM179.38 438.211L120.989 350.625L135.586 340.893L193.977 428.48L179.38 438.211Z" fill="black"/>
<path d="M456.736 253.307L398.345 165.72L412.943 155.989L471.334 243.575L456.736 253.307ZM478.632 238.709L420.242 151.123L434.839 141.391L493.23 228.977L478.632 238.709ZM500.529 224.111L442.138 136.525L456.736 126.793L515.127 214.379L500.529 224.111Z" fill="black"/>
<path d="M124.638 411.449L146.534 396.851ZM420.241 214.38L445.787 197.349ZM467.684 182.751L489.58 168.154Z" fill="black"/>
<path d="M124.638 411.449L146.534 396.851M420.241 214.38L445.787 197.349M467.684 182.751L489.58 168.154" stroke="white" stroke-width="12.5"/>
</g>
<defs>
<clipPath id="clip0_505_2147">
<rect width="600" height="600" rx="300" fill="white"/>
</clipPath>
</defs>
</svg>
