<svg width="600" height="600" viewBox="0 0 600 600" fill="none" xmlns="http://www.w3.org/2000/svg">
<g clip-path="url(#clip0_505_2179)">
<path d="M0 0H600V600H0V0Z" fill="#E70013"/>
<path d="M300 450C382.843 450 450 382.843 450 300C450 217.157 382.843 150 300 150C217.157 150 150 217.157 150 300C150 382.843 217.157 450 300 450Z" fill="white"/>
<path d="M300 412.5C362.132 412.5 412.5 362.132 412.5 300C412.5 237.868 362.132 187.5 300 187.5C237.868 187.5 187.5 237.868 187.5 300C187.5 362.132 237.868 412.5 300 412.5Z" fill="#E70013"/>
<path d="M330 390C379.706 390 420 349.706 420 300C420 250.294 379.706 210 330 210C280.294 210 240 250.294 240 300C240 349.706 280.294 390 330 390Z" fill="white"/>
<path d="M262.5 300L384.608 260.325L309.15 364.2V235.8L384.6 339.675L262.5 300Z" fill="#E70013"/>
</g>
<defs>
<clipPath id="clip0_505_2179">
<rect width="600" height="600" rx="300" fill="white"/>
</clipPath>
</defs>
</svg>
