<svg width="600" height="600" viewBox="0 0 600 600" fill="none" xmlns="http://www.w3.org/2000/svg">
<g clip-path="url(#clip0_505_1815)">
<path d="M0 0H600V600H0V0Z" fill="white"/>
<path d="M222.223 66.6667H600V133.333H222.223V66.6667Z" fill="#0038A8"/>
<path d="M222.223 200H600V266.667H222.223V200Z" fill="#0038A8"/>
<path d="M0 333.333H600V400H0V333.333Z" fill="#0038A8"/>
<path d="M0 466.667H600V533.333H0V466.667Z" fill="#0038A8"/>
<path d="M114.89 223.524L122.952 235.562C89.8246 259.536 110.049 273.712 86.5732 281.386C101.174 267.137 84.6433 264.939 96.9453 235.239" fill="#FCD116"/>
<path d="M114.89 223.524L122.952 235.562C89.8246 259.536 110.049 273.712 86.5732 281.386C101.174 267.137 84.6433 264.939 96.9453 235.239" stroke="#7B3F00" stroke-width="2.30929" stroke-miterlimit="20" stroke-linecap="square"/>
<path d="M99.6662 212.651L96.8545 226.864C56.4783 220.391 60.7549 244.716 38.7288 233.542C59.1292 233.791 49.4549 220.367 79.1547 208.065" fill="#FCD116"/>
<path d="M99.6662 212.651L96.8545 226.864C56.4783 220.391 60.7549 244.716 38.7288 233.542C59.1292 233.791 49.4549 220.367 79.1547 208.065" stroke="#7B3F00" stroke-width="2.31" stroke-miterlimit="20" stroke-linecap="square"/>
<path d="M99.6667 212.653L93.3056 211.507L93.371 211.77C76.3999 215.929 67.185 222.964 59.9673 228.311C56.3567 230.984 53.2418 233.257 49.8633 234.489C47.6259 235.318 45.2243 235.607 42.854 235.333C60.3736 241.557 59.2135 220.835 96.856 226.869L99.6667 212.653Z" fill="#7B3F00" stroke="#7B3F00" stroke-width="1.05105" stroke-miterlimit="20" stroke-linecap="square"/>
<path d="M93.179 210.988C58.9539 219.366 55.7176 239.554 38.7294 233.542" stroke="#7B3F00" stroke-width="2.31" stroke-miterlimit="20"/>
<path d="M120.403 199.712L109.038 188.346L57.8926 262.223L131.769 211.077L120.403 199.712L57.8926 262.223" fill="#FCD116"/>
<path d="M120.403 199.712L109.038 188.346L57.8926 262.223L131.769 211.077L120.403 199.712L57.8926 262.223" stroke="#7B3F00" stroke-width="2.30929" stroke-miterlimit="20"/>
<path d="M96.5914 194.198L84.5532 202.259C60.5797 169.132 46.4032 189.357 38.7295 165.881C52.9789 180.482 55.3131 163.978 85.0129 176.28" fill="#FCD116"/>
<path d="M96.5914 194.198L84.5532 202.259C60.5797 169.132 46.4032 189.357 38.7295 165.881C52.9789 180.482 55.3131 163.978 85.0129 176.28" stroke="#7B3F00" stroke-width="2.31" stroke-miterlimit="20" stroke-linecap="square"/>
<path d="M96.5892 194.2L92.9018 188.892L92.7622 189.124C77.8209 180.064 66.3301 178.523 57.4455 177.201C53.0025 176.537 49.1924 175.942 45.9329 174.424C43.7644 173.428 41.8616 171.935 40.3793 170.065C48.3669 186.854 62.1989 171.381 84.55 202.265L96.5892 194.2Z" fill="#7B3F00" stroke="#7B3F00" stroke-width="1.05105" stroke-miterlimit="20" stroke-linecap="square"/>
<path d="M93.1784 188.435C63.054 170.158 46.4904 182.144 38.7288 165.881" stroke="#7B3F00" stroke-width="2.31" stroke-miterlimit="20"/>
<path d="M120.404 199.712V183.638L32.0005 199.712L120.404 215.785V199.712H32.0005Z" fill="#FCD116"/>
<path d="M120.404 199.712V183.638L32.0005 199.712L120.404 215.785V199.712ZM120.404 199.712H32.0005" stroke="#7B3F00" stroke-width="2.31" stroke-miterlimit="20"/>
<path d="M120.404 199.712V215.785V199.712H32.0005L120.404 215.785" fill="#7B3F00"/>
<path d="M107.465 178.975L93.2523 176.163C99.7249 135.787 75.3997 140.063 86.5735 118.037C86.3248 138.438 100.438 130.395 112.74 160.094" fill="#FCD116"/>
<path d="M107.465 178.975L93.2523 176.163C99.7249 135.787 75.3997 140.063 86.5735 118.037C86.3248 138.438 100.438 130.395 112.74 160.094" stroke="#7B3F00" stroke-width="2.31" stroke-miterlimit="20" stroke-linecap="square"/>
<path d="M107.462 178.976L108.609 172.615L108.346 172.68C104.187 155.709 97.1512 146.494 91.8041 139.276C89.1313 135.666 86.8581 132.551 85.6269 129.172C84.7975 126.935 84.5081 124.533 84.7822 122.163C78.5587 139.683 99.2803 138.523 93.2469 176.165L107.462 178.976Z" fill="#7B3F00" stroke="#7B3F00" stroke-width="1.05105" stroke-miterlimit="20" stroke-linecap="square"/>
<path d="M109.127 172.487C100.75 138.262 80.5618 135.025 86.5734 118.037" stroke="#7B3F00" stroke-width="2.31" stroke-miterlimit="20"/>
<path d="M120.404 199.712L131.77 188.346L57.893 137.201L109.038 211.077L120.404 199.712L57.893 137.201Z" fill="#FCD116"/>
<path d="M120.404 199.712L131.77 188.346L57.893 137.201L109.038 211.077L120.404 199.712ZM120.404 199.712L57.893 137.201" stroke="#7B3F00" stroke-width="2.31" stroke-miterlimit="20"/>
<path d="M120.403 199.712L109.038 211.077L120.403 199.712L57.8924 137.201L109.038 211.077" fill="#7B3F00"/>
<path d="M125.916 175.899L117.854 163.861C150.981 139.887 130.756 125.711 154.232 118.037C139.631 132.286 156.078 134.636 143.776 164.336" fill="#FCD116"/>
<path d="M125.916 175.899L117.854 163.861C150.981 139.887 130.756 125.711 154.232 118.037C139.631 132.286 156.078 134.636 143.776 164.336" stroke="#7B3F00" stroke-width="2.31" stroke-miterlimit="20" stroke-linecap="square"/>
<path d="M125.914 175.898L131.222 172.21L130.99 172.071C140.049 157.129 141.59 145.638 142.913 136.754C143.576 132.311 144.171 128.501 145.69 125.241C146.685 123.073 148.179 121.17 150.049 119.688C133.26 127.675 148.733 141.507 117.849 163.858L125.914 175.898Z" fill="#7B3F00" stroke="#7B3F00" stroke-width="1.05105" stroke-miterlimit="20" stroke-linecap="square"/>
<path d="M131.679 172.487C149.956 142.362 137.969 125.799 154.233 118.037" stroke="#7B3F00" stroke-width="2.31" stroke-miterlimit="20"/>
<path d="M120.402 199.712H136.476L120.402 111.308L104.329 199.712H120.402V111.308Z" fill="#FCD116"/>
<path d="M120.402 199.712H136.476L120.402 111.308L104.329 199.712H120.402ZM120.402 199.712V111.308" stroke="#7B3F00" stroke-width="2.31" stroke-miterlimit="20"/>
<path d="M120.402 199.711H104.329H120.402V111.308L104.329 199.711" fill="#7B3F00"/>
<path d="M141.138 186.772L143.95 172.559C184.326 179.032 180.049 154.707 202.075 165.881C181.675 165.632 190.764 179.123 161.064 191.425" fill="#FCD116"/>
<path d="M141.138 186.772L143.95 172.559C184.326 179.032 180.049 154.707 202.075 165.881C181.675 165.632 190.764 179.123 161.064 191.425" stroke="#7B3F00" stroke-width="2.31" stroke-miterlimit="20" stroke-linecap="square"/>
<path d="M141.137 186.77L147.498 187.916L147.433 187.654C164.404 183.495 173.619 176.459 180.836 171.112C184.447 168.439 187.562 166.166 190.94 164.935C193.178 164.105 195.579 163.816 197.95 164.09C180.43 157.867 181.59 178.588 143.948 172.555L141.137 186.77Z" fill="#7B3F00" stroke="#7B3F00" stroke-width="1.05105" stroke-miterlimit="20" stroke-linecap="square"/>
<path d="M147.626 188.435C181.851 180.057 185.087 159.869 202.075 165.881" stroke="#7B3F00" stroke-width="2.31" stroke-miterlimit="20"/>
<path d="M120.402 199.711L131.768 211.077L182.913 137.2L109.036 188.346L120.402 199.711L182.913 137.2Z" fill="#FCD116"/>
<path d="M120.402 199.711L131.768 211.077L182.913 137.2L109.036 188.346L120.402 199.711ZM120.402 199.711L182.913 137.2" stroke="#7B3F00" stroke-width="2.31" stroke-miterlimit="20"/>
<path d="M120.401 199.711L109.036 188.346L120.401 199.711L182.912 137.201L109.036 188.346" fill="#7B3F00"/>
<path d="M144.217 205.226L156.256 197.164C180.229 230.291 194.406 210.067 202.079 233.543C187.83 218.942 185.155 235.28 155.455 222.978" fill="#FCD116"/>
<path d="M144.217 205.226L156.256 197.164C180.229 230.291 194.406 210.067 202.079 233.543C187.83 218.942 185.155 235.28 155.455 222.978" stroke="#7B3F00" stroke-width="2.31" stroke-miterlimit="20" stroke-linecap="square"/>
<path d="M144.219 205.224L147.907 210.532L148.046 210.3C162.988 219.359 174.479 220.9 183.363 222.223C187.806 222.886 191.616 223.482 194.876 225C197.044 225.995 198.947 227.489 200.429 229.359C192.442 212.57 178.61 228.043 156.259 197.159L144.219 205.224Z" fill="#7B3F00" stroke="#7B3F00" stroke-width="1.05105" stroke-miterlimit="20" stroke-linecap="square"/>
<path d="M147.629 210.989C177.754 229.266 194.317 217.279 202.079 233.542" stroke="#7B3F00" stroke-width="2.31" stroke-miterlimit="20"/>
<path d="M120.404 199.712V215.785L208.808 199.712L120.404 183.638V199.712H208.808Z" fill="#FCD116"/>
<path d="M120.404 199.712V215.785L208.808 199.712L120.404 183.638V199.712ZM120.404 199.712H208.808" stroke="#7B3F00" stroke-width="2.31" stroke-miterlimit="20"/>
<path d="M120.404 199.712V183.638V199.712H208.808L120.404 183.638" fill="#7B3F00"/>
<path d="M133.344 220.449L147.557 223.261C141.084 263.637 165.409 259.36 154.235 281.387C154.484 260.986 141.052 270.434 128.75 240.735" fill="#FCD116"/>
<path d="M133.344 220.449L147.557 223.261C141.084 263.637 165.409 259.36 154.235 281.387C154.484 260.986 141.052 270.434 128.75 240.735" stroke="#7B3F00" stroke-width="2.31" stroke-miterlimit="20" stroke-linecap="square"/>
<path d="M133.346 220.448L132.2 226.809L132.463 226.743C136.622 243.715 143.657 252.93 149.004 260.147C151.677 263.758 153.951 266.873 155.182 270.251C156.011 272.489 156.3 274.89 156.026 277.261C162.25 259.741 141.528 260.901 147.562 223.258L133.346 220.448Z" fill="#7B3F00" stroke="#7B3F00" stroke-width="1.05105" stroke-miterlimit="20" stroke-linecap="square"/>
<path d="M131.681 226.936C140.059 261.162 160.247 264.398 154.235 281.386" stroke="#7B3F00" stroke-width="2.31" stroke-miterlimit="20"/>
<path d="M120.405 199.712L109.039 211.077L182.916 262.223L131.77 188.346L120.405 199.712L182.916 262.223Z" fill="#FCD116"/>
<path d="M120.405 199.712L109.039 211.077L182.916 262.223L131.77 188.346L120.405 199.712ZM120.405 199.712L182.916 262.223" stroke="#7B3F00" stroke-width="2.31" stroke-miterlimit="20"/>
<path d="M120.404 199.712L131.77 188.346L120.404 199.712L182.915 262.223L131.77 188.346" fill="#7B3F00"/>
<path d="M114.892 223.525L109.584 227.213L109.816 227.352C100.756 242.294 99.2153 253.785 97.8926 262.669C97.2295 267.112 96.6343 270.922 95.116 274.182C94.1203 276.35 92.6268 278.253 90.7568 279.735C107.546 271.748 92.0731 257.916 122.957 235.565L114.892 223.525Z" fill="#7B3F00" stroke="#7B3F00" stroke-width="1.05071" stroke-miterlimit="20" stroke-linecap="square"/>
<path d="M109.128 226.936C90.8508 257.06 102.838 273.624 86.5742 281.386" stroke="#7B3F00" stroke-width="2.30929" stroke-miterlimit="20"/>
<path d="M120.403 199.711H104.33L120.403 288.115L136.477 199.711H120.403V288.115Z" fill="#FCD116"/>
<path d="M120.403 199.711H104.33L120.403 288.115L136.477 199.711H120.403ZM120.403 199.711V288.115" stroke="#7B3F00" stroke-width="2.30929" stroke-miterlimit="20"/>
<path d="M120.403 199.712H136.477H120.403V288.116L136.477 199.712" fill="#7B3F00"/>
<path d="M120.403 199.712L131.769 211.078L120.403 199.712L57.8926 262.223L131.769 211.078" fill="#7B3F00"/>
<path d="M120.403 229.178C136.678 229.178 149.871 215.985 149.871 199.711C149.871 183.436 136.678 170.243 120.403 170.243C104.129 170.243 90.9355 183.436 90.9355 199.711C90.9355 215.985 104.129 229.178 120.403 229.178Z" fill="#FCD116" stroke="#7B3F00" stroke-width="2.30929" stroke-miterlimit="20"/>
<path d="M142.103 187.924C140.227 190.068 139.156 186.317 132.459 186.317C125.761 186.317 124.69 190.335 123.618 189.532C122.547 188.728 129.244 183.906 131.387 183.638C133.53 183.37 139.692 185.513 142.103 187.924ZM134.334 190.335C136.209 191.943 134.602 195.425 132.726 195.425C130.851 195.425 127.369 192.211 128.976 190.068" fill="#7B3F00"/>
<path d="M125.493 192.747C125.761 189.532 128.44 188.996 132.726 188.996C137.012 188.996 138.888 192.211 140.495 193.014C138.62 193.014 137.012 190.336 132.726 190.336C128.44 190.336 128.44 190.336 125.493 193.014M126.297 193.55C127.368 191.943 128.708 195.158 131.655 195.158C134.601 195.158 136.209 194.354 138.084 193.014C139.959 191.675 135.405 196.229 132.458 196.229C129.512 196.229 125.493 194.622 126.297 193.55" fill="#7B3F00"/>
<path d="M105.402 190.068C104.063 190.604 101.919 193.282 105.402 195.157C102.723 193.282 104.866 190.604 105.402 190.068Z" fill="#7B3F00"/>
<path d="M135.405 190.068C135.941 190.604 138.084 193.282 135.405 195.157C138.888 193.282 136.745 190.604 135.405 190.068Z" fill="#7B3F00"/>
<path d="M116.118 201.587C113.707 202.123 114.51 205.605 112.367 205.873C110.224 206.141 109.152 208.552 109.42 208.284C110.76 207.213 113.707 206.409 115.85 206.409C117.993 206.409 118.529 207.749 120.404 207.749C122.279 207.749 122.815 206.409 124.958 206.409C127.101 206.409 130.048 207.213 131.388 208.284C131.655 208.552 130.584 206.141 128.441 205.873C126.298 205.605 127.101 202.123 124.69 201.587C124.69 202.658 125.493 202.39 125.761 203.998C125.761 205.337 123.351 205.337 122.815 203.998C123.351 206.141 121.743 206.141 120.404 206.141C119.065 206.141 117.457 206.141 117.993 203.998C117.457 205.337 115.047 205.337 115.047 203.998C115.315 202.39 116.118 202.658 116.118 201.587Z" fill="#7B3F00"/>
<path d="M107.813 210.695C105.669 212.303 105.134 213.106 104.866 214.982C105.509 213.857 105.824 213.395 106.312 212.734C106.183 212.678 106.072 212.627 105.938 212.571C106.094 212.589 106.234 212.614 106.384 212.635C106.708 212.197 106.996 211.818 107.813 210.695V210.695Z" fill="#7B3F00"/>
<path d="M106.385 212.635C106.377 212.645 106.358 212.671 106.351 212.681C106.685 212.759 107.041 212.795 107.413 212.796C107.086 212.738 106.742 212.684 106.385 212.635H106.385Z" fill="#7B3F00"/>
<path d="M107.412 212.796C109.083 213.091 110.394 213.476 111.597 213.865C113.096 213.754 115.164 213.374 120.403 213.374C125.642 213.374 127.71 213.754 129.209 213.865C130.412 213.476 131.723 213.091 133.394 212.796C130.442 212.807 126.507 210.695 124.689 210.695C122.546 210.695 122.01 211.231 120.403 211.231C118.796 211.231 118.26 210.695 116.117 210.695C114.299 210.695 110.364 212.807 107.412 212.796Z" fill="#7B3F00"/>
<path d="M133.395 212.796C133.767 212.795 134.122 212.759 134.457 212.681C134.45 212.67 134.431 212.645 134.423 212.635C134.066 212.684 133.722 212.738 133.395 212.796H133.395Z" fill="#7B3F00"/>
<path d="M134.422 212.635C134.573 212.614 134.712 212.59 134.868 212.571C134.735 212.627 134.624 212.678 134.495 212.734C134.982 213.395 135.298 213.857 135.941 214.982C135.673 213.106 135.137 212.303 132.994 210.695C133.811 211.818 134.098 212.197 134.422 212.635V212.635Z" fill="#7B3F00"/>
<path d="M134.496 212.734C134.493 212.728 134.486 212.718 134.482 212.715C131.687 213.792 130.702 213.975 129.211 213.865C126.671 214.687 124.577 215.518 120.404 215.518C116.232 215.518 114.138 214.687 111.598 213.865C110.106 213.976 109.122 213.792 106.326 212.715C106.323 212.721 106.316 212.731 106.312 212.734C114.728 216.356 113.808 217.66 120.404 217.66C127 217.66 126.08 216.356 134.496 212.734H134.496Z" fill="#7B3F00"/>
<path d="M106.326 212.715C106.331 212.707 106.345 212.688 106.35 212.681C106.211 212.648 106.07 212.619 105.938 212.571C106.091 212.631 106.183 212.66 106.326 212.715Z" fill="#7B3F00"/>
<path d="M134.482 212.715C134.625 212.66 134.717 212.631 134.87 212.571C134.738 212.618 134.598 212.648 134.458 212.68C134.464 212.688 134.477 212.707 134.482 212.714V212.715Z" fill="#7B3F00"/>
<path d="M98.705 187.925C100.58 190.068 101.652 186.317 108.349 186.317C115.046 186.317 116.118 190.336 117.189 189.532C118.261 188.728 111.564 183.906 109.421 183.638C107.277 183.371 101.116 185.514 98.705 187.925ZM106.474 190.336C104.599 191.943 106.206 195.426 108.081 195.426C109.956 195.426 113.439 192.211 111.832 190.068" fill="#7B3F00"/>
<path d="M115.314 192.747C115.047 189.532 112.368 188.996 108.081 188.996C103.795 188.996 101.92 192.211 100.313 193.015C102.188 193.015 103.795 190.336 108.081 190.336C112.368 190.336 112.368 190.336 115.314 193.015M114.511 193.55C113.439 191.943 112.1 195.158 109.153 195.158C106.206 195.158 104.599 194.354 102.724 193.015C100.848 191.675 105.403 196.229 108.349 196.229C111.296 196.229 115.314 194.622 114.511 193.55Z" fill="#7B3F00"/>
<path d="M120.405 220.071C119.065 220.071 115.583 220.875 120.405 220.875C125.227 220.875 121.744 220.071 120.405 220.071Z" fill="#7B3F00"/>
</g>
<defs>
<clipPath id="clip0_505_1815">
<rect width="600" height="600" rx="300" fill="white"/>
</clipPath>
</defs>
</svg>
