<svg width="600" height="600" viewBox="0 0 600 600" fill="none" xmlns="http://www.w3.org/2000/svg">
<g clip-path="url(#clip0_505_2048)">
<path d="M600 0H0V600H600V0Z" fill="#B22234"/>
<path d="M0 69.231H600ZM600 161.539H0ZM0 253.846H600ZM600 346.154H0ZM0 438.462H600ZM600 530.769H0Z" fill="black"/>
<path d="M0 69.231H600M600 161.539H0M0 253.846H600M600 346.154H0M0 438.462H600M600 530.769H0" stroke="white" stroke-width="50"/>
<path d="M269.423 0H-178V317H269.423V0Z" fill="#3C3B6E"/>
<path d="M8.42986 13.585L19.0772 46.354L-8.79785 26.1016H25.6576L-2.21745 46.354L8.42986 13.585Z" fill="white"/>
<path d="M8.42986 76.9849L19.0772 109.754L-8.79785 89.5015H25.6576L-2.21745 109.754L8.42986 76.9849Z" fill="white"/>
<path d="M8.42986 140.385L19.0772 173.154L-8.79785 152.901H25.6576L-2.21745 173.154L8.42986 140.385Z" fill="white"/>
<path d="M8.42986 203.785L19.0772 236.554L-8.79785 216.302H25.6576L-2.21745 236.554L8.42986 203.785Z" fill="white"/>
<path d="M8.43035 267.185L19.0777 299.954L-8.79736 279.701H25.6581L-2.21696 299.954L8.43035 267.185Z" fill="white"/>
<path d="M45.7111 45.2852L56.3584 78.0542L28.4834 57.8018H62.9388L35.0638 78.0542L45.7111 45.2852Z" fill="white"/>
<path d="M45.7111 108.686L56.3584 141.455L28.4834 121.202H62.9388L35.0638 141.455L45.7111 108.686Z" fill="white"/>
<path d="M45.7111 172.085L56.3584 204.854L28.4834 184.602H62.9388L35.0638 204.854L45.7111 172.085Z" fill="white"/>
<path d="M45.7111 235.485L56.3584 268.254L28.4834 248.002H62.9388L35.0638 268.254L45.7111 235.485Z" fill="white"/>
<path d="M82.9982 13.585L93.6455 46.354L65.7705 26.1016H100.226L72.3509 46.354L82.9982 13.585Z" fill="white"/>
<path d="M82.9982 76.9849L93.6455 109.754L65.7705 89.5015H100.226L72.3509 109.754L82.9982 76.9849Z" fill="white"/>
<path d="M82.9982 140.385L93.6455 173.154L65.7705 152.901H100.226L72.3509 173.154L82.9982 140.385Z" fill="white"/>
<path d="M82.9982 203.785L93.6455 236.554L65.7705 216.302H100.226L72.3509 236.554L82.9982 203.785Z" fill="white"/>
<path d="M82.9982 267.185L93.6455 299.954L65.7705 279.702H100.226L72.3509 299.954L82.9982 267.185Z" fill="white"/>
<path d="M120.281 45.2856L130.929 78.0547L103.054 57.8023H137.509L109.634 78.0547L120.281 45.2856Z" fill="white"/>
<path d="M120.281 108.686L130.929 141.455L103.054 121.203H137.509L109.634 141.455L120.281 108.686Z" fill="white"/>
<path d="M120.281 172.086L130.929 204.855L103.054 184.603H137.509L109.634 204.855L120.281 172.086Z" fill="white"/>
<path d="M120.281 235.486L130.929 268.255L103.054 248.003H137.509L109.634 268.255L120.281 235.486Z" fill="white"/>
<path d="M157.56 13.5854L168.207 46.3545L140.332 26.1021H174.787L146.912 46.3545L157.56 13.5854Z" fill="white"/>
<path d="M157.56 76.9849L168.207 109.754L140.332 89.5015H174.787L146.912 109.754L157.56 76.9849Z" fill="white"/>
<path d="M157.56 140.385L168.207 173.154L140.332 152.902H174.787L146.912 173.154L157.56 140.385Z" fill="white"/>
<path d="M157.56 203.785L168.207 236.554L140.332 216.302H174.787L146.912 236.554L157.56 203.785Z" fill="white"/>
<path d="M157.56 267.185L168.207 299.954L140.332 279.702H174.787L146.912 299.954L157.56 267.185Z" fill="white"/>
<path d="M194.847 45.2852L205.494 78.0542L177.619 57.8018H212.075L184.2 78.0542L194.847 45.2852Z" fill="white"/>
<path d="M194.847 108.686L205.494 141.455L177.619 121.202H212.075L184.2 141.455L194.847 108.686Z" fill="white"/>
<path d="M194.847 172.085L205.494 204.854L177.619 184.602H212.075L184.2 204.854L194.847 172.085Z" fill="white"/>
<path d="M194.847 235.485L205.494 268.254L177.619 248.002H212.075L184.2 268.254L194.847 235.485Z" fill="white"/>
<path d="M232.14 13.585L242.787 46.354L214.912 26.1016H249.368L221.493 46.354L232.14 13.585Z" fill="white"/>
<path d="M232.14 76.9849L242.787 109.754L214.912 89.5015H249.368L221.493 109.754L232.14 76.9849Z" fill="white"/>
<path d="M232.14 140.385L242.787 173.154L214.912 152.901H249.368L221.493 173.154L232.14 140.385Z" fill="white"/>
<path d="M232.14 203.785L242.787 236.554L214.912 216.302H249.368L221.493 236.554L232.14 203.785Z" fill="white"/>
<path d="M232.14 267.185L242.787 299.954L214.912 279.702H249.368L221.493 299.954L232.14 267.185Z" fill="white"/>
</g>
<defs>
<clipPath id="clip0_505_2048">
<rect width="600" height="600" rx="300" fill="white"/>
</clipPath>
</defs>
</svg>
