<svg width="600" height="600" viewBox="0 0 600 600" fill="none" xmlns="http://www.w3.org/2000/svg">
<g clip-path="url(#clip0)">
<path d="M601 0H1V300H601V0Z" fill="white"/>
<path d="M601 300H1V600H601V300Z" fill="#00AB39"/>
<path fill-rule="evenodd" clip-rule="evenodd" d="M401.069 139C361.278 160.998 325.673 183.89 290.666 213.062C273.875 227.728 278.614 239.419 277.965 252.59C278.506 261.432 276.054 269.658 270.616 274.614C258.172 277.13 245.719 279.661 233.276 282.177C232.084 278.735 230.9 275.296 229.708 271.855C230.846 266.573 235.212 263.976 244.407 267.288C245.131 260.497 239.667 257.733 233.276 255.373C231.08 253.663 228.353 252.35 228.709 246.478C227.635 233.184 248.965 247.429 249.163 247.429C249.362 247.429 248.453 234.013 238.651 231.328C233.307 229.436 231.045 223.799 233.086 219.626C237.361 211.095 245.41 220.295 251.565 220.625C251.335 215.056 249.749 211.088 244.954 206.593C242.372 205.004 236.033 203.809 235.868 201.146C235.734 197.53 241.81 195.983 250.162 196.984C248.421 191.916 242.804 188.636 235.083 186.258C233.561 183.61 232.039 180.962 230.517 178.314C228.355 174.311 227.385 174.203 232.396 166.613C236.898 163.7 242.879 159.583 247.379 156.671C245.724 156.473 244.064 156.275 242.409 156.077C243.07 150.649 243.146 148.823 244.407 139.809C239.577 146.408 233.542 145.229 228.115 147.943C228.115 147.943 212.642 150.689 207.661 157.266C207.462 157.266 168.751 155.292 168.751 155.292C160.501 156.441 153.454 158.779 152.079 166.803C133.21 168.707 113.45 167.023 99.0654 185.069C108.86 184.605 117.434 182.273 128.438 183.689C128.438 183.689 137.815 183.866 139.759 193.797C139.958 194.194 142.946 194.202 142.946 194.202C144.138 195.128 145.322 196.058 146.514 196.984C146.977 195.727 147.43 194.46 147.893 193.203C148.952 193.931 150.021 194.662 151.08 195.391C151.41 194.001 151.749 192.619 152.079 191.229C153.138 191.957 154.183 192.689 155.242 193.417C155.308 191.762 155.391 190.101 155.456 188.446C156.847 189.439 158.229 190.426 159.618 191.419V184.878C159.618 184.878 174.986 184.842 179.668 194.606C179.867 194.805 136.538 202.569 94.6892 198.982C98.7275 196.996 102.758 194.998 106.795 193.012C91.5356 189.91 77.1889 187.106 63.7231 176.53C68.8049 195.661 95.0648 218.133 100.445 218.033C100.445 218.231 95.2838 208.71 95.2838 208.71C110.441 209.372 125.601 210.022 140.758 210.684C142.413 215.714 141.681 221.354 145.729 225.786C145.729 225.786 143.218 234.101 148.797 237.488C148.996 237.884 155.456 220.625 155.456 220.625C155.456 220.625 157.435 225.268 159.428 228.355C162.316 213.508 178.479 211.088 178.479 211.088C178.479 211.088 181.856 218.833 181.856 219.032C176.805 219.762 170.523 230.057 173.912 235.704C170.525 235.769 164.512 245.739 166.373 251.187C163.526 254.02 156.434 257.798 158.239 269.667C152.657 270.863 149.352 281.076 151.08 291.904C142.443 299.944 144.563 314.703 152.269 320.682C149.07 323.529 147.101 325.717 147.108 329.221C144.067 328.09 141.264 329.035 139.949 331.028C136.222 327.207 130.868 323.861 127.059 327.437C126.072 322.916 120.185 317.943 113.74 318.518C114.117 313.751 111.643 307.85 104.821 305.794C104.821 305.794 103.441 283.45 96.6633 276.207C95.9989 272.154 97.0512 269.397 102.633 266.075C108.206 263.103 109.39 260.797 108.983 252.376C111.18 246.747 112.85 241.008 106.01 237.107C106.216 243.801 104.162 247.025 101.444 249.998C98.197 249.525 97.0638 253.314 94.8795 254.968C91.823 250.849 101.327 244.467 94.2849 235.3C93.8884 234.901 89.3692 223.333 78.2073 223.598C83.5127 226.705 85.7565 231.933 85.7466 237.297C82.2274 247.226 80.4391 254.898 83.9629 266.289C79.3257 259.342 76.6956 246.135 72.856 243.838C69.4905 243.181 67.8464 235.221 54.7805 237.488C60.4168 239.004 62.2064 243.308 63.7231 247.215C60.2671 248.997 61.984 253.699 64.508 256.943C64.0287 264.565 68.5947 269.018 75.4246 271.855C74.2997 282.246 73.1722 292.62 72.0473 303.011C69.3341 302.665 65.1591 313.228 63.509 313.547C60.8538 315.2 56.217 319.643 61.535 320.896C59.9552 326.598 58.4899 330.036 50 331.218C50 331.218 58.9705 336.539 66.4106 327.437C74.3821 327.238 71.7608 317.732 75.6149 313.547C75.6149 313.349 77.8026 311.975 80.9899 303.606C82.3842 311.079 90.0524 333.964 107.39 345.322C122.502 361.499 134.921 376.777 134.788 398.336C140.687 392.849 144.209 384.161 146.918 375.884C155.12 373.031 166.852 371.942 177.313 372.412C175.519 376.187 173.51 379.81 176.1 382.258C168.799 384.766 167.2 390.064 170.131 395.363C162.435 400.589 161.928 403.948 161.806 412.63C147.568 430.884 138.784 430.278 124.68 425.544C120.048 422.825 112.88 418.912 109.578 420.978C103.486 416.918 94.7275 416.314 93.286 425.544C97.857 421.755 100.586 422.485 104.226 426.139C103.494 427.993 102.883 429.839 105.606 430.895C104.414 432.219 103.23 433.544 102.038 434.867C95.4832 433.859 86.6694 433.916 84.3672 443.405C87.7342 440.616 95.2051 439.961 101.23 442.621C102.355 443.018 103.481 443.412 104.607 443.81C104.739 445.332 104.88 446.854 105.011 448.376C105.011 448.376 96.0824 446.998 93.6903 461.481C102.062 452.575 107.984 454.917 107.984 454.917C111.21 459.639 123.084 458.928 131.625 451.159C143.621 444.452 147.118 454.09 154.862 447.782C161.282 442.993 168.878 446.177 174.102 451.753C180.126 454.013 186.432 455.873 191.393 451.753C191.393 451.753 197.454 447.886 203.499 454.132C203.565 447.09 198.575 443.348 191.797 443.215C191.135 442.553 191.524 443.474 189.8 441.217C183.445 439.893 176.306 440.431 170.749 437.245C173.369 427.302 177.185 418.292 184.639 410.632C193.838 400.77 200.611 396.286 212.227 381.188C211.779 389.72 218.318 399.206 221.765 407.873C221.765 407.873 228.703 396.795 229.708 387.799C229.906 387.799 238.402 383.378 242.028 379.618C249.682 384.365 262.156 375.818 270.212 368.749C275.178 370.629 278.948 370.494 284.72 368.749C280.086 378.179 287.4 386.927 299.014 390.582C300.087 398.907 308.496 400.649 321.251 400.714C321.788 405.612 329.385 406.279 329.385 406.279C324.585 408.517 322.083 410.759 322.25 415.816C317.33 415.85 313.604 417.088 312.309 422.761C305.553 422.877 298.669 423.395 292.854 426.733C286.632 425.767 279.062 423.189 274.184 418.195C271.667 416.077 271.039 413.023 266.644 411.845C263.859 408.552 260.526 409.287 259.485 412.439C256.606 410.19 245.807 409.145 244.002 419.384C249.044 415.694 253.564 414.288 256.726 418.789C255.003 421.915 260.924 423.703 266.05 424.949C269.684 425.175 276.132 428.486 278.155 434.082C273.467 435.505 266.362 435.036 261.673 431.49C257.506 428.003 251.876 428.418 248.783 430.705C244.49 427.968 234.268 433.135 233.87 441.408C238.177 437.462 242.097 435.554 246 438.054C244.057 438.515 244.796 438.705 245.001 439.838C248.31 441.757 251.61 443.674 254.919 445.593C250.053 446.877 245.478 448.818 247.594 457.89C247.594 457.89 251.558 450.054 260.484 452.943C260.683 452.744 261.715 455.741 264.266 453.727C268.129 449.331 276.962 447.363 284.72 446.592C290.945 445.849 297.161 444.015 302.581 447.568C307.407 445.085 312.78 443.415 318.278 447.377C324.765 449.429 329.501 456.99 337.733 453.537C341.827 450.704 346.859 450.56 352.027 456.32C352.09 449.057 346.647 446.622 338.922 444.999C337.135 443.939 335.359 442.871 333.571 441.812C328.607 441.084 323.622 441.963 318.659 439.624C344.637 432.908 362.848 418.421 375.668 397.741C379.772 399.197 383.86 400.637 387.964 402.093C390.875 402.28 391.097 403.292 397.097 405.09C397.323 396.251 393.529 387.146 377.642 386.23L356.784 378.286C352.357 373.617 350.356 363.71 355.999 357.832C361.523 352.913 362.487 353.503 366.131 347.51C370.562 347.107 374.739 351.672 378.831 351.672C380.775 357.447 391.978 362.551 399.095 360.805C403.554 364.753 412.039 366.947 421.332 363.778C426.606 368.396 433.478 370.324 441.572 366.751C443.721 368.9 448.257 370.608 453.488 369.534C453.885 369.534 456.131 375.273 461.836 377.287C459.348 379.704 460.878 390.2 463.429 393.959C461.688 397.995 461.139 402.3 462.62 406.47C456.867 410.168 455.696 412.92 458.268 419.17C450.734 431.276 441.722 432.66 433.248 428.921C430.202 427.002 427.161 425.062 424.115 423.142C420.872 419.964 417.63 416.806 414.387 413.628C412.736 412.078 409.319 411.591 408.608 415.008C408.608 415.008 396.127 412.224 395.123 422.761C400.296 417.723 407.633 422.158 407.633 422.357C407.633 422.556 405.885 423.744 407.229 425.758C407.531 425.506 416.341 429.046 424.186 432.417C428.449 434.033 429.385 434.538 431.25 435.533C429.207 434.598 426.792 433.537 424.186 432.417C419.41 430.607 414.758 429.161 413.389 429.516C408.944 429.101 404.229 428.549 402.068 431.894C397.29 433.916 389.827 435.535 390.152 444.404C393.378 439.122 397.804 439.345 403.447 439.838C403.315 440.235 403.199 440.63 403.066 441.027C409.193 443.817 408.031 440.267 413.745 439.743C418.523 439.304 425.294 441.016 428.872 442.216C424.371 443.54 418.252 442.985 415.363 446.188C414.833 447.247 412.979 446.815 413.793 449.351C413.793 449.351 405.015 449.125 402.662 461.267C411.588 455.552 418.352 455.725 418.55 455.725C418.748 455.725 421.332 456.32 421.332 456.32C421.332 456.32 432.051 449.161 432.249 449.161C432.448 449.161 442.628 444.653 447.328 449.756C451.429 451.772 455.816 451.9 460.052 449.351C468.398 445.721 476.209 445.467 483.883 450.564L490.828 454.726C491.82 454.065 492.808 453.391 493.801 452.729C493.801 452.729 501.662 450.509 507.429 457.509C505.045 445.397 496.393 444.999 496.393 444.999C495.731 444.403 495.057 443.811 494.395 443.215C490.292 441.627 486.203 440.023 482.099 438.435C480.308 434.001 475.807 430.47 480.292 425.14C484.873 402.364 490.351 385.259 481.481 362.185C489.754 365.759 495.945 376.81 506.311 372.911C506.311 363.644 472.198 346.05 446.138 331.908C488.83 329.724 540.142 298.21 520.414 258.155C523.526 248.492 526.626 238.827 529.738 229.163C534.129 238.009 543.021 244.752 551 247.619C544.424 235.065 540.649 196.681 544.436 170.18C527.233 191.431 508.237 210.29 488.045 229.449C497.977 231.77 506.655 230.137 516.252 228.949C513.538 234.509 510.903 240.086 508.19 245.645C481.953 230.281 451.15 241.811 450.919 262.318C451.816 286.231 481.383 289.63 498.438 281.297C495.057 303.099 444.949 295.068 444.949 295.068C427.145 288.93 410.233 289.981 391.531 290.121C395.417 278.164 416.997 267.553 433.438 272.235C410.421 246.428 436.691 214.388 468.376 204.524C433.842 193.133 463.578 166.806 489.424 147.943C489.424 147.943 415.098 179.223 408.323 179.123C387.199 177.528 392.997 152.451 401.069 139ZM164.17 169.424C164.935 169.009 169.861 168.86 173.085 169.645C176.437 170.462 180.502 170.933 180.446 171.931C178.894 174.528 175.093 177.659 171.348 177.471C167.602 177.282 165.418 175.052 164.17 169.424Z" fill="#D21034" stroke="black" stroke-width="1.72289" stroke-linejoin="round"/>
<path fill-rule="evenodd" clip-rule="evenodd" d="M497.044 265.411C494.304 273.304 470.528 277.343 468.934 265.659C468.123 259.71 483.016 250.535 497.044 265.411Z" fill="white" stroke="black" stroke-width="1.52547"/>
<path d="M533.746 205.737C533.746 205.737 532.12 225.461 529.737 229.471" stroke="black" stroke-width="1.37831" stroke-linecap="round"/>
<path d="M524.536 206.821C524.536 206.929 516.3 229.038 516.3 229.038" stroke="black" stroke-width="1.725" stroke-linecap="round"/>
<path d="M508.263 245.76C509.912 247.043 516.284 250.444 520.493 258.315" stroke="black" stroke-width="1.37831"/>
<path d="M497.273 265.671C497.273 265.671 503.202 270.845 497.986 283.331" stroke="black" stroke-width="1.37831"/>
<path d="M409.012 302.513C420.717 301.104 437.513 327.113 446.074 332.207" stroke="black" stroke-width="1.37831"/>
<path d="M495.817 444.806C495.817 444.806 490.94 448.382 493.541 453.043" stroke="black" stroke-width="1.37831"/>
<path d="M413.888 449.141C413.888 449.141 419.739 450.766 419.09 455.643" stroke="black" stroke-width="1.37831"/>
<path d="M402.076 432.127C402.076 432.127 406.302 436.571 403.485 440.254" stroke="black" stroke-width="1.37831"/>
<path d="M408.794 415.004C408.794 415.004 414.429 417.713 407.71 422.374" stroke="black" stroke-width="1.37831"/>
<path d="M338.027 444.589C338.027 444.589 333.15 448.708 336.727 453.368" stroke="black" stroke-width="1.37831"/>
<path d="M254.906 445.782C254.906 445.782 263.793 446.215 260.65 452.934" stroke="black" stroke-width="1.37831"/>
<path d="M248.295 430.826C248.295 430.826 251.264 436.329 245.521 437.846" stroke="black" stroke-width="1.37831"/>
<path d="M259.458 412.511C259.458 412.511 262.385 418.363 256.749 419.122" stroke="black" stroke-width="1.37831"/>
<path d="M253.063 444.481C253.063 444.481 261.625 437.112 265.635 441.013C269.644 444.914 286.659 437.654 286.659 437.654" stroke="black" stroke-width="1.37831"/>
<path d="M292.512 426.708L278.423 434.077" stroke="black" stroke-width="1.37831"/>
<path d="M312.344 422.699C312.344 422.699 322.747 433.861 330.334 420.313" stroke="black" stroke-width="1.37831"/>
<path d="M322.422 415.653C329.466 421.288 326.58 424.665 348.689 409.819" stroke="black" stroke-width="1.37831"/>
<path fill-rule="evenodd" clip-rule="evenodd" d="M329.142 406.225C329.142 406.225 347.998 408.177 348.865 409.585C351.033 407.309 367.87 393.671 347.171 391.721C343.705 405.918 329.467 406.442 329.142 406.225Z" stroke="black" stroke-width="1.37831"/>
<path d="M104.861 448.417C104.861 448.417 111.805 449.434 107.74 455.021" stroke="black" stroke-width="1.37831"/>
<path d="M101.813 435.207C101.813 435.207 106.893 438.426 101.136 442.659" stroke="black" stroke-width="1.37831"/>
<path d="M109.773 421.151C109.773 421.151 112.144 427.247 104.184 426.401" stroke="black" stroke-width="1.37831"/>
<path d="M104.691 443.844C104.691 443.844 114.345 435.884 119.425 440.796C124.337 442.49 127.046 442.151 127.046 442.151" stroke="black" stroke-width="1.37831"/>
<path d="M191.57 443.337C191.4 443.337 188.691 449.094 191.063 451.973" stroke="black" stroke-width="1.37831"/>
<path d="M105.539 430.804C111.635 430.465 112.948 433.218 118.494 433.218C124.884 433.413 131.111 430.804 139.24 428.602" stroke="black" stroke-width="1.37831"/>
<path d="M64.2158 247.561C64.2158 247.561 68.1109 249.425 71.8371 243.667" stroke="black" stroke-width="1.37831"/>
<path d="M61.8447 320.723C61.8447 320.723 68.1108 322.586 67.0948 327.328" stroke="black" stroke-width="1.37831"/>
<path d="M86.061 237.062C86.061 237.062 86.061 240.787 93.8514 235.03" stroke="black" stroke-width="1.37831"/>
<path d="M94.5306 254.675C94.5306 254.675 88.6026 270.594 95.7156 274.319" stroke="black" stroke-width="1.37831"/>
<path d="M101.643 250.271C101.643 250.271 104.691 256.877 108.926 253.151" stroke="black" stroke-width="1.37831"/>
<path d="M95.2074 208.441L90.2954 200.481L94.699 198.957" stroke="black" stroke-width="1.37831"/>
<path d="M144.151 167.965C144.151 167.965 148.893 173.892 149.062 177.279C149.232 180.667 145.506 183.207 145.506 183.207" stroke="black" stroke-width="1.37831"/>
<path d="M140.764 175.247C140.764 175.247 139.749 178.803 139.41 181.175C139.41 182.868 133.99 185.07 133.99 185.07" stroke="black" stroke-width="1.37831"/>
<path d="M205.627 157.634C205.796 157.804 204.949 162.376 202.408 165.086" stroke="black" stroke-width="1.37831"/>
<path d="M159.224 170.336C159.224 170.336 166.663 168.289 172.229 169.449C177.743 170.582 185.136 172.537 185.136 172.537C185.136 172.537 193.941 171.352 196.821 169.32" stroke="black" stroke-width="1.37831"/>
<path fill-rule="evenodd" clip-rule="evenodd" d="M167.521 169.15L176.667 170.844C176.667 170.844 170.231 179.481 167.521 169.15Z" fill="black" stroke="black" stroke-width="1.37831" stroke-linejoin="round"/>
<path d="M179.885 194.723L191.91 217.755L197.668 209.118L200.717 215.045L205.628 206.409L214.095 211.827L210.878 201.328L217.99 200.82C217.99 200.82 216.127 195.739 209.691 194.723C211.385 193.368 217.313 189.473 217.313 189.473C217.313 189.473 213.927 185.578 208.676 185.408C210.369 183.546 212.74 178.973 212.571 178.973C212.402 178.973 207.32 177.788 207.32 177.788C207.32 177.788 219.345 181.683 228.659 176.263" stroke="black" stroke-width="1.72289" stroke-linecap="round" stroke-linejoin="round"/>
<path d="M140.581 210.747L159.055 210.473C164.933 210.385 174.613 202.239 185.452 204.779" stroke="black" stroke-width="1.37831"/>
<path d="M143.304 210.304C143.304 210.134 144.659 206.747 144.659 206.747L146.169 210.663L148.599 210.599L150.203 206.674L151.519 210.614H153.934L155.424 206.239L157.674 210.381L159.585 210.478L161.091 205.433L164.194 209.047L165.321 208.61L166.287 203.564L169.352 207.093L170.232 206.578L171.653 201.604L174.2 205.302L175.482 204.884L176.671 200.704L179.038 204.546" stroke="black" stroke-width="1.37831" stroke-linejoin="round"/>
<path d="M220.362 173.384C220.362 173.384 210.876 173.045 211.554 169.32C212.233 165.086 221.547 162.037 221.547 162.037C221.547 162.037 233.909 154.078 235.772 151.368" stroke="black" stroke-width="1.37831"/>
<path d="M222.562 157.295C222.562 157.295 225.611 154.247 230.692 155.771" stroke="black" stroke-width="1.37831"/>
<path d="M146.86 329.36C146.86 329.36 145.675 335.287 153.973 347.142C151.602 360.352 164.016 370.733 168.928 372.426" stroke="black" stroke-width="1.37831"/>
<path d="M104.472 305.664C95.1582 310.914 109.772 344.093 153.973 347.311" stroke="black" stroke-width="1.37831"/>
<path d="M139.882 330.963C139.882 330.963 142.966 340.707 140.426 345.28" stroke="black" stroke-width="1.37831"/>
<path d="M127.165 327.47C127.165 327.47 123.49 334.611 122.643 337.997" stroke="black" stroke-width="1.37831"/>
<path d="M113.878 318.586C113.878 318.586 111.126 324.449 107.739 326.143" stroke="black" stroke-width="1.37831"/>
<path d="M270.66 274.319C270.66 274.319 282.515 274.15 294.37 241.973C306.055 197.941 398.692 148.828 400.556 139.682" stroke="black" stroke-width="1.37831"/>
<path d="M304.407 222.395C321.81 212.735 375.549 193.037 411.394 178.587" stroke="black" stroke-width="1.37831" stroke-linecap="round"/>
<path d="M484.865 149.882C484.865 149.882 320.326 226.762 317.931 230.835C345.714 222.451 463.549 202.812 466.424 204.488C459.478 206.165 316.494 238.977 309.788 246.881C345.474 245.683 420.2 258.377 431.935 270.591C406.547 264.844 330.625 253.587 307.393 258.616C324.399 262.688 389.543 304.841 389.543 311.547C379.723 302.207 301.405 269.873 298.292 272.987C316.254 283.765 341.643 323.762 341.642 333.582C336.373 325.199 291.106 276.579 288.472 279.692C293.262 286.4 302.755 343.791 297.902 346.451C297.902 339.506 280.329 289.273 278.892 287.836C275.299 288.793 252.9 349.124 257.338 354.733C254.464 334.616 257.815 292.627 263.324 294.303C253.505 295.74 222.167 337.06 225.519 343.527C226.478 333.228 227.879 326.397 245.601 292.147C225.962 293.344 185.246 318.972 178.299 328.073C183.809 311.788 218.298 284.243 233.387 282.327" stroke="black" stroke-width="1.37831" stroke-linejoin="round"/>
<path d="M178.573 211.035L188.448 211.158" stroke="black" stroke-width="1.37831"/>
<path d="M139.564 193.003C139.564 193.003 146.203 195.543 159.97 184.644" stroke="black" stroke-width="1.37831"/>
<path d="M183.9 318.227C179.967 313.146 186.85 235.127 201.438 214.802C196.357 251.517 213.239 289.051 217.5 288.888" stroke="black" stroke-width="1.37831"/>
<path d="M181.604 218.572C181.604 218.572 188.489 226.112 196.357 224.801" stroke="black" stroke-width="1.37831"/>
<path d="M173.903 235.782C173.903 235.782 177.344 241.683 190.457 242.666" stroke="black" stroke-width="1.37831"/>
<path d="M166.325 251.3C166.325 251.3 175.214 262.171 187.179 260.532" stroke="black" stroke-width="1.37831"/>
<path d="M158.331 269.875C158.331 269.875 160.789 277.906 184.392 278.398" stroke="black" stroke-width="1.37831"/>
<path d="M151.446 292.494C151.446 292.494 162.429 302.327 183.081 299.214" stroke="black" stroke-width="1.37831"/>
<path d="M152.595 320.85C152.595 320.85 166.69 328.717 184.064 318.063" stroke="black" stroke-width="1.37831"/>
<path d="M391.078 290.035C391.078 290.035 381.243 298.395 390.421 311.835C359.934 311.344 343.545 325.439 342.234 334.945C303.388 332.159 310.437 343.633 297.815 347.402C280.933 333.306 256.183 341.174 257.822 355.269C246.512 339.37 229.139 347.075 227.008 351.008C224.877 354.942 225.697 331.503 225.697 331.503C225.697 331.503 214.388 336.585 206.519 345.927C206.684 339.699 206.519 329.536 206.519 326.259C197.068 328.17 187.943 328.278 178.164 328.062" stroke="black" stroke-width="1.37831"/>
<path d="M186.725 328.147C186.561 328.147 170.459 353.467 195.701 360.187" stroke="black" stroke-width="1.37831"/>
<path d="M225.37 343.141C225.37 343.141 221.272 345.107 219.797 344.779C214.879 345.927 215.862 357.401 222.091 356.745C224.221 354.287 226.516 350.844 226.516 350.844" stroke="black" stroke-width="1.37831"/>
<path d="M216.517 350.025C216.517 350.025 214.715 352.484 211.928 349.861C210.452 347.239 205.208 361.663 214.387 362.154C216.025 357.892 221.107 356.745 221.107 356.745" stroke="black" stroke-width="1.37831"/>
<path d="M208.977 355.433C201.765 354.941 197.832 370.841 211.764 360.844" stroke="black" stroke-width="1.37831"/>
<path d="M203.897 357.729C203.897 357.729 195.866 351.5 196.194 360.187C196.029 365.595 198.652 366.907 198.652 366.907C198.979 370.841 202.422 376.412 205.208 371.332C206.355 366.415 204.389 364.284 204.389 364.284" stroke="black" stroke-width="1.37831"/>
<path d="M161.773 412.8C161.609 412.8 163.084 423.619 170.624 415.423C175.869 404.442 192.424 373.463 196.194 362.809" stroke="black" stroke-width="1.37831"/>
<path d="M184.72 354.287C184.72 354.287 173.083 357.565 177.509 371.332C184.228 376.742 190.785 375.922 190.785 375.922" stroke="black" stroke-width="1.37831"/>
<path d="M176.197 382.151C176.197 382.151 184.064 385.593 186.687 384.281" stroke="black" stroke-width="1.37831"/>
<path d="M170.218 395.644C170.218 395.644 173.737 401.819 178.656 399.688" stroke="black" stroke-width="1.37831"/>
<path d="M232.746 347.075C232.746 347.075 233.728 363.629 228.812 369.529C223.894 375.43 229.963 387.685 229.963 387.685" stroke="black" stroke-width="1.37831"/>
<path d="M245.202 346.255C245.366 346.582 248.315 372.644 241.759 380.019" stroke="black" stroke-width="1.37831"/>
<path d="M270.279 341.01C270.279 341.01 279.896 359.618 270.225 368.796" stroke="black" stroke-width="1.37831"/>
<path d="M297.815 346.746C297.815 346.746 292.241 363.301 284.374 368.873" stroke="black" stroke-width="1.37831"/>
<path d="M325.187 347.402C325.187 347.402 299.289 391.657 347.15 391.657" stroke="black" stroke-width="1.37831"/>
<path d="M289.948 363.136C289.948 362.973 316.468 363.21 318.27 368.127" stroke="black" stroke-width="1.37831"/>
<path d="M298.634 390.674C298.962 390.345 317.647 388.542 321.09 381.822" stroke="black" stroke-width="1.37831"/>
<path d="M321.108 400.73C321.273 400.73 332.563 393.952 330.269 389.198" stroke="black" stroke-width="1.37831"/>
<path d="M320.107 334.781C321.418 351.991 300.274 361.826 291.915 360.187" stroke="black" stroke-width="1.37831"/>
<path d="M318.467 345.107C318.467 345.107 333.219 352.319 345.838 340.682" stroke="black" stroke-width="1.37831"/>
<path d="M342.397 335.11C342.397 335.11 347.971 345.107 354.69 344.452C363.541 341.829 366.819 347.238 366.819 347.238" stroke="black" stroke-width="1.37831"/>
<path d="M379.604 312.163C379.604 312.163 378.948 337.076 414.023 342.157C453.197 352.975 471.718 347.238 474.013 391.165C472.538 407.884 470.461 426.767 458.332 419.554" stroke="black" stroke-width="1.37831"/>
<path d="M462.704 406.9C462.704 406.9 468.494 411.764 472.428 405.372" stroke="black" stroke-width="1.37831"/>
<path d="M463.471 394.009C463.471 394.009 470.625 395.301 473.902 388.418" stroke="black" stroke-width="1.37831"/>
<path d="M461.466 377.311C461.466 377.311 469.204 379.239 471.662 374.157" stroke="black" stroke-width="1.37831"/>
<path d="M461.72 356.908C461.72 356.908 455.839 368.42 453.709 369.568" stroke="black" stroke-width="1.37831"/>
<path d="M446.478 349.534C446.478 349.534 446.806 361.826 441.561 366.743" stroke="black" stroke-width="1.37831"/>
<path d="M429.923 346.582C429.923 346.582 429.759 356.745 421.399 363.792" stroke="black" stroke-width="1.37831"/>
<path d="M399.109 360.679C399.273 360.514 412.549 345.927 409.107 341.501" stroke="black" stroke-width="1.37831"/>
<path d="M394.683 335.601C394.683 335.601 392.934 349.645 378.838 351.775" stroke="black" stroke-width="1.37831"/>
<path d="M182.825 308.275C182.825 308.275 209.962 292.003 211.437 280.038" stroke="black" stroke-width="1.37831"/>
<path d="M183.737 294.133C183.737 293.969 200.732 289.8 207.78 271.115" stroke="black" stroke-width="1.37831"/>
<path d="M184.227 283.807C185.703 284.462 204.294 271.072 204.786 261.239" stroke="black" stroke-width="1.37831"/>
<path d="M185.375 271.842C190.783 270.367 200.735 258.33 202.702 251.938" stroke="black" stroke-width="1.37831"/>
<path d="M187.834 258.893C187.834 258.893 195.538 253.484 201.439 245.289" stroke="black" stroke-width="1.37831"/>
<path d="M190.818 243.528C190.982 247.954 198 241.97 200.786 238.199" stroke="black" stroke-width="1.37831"/>
<path d="M206.027 290.528L209.306 294.625" stroke="black" stroke-width="1.37831"/>
<path d="M199.096 296.911L201.274 300.362" stroke="black" stroke-width="1.37831"/>
<path d="M191.604 303.148C191.604 303.311 194.226 306.918 194.226 306.918" stroke="black" stroke-width="1.37831"/>
<path d="M187.016 305.771C187.016 305.771 187.179 311.015 189.802 311.342" stroke="black" stroke-width="1.37831"/>
<path d="M188.161 292.494C188.161 292.494 191.112 302.493 193.734 300.852" stroke="black" stroke-width="1.37831"/>
<path d="M195.702 287.74C195.865 288.069 198.98 297.084 198.98 297.084" stroke="black" stroke-width="1.37831"/>
<path d="M202.259 281.676L206.192 289.544" stroke="black" stroke-width="1.37831"/>
<path d="M197.829 274.133C197.993 274.296 202.095 280.201 203.241 279.382" stroke="black" stroke-width="1.37831"/>
<path d="M191.932 279.545C191.932 279.545 194.227 288.56 196.029 287.74" stroke="black" stroke-width="1.37831"/>
<path d="M184.098 286.311L188.327 292.658" stroke="black" stroke-width="1.37831"/>
<path d="M190.292 268.891C190.292 268.891 191.767 278.398 193.078 278.07" stroke="black" stroke-width="1.37831"/>
<path d="M195.776 263.474C195.776 263.638 199.963 271.515 200.291 271.515" stroke="black" stroke-width="1.37831"/>
<path d="M187.342 262.334C187.505 262.334 191.932 267.416 191.932 267.416" stroke="black" stroke-width="1.37831"/>
<path d="M193.898 254.467C194.062 254.632 197.669 260.696 197.669 260.696" stroke="black" stroke-width="1.37831"/>
<path d="M195.702 243.487C195.702 243.487 195.702 250.533 197.177 250.698" stroke="black" stroke-width="1.37831"/>
<path d="M192.259 238.077L195.864 243.321" stroke="black" stroke-width="1.37831"/>
</g>
<defs>
<clipPath id="clip0">
<rect width="600" height="600" rx="300" fill="white"/>
</clipPath>
</defs>
</svg>
